<mxfile host="65bd71144e">
    <diagram id="KiWmwfYZ3t3_fN4LLND-" name="Page-1">
        <mxGraphModel dx="1615" dy="541" grid="1" gridSize="10" guides="1" tooltips="1" connect="1" arrows="1" fold="1" page="1" pageScale="1" pageWidth="827" pageHeight="1169" math="0" shadow="0">
            <root>
                <mxCell id="0"/>
                <mxCell id="1" parent="0"/>
                <mxCell id="193" value="" style="rounded=0;whiteSpace=wrap;html=1;fontColor=default;" parent="1" vertex="1">
                    <mxGeometry x="-770" y="490" width="420" height="200" as="geometry"/>
                </mxCell>
                <mxCell id="174" style="edgeStyle=orthogonalEdgeStyle;html=1;" parent="1" source="30" target="142" edge="1">
                    <mxGeometry relative="1" as="geometry">
                        <Array as="points">
                            <mxPoint x="725" y="331"/>
                            <mxPoint x="725" y="211"/>
                            <mxPoint x="-60" y="211"/>
                        </Array>
                    </mxGeometry>
                </mxCell>
                <mxCell id="30" value="" style="sketch=0;points=[[0,0,0],[0.25,0,0],[0.5,0,0],[0.75,0,0],[1,0,0],[0,1,0],[0.25,1,0],[0.5,1,0],[0.75,1,0],[1,1,0],[0,0.25,0],[0,0.5,0],[0,0.75,0],[1,0.25,0],[1,0.5,0],[1,0.75,0]];outlineConnect=0;fontColor=#232F3E;gradientColor=#F78E04;gradientDirection=north;fillColor=#D05C17;strokeColor=#ffffff;dashed=0;verticalLabelPosition=bottom;verticalAlign=top;align=center;html=1;fontSize=12;fontStyle=0;aspect=fixed;shape=mxgraph.aws4.resourceIcon;resIcon=mxgraph.aws4.lambda;" parent="1" vertex="1">
                    <mxGeometry x="535" y="294" width="78" height="73" as="geometry"/>
                </mxCell>
                <mxCell id="205" style="edgeStyle=none;html=1;exitX=1;exitY=0.5;exitDx=0;exitDy=0;exitPerimeter=0;entryX=0.25;entryY=0;entryDx=0;entryDy=0;entryPerimeter=0;" parent="1" source="31" target="142" edge="1">
                    <mxGeometry relative="1" as="geometry">
                        <mxPoint x="-110" y="90" as="targetPoint"/>
                        <Array as="points">
                            <mxPoint x="790" y="459"/>
                            <mxPoint x="790" y="90"/>
                            <mxPoint x="-91" y="90"/>
                        </Array>
                    </mxGeometry>
                </mxCell>
                <mxCell id="31" value="" style="sketch=0;points=[[0,0,0],[0.25,0,0],[0.5,0,0],[0.75,0,0],[1,0,0],[0,1,0],[0.25,1,0],[0.5,1,0],[0.75,1,0],[1,1,0],[0,0.25,0],[0,0.5,0],[0,0.75,0],[1,0.25,0],[1,0.5,0],[1,0.75,0]];outlineConnect=0;fontColor=#232F3E;gradientColor=#F78E04;gradientDirection=north;fillColor=#D05C17;strokeColor=#ffffff;dashed=0;verticalLabelPosition=bottom;verticalAlign=top;align=center;html=1;fontSize=12;fontStyle=0;aspect=fixed;shape=mxgraph.aws4.resourceIcon;resIcon=mxgraph.aws4.lambda;" parent="1" vertex="1">
                    <mxGeometry x="535" y="422" width="78" height="73" as="geometry"/>
                </mxCell>
                <mxCell id="32" value="" style="sketch=0;points=[[0,0,0],[0.25,0,0],[0.5,0,0],[0.75,0,0],[1,0,0],[0,1,0],[0.25,1,0],[0.5,1,0],[0.75,1,0],[1,1,0],[0,0.25,0],[0,0.5,0],[0,0.75,0],[1,0.25,0],[1,0.5,0],[1,0.75,0]];outlineConnect=0;fontColor=#232F3E;gradientColor=#F78E04;gradientDirection=north;fillColor=#D05C17;strokeColor=#ffffff;dashed=0;verticalLabelPosition=bottom;verticalAlign=top;align=center;html=1;fontSize=12;fontStyle=0;aspect=fixed;shape=mxgraph.aws4.resourceIcon;resIcon=mxgraph.aws4.lambda;" parent="1" vertex="1">
                    <mxGeometry x="535" y="551" width="78" height="73" as="geometry"/>
                </mxCell>
                <mxCell id="33" value="&lt;meta charset=&quot;utf-8&quot;&gt;&lt;span style=&quot;color: rgb(240, 240, 240); font-family: Helvetica; font-size: 12px; font-style: normal; font-variant-ligatures: normal; font-variant-caps: normal; font-weight: 400; letter-spacing: normal; orphans: 2; text-align: center; text-indent: 0px; text-transform: none; widows: 2; word-spacing: 0px; -webkit-text-stroke-width: 0px; background-color: rgb(42, 37, 47); text-decoration-thickness: initial; text-decoration-style: initial; text-decoration-color: initial; float: none; display: inline !important;&quot;&gt;memberLeftChannel&lt;/span&gt;" style="sketch=0;points=[[0,0,0],[0.25,0,0],[0.5,0,0],[0.75,0,0],[1,0,0],[0,1,0],[0.25,1,0],[0.5,1,0],[0.75,1,0],[1,1,0],[0,0.25,0],[0,0.5,0],[0,0.75,0],[1,0.25,0],[1,0.5,0],[1,0.75,0]];outlineConnect=0;fontColor=#232F3E;gradientColor=#F78E04;gradientDirection=north;fillColor=#D05C17;strokeColor=#ffffff;dashed=0;verticalLabelPosition=bottom;verticalAlign=top;align=center;html=1;fontSize=12;fontStyle=0;aspect=fixed;shape=mxgraph.aws4.resourceIcon;resIcon=mxgraph.aws4.lambda;" parent="1" vertex="1">
                    <mxGeometry x="535" y="683" width="78" height="73" as="geometry"/>
                </mxCell>
                <mxCell id="114" value="" style="edgeStyle=none;html=1;" parent="1" source="36" target="30" edge="1">
                    <mxGeometry relative="1" as="geometry"/>
                </mxCell>
                <mxCell id="36" value="memberJoinedChannel" style="text;html=1;align=center;verticalAlign=middle;resizable=0;points=[];autosize=1;strokeColor=none;fillColor=none;" parent="1" vertex="1">
                    <mxGeometry x="499" y="362" width="150" height="30" as="geometry"/>
                </mxCell>
                <mxCell id="128" value="" style="edgeStyle=none;html=1;" parent="1" source="37" target="31" edge="1">
                    <mxGeometry relative="1" as="geometry"/>
                </mxCell>
                <mxCell id="37" value="botJoined" style="text;html=1;align=center;verticalAlign=middle;resizable=0;points=[];autosize=1;strokeColor=none;fillColor=none;" parent="1" vertex="1">
                    <mxGeometry x="534" y="490" width="80" height="30" as="geometry"/>
                </mxCell>
                <mxCell id="38" value="askBirthday" style="text;html=1;align=center;verticalAlign=middle;resizable=0;points=[];autosize=1;strokeColor=none;fillColor=none;" parent="1" vertex="1">
                    <mxGeometry x="534" y="624" width="80" height="30" as="geometry"/>
                </mxCell>
                <mxCell id="110" value="" style="edgeStyle=none;html=1;" parent="1" edge="1">
                    <mxGeometry relative="1" as="geometry">
                        <mxPoint x="-687" y="1037.0000000000002" as="sourcePoint"/>
                        <mxPoint x="-687" y="1036.9999999999998" as="targetPoint"/>
                    </mxGeometry>
                </mxCell>
                <mxCell id="129" value="Slack" style="text;html=1;align=center;verticalAlign=middle;resizable=0;points=[];autosize=1;strokeColor=none;fillColor=none;" parent="1" vertex="1">
                    <mxGeometry x="-736" y="623.3" width="50" height="30" as="geometry"/>
                </mxCell>
                <mxCell id="133" value="" style="sketch=0;points=[[0,0,0],[0.25,0,0],[0.5,0,0],[0.75,0,0],[1,0,0],[0,1,0],[0.25,1,0],[0.5,1,0],[0.75,1,0],[1,1,0],[0,0.25,0],[0,0.5,0],[0,0.75,0],[1,0.25,0],[1,0.5,0],[1,0.75,0]];outlineConnect=0;fontColor=#232F3E;gradientColor=#F78E04;gradientDirection=north;fillColor=#D05C17;strokeColor=#ffffff;dashed=0;verticalLabelPosition=bottom;verticalAlign=top;align=center;html=1;fontSize=12;fontStyle=0;aspect=fixed;shape=mxgraph.aws4.resourceIcon;resIcon=mxgraph.aws4.lambda;" parent="1" vertex="1">
                    <mxGeometry x="-451" y="549" width="78" height="78" as="geometry"/>
                </mxCell>
                <mxCell id="137" value="/slack/callback" style="text;html=1;align=center;verticalAlign=middle;resizable=0;points=[];autosize=1;strokeColor=none;fillColor=none;" parent="1" vertex="1">
                    <mxGeometry x="-462" y="622" width="100" height="30" as="geometry"/>
                </mxCell>
                <mxCell id="139" style="edgeStyle=orthogonalEdgeStyle;html=1;entryX=0;entryY=0.5;entryDx=0;entryDy=0;entryPerimeter=0;exitX=1;exitY=0.5;exitDx=0;exitDy=0;exitPerimeter=0;" parent="1" source="133" target="142" edge="1">
                    <mxGeometry relative="1" as="geometry">
                        <mxPoint x="-251" y="718" as="targetPoint"/>
                        <mxPoint x="-311" y="749" as="sourcePoint"/>
                    </mxGeometry>
                </mxCell>
                <mxCell id="144" style="edgeStyle=none;html=1;entryX=-0.029;entryY=0.5;entryDx=0;entryDy=0;entryPerimeter=0;" parent="1" source="142" target="143" edge="1">
                    <mxGeometry relative="1" as="geometry">
                        <mxPoint x="9" y="598" as="targetPoint"/>
                    </mxGeometry>
                </mxCell>
                <mxCell id="142" value="" style="sketch=0;points=[[0,0,0],[0.25,0,0],[0.5,0,0],[0.75,0,0],[1,0,0],[0,1,0],[0.25,1,0],[0.5,1,0],[0.75,1,0],[1,1,0],[0,0.25,0],[0,0.5,0],[0,0.75,0],[1,0.25,0],[1,0.5,0],[1,0.75,0]];outlineConnect=0;fontColor=#232F3E;gradientColor=#FF4F8B;gradientDirection=north;fillColor=#BC1356;strokeColor=#ffffff;dashed=0;verticalLabelPosition=bottom;verticalAlign=top;align=center;html=1;fontSize=12;fontStyle=0;aspect=fixed;shape=mxgraph.aws4.resourceIcon;resIcon=mxgraph.aws4.eventbridge;" parent="1" vertex="1">
                    <mxGeometry x="-110" y="549" width="78" height="78" as="geometry"/>
                </mxCell>
                <mxCell id="216" style="edgeStyle=none;html=1;entryX=0.008;entryY=0.509;entryDx=0;entryDy=0;entryPerimeter=0;" edge="1" parent="1" source="143" target="209">
                    <mxGeometry relative="1" as="geometry"/>
                </mxCell>
                <mxCell id="218" style="edgeStyle=none;html=1;" edge="1" parent="1" source="143" target="212">
                    <mxGeometry relative="1" as="geometry">
                        <Array as="points">
                            <mxPoint x="120" y="331"/>
                        </Array>
                    </mxGeometry>
                </mxCell>
                <mxCell id="219" style="edgeStyle=none;html=1;" edge="1" parent="1" source="143" target="211">
                    <mxGeometry relative="1" as="geometry">
                        <Array as="points">
                            <mxPoint x="118" y="470"/>
                        </Array>
                    </mxGeometry>
                </mxCell>
                <mxCell id="221" style="edgeStyle=none;html=1;" edge="1" parent="1" source="143" target="214">
                    <mxGeometry relative="1" as="geometry">
                        <Array as="points">
                            <mxPoint x="120" y="720"/>
                        </Array>
                    </mxGeometry>
                </mxCell>
                <mxCell id="143" value="" style="sketch=0;outlineConnect=0;fontColor=#232F3E;gradientColor=none;fillColor=#B0084D;strokeColor=none;dashed=0;verticalLabelPosition=bottom;verticalAlign=top;align=center;html=1;fontSize=12;fontStyle=0;aspect=fixed;pointerEvents=1;shape=mxgraph.aws4.rule_2;" parent="1" vertex="1">
                    <mxGeometry x="79" y="549" width="78" height="76" as="geometry"/>
                </mxCell>
                <mxCell id="147" value="EventBus" style="text;html=1;align=center;verticalAlign=middle;resizable=0;points=[];autosize=1;strokeColor=none;fillColor=none;" parent="1" vertex="1">
                    <mxGeometry x="-106" y="622" width="70" height="30" as="geometry"/>
                </mxCell>
                <mxCell id="152" value="" style="sketch=0;outlineConnect=0;fontColor=#232F3E;gradientColor=none;fillColor=#B0084D;strokeColor=none;dashed=0;verticalLabelPosition=bottom;verticalAlign=top;align=center;html=1;fontSize=12;fontStyle=0;aspect=fixed;pointerEvents=1;shape=mxgraph.aws4.event_resource;" parent="1" vertex="1">
                    <mxGeometry x="216" y="251" width="50" height="45" as="geometry"/>
                </mxCell>
                <mxCell id="153" value="memberJoinedChannel" style="text;html=1;align=center;verticalAlign=middle;resizable=0;points=[];autosize=1;strokeColor=none;fillColor=none;" parent="1" vertex="1">
                    <mxGeometry x="166" y="301" width="150" height="30" as="geometry"/>
                </mxCell>
                <mxCell id="158" value="" style="sketch=0;outlineConnect=0;fontColor=#232F3E;gradientColor=none;fillColor=#B0084D;strokeColor=none;dashed=0;verticalLabelPosition=bottom;verticalAlign=top;align=center;html=1;fontSize=12;fontStyle=0;aspect=fixed;pointerEvents=1;shape=mxgraph.aws4.event_resource;" parent="1" vertex="1">
                    <mxGeometry x="216" y="383" width="50" height="45" as="geometry"/>
                </mxCell>
                <mxCell id="159" value="botJoined" style="text;html=1;align=center;verticalAlign=middle;resizable=0;points=[];autosize=1;strokeColor=none;fillColor=none;" parent="1" vertex="1">
                    <mxGeometry x="201" y="433" width="80" height="30" as="geometry"/>
                </mxCell>
                <mxCell id="166" value="" style="sketch=0;outlineConnect=0;fontColor=#232F3E;gradientColor=none;fillColor=#B0084D;strokeColor=none;dashed=0;verticalLabelPosition=bottom;verticalAlign=top;align=center;html=1;fontSize=12;fontStyle=0;aspect=fixed;pointerEvents=1;shape=mxgraph.aws4.event_resource;" parent="1" vertex="1">
                    <mxGeometry x="216" y="500" width="50" height="45" as="geometry"/>
                </mxCell>
                <mxCell id="167" value="askBirthday" style="text;html=1;align=center;verticalAlign=middle;resizable=0;points=[];autosize=1;strokeColor=none;fillColor=none;" parent="1" vertex="1">
                    <mxGeometry x="201" y="550" width="80" height="30" as="geometry"/>
                </mxCell>
                <mxCell id="168" value="" style="sketch=0;outlineConnect=0;fontColor=#232F3E;gradientColor=none;fillColor=#B0084D;strokeColor=none;dashed=0;verticalLabelPosition=bottom;verticalAlign=top;align=center;html=1;fontSize=12;fontStyle=0;aspect=fixed;pointerEvents=1;shape=mxgraph.aws4.event_resource;" parent="1" vertex="1">
                    <mxGeometry x="216" y="635" width="50" height="45" as="geometry"/>
                </mxCell>
                <mxCell id="169" value="memberLeftChannel" style="text;html=1;align=center;verticalAlign=middle;resizable=0;points=[];autosize=1;strokeColor=none;fillColor=none;" parent="1" vertex="1">
                    <mxGeometry x="176" y="685" width="130" height="30" as="geometry"/>
                </mxCell>
                <mxCell id="172" value="" style="sketch=0;outlineConnect=0;fontColor=#232F3E;gradientColor=none;fillColor=#B0084D;strokeColor=none;dashed=0;verticalLabelPosition=bottom;verticalAlign=top;align=center;html=1;fontSize=12;fontStyle=0;aspect=fixed;pointerEvents=1;shape=mxgraph.aws4.event_resource;" parent="1" vertex="1">
                    <mxGeometry x="-251" y="501" width="50" height="50" as="geometry"/>
                </mxCell>
                <mxCell id="173" value="memberJoinedChannel" style="text;html=1;align=center;verticalAlign=middle;resizable=0;points=[];autosize=1;strokeColor=none;fillColor=none;" parent="1" vertex="1">
                    <mxGeometry x="-310" y="550" width="150" height="30" as="geometry"/>
                </mxCell>
                <mxCell id="185" value="" style="sketch=0;outlineConnect=0;fontColor=#232F3E;gradientColor=none;fillColor=#B0084D;strokeColor=none;dashed=0;verticalLabelPosition=bottom;verticalAlign=top;align=center;html=1;fontSize=12;fontStyle=0;aspect=fixed;pointerEvents=1;shape=mxgraph.aws4.event_resource;" parent="1" vertex="1">
                    <mxGeometry x="275" y="131" width="50" height="50" as="geometry"/>
                </mxCell>
                <mxCell id="186" value="botJoined" style="text;html=1;align=center;verticalAlign=middle;resizable=0;points=[];autosize=1;strokeColor=none;fillColor=none;" parent="1" vertex="1">
                    <mxGeometry x="251" y="180" width="80" height="30" as="geometry"/>
                </mxCell>
                <mxCell id="188" value="" style="edgeStyle=none;exitX=1;exitY=0.75;exitDx=0;exitDy=0;entryX=0;entryY=0.75;entryDx=0;entryDy=0;entryPerimeter=0;fontColor=none;noLabel=1;labelBackgroundColor=none;" parent="1" edge="1">
                    <mxGeometry relative="1" as="geometry">
                        <mxPoint x="-672.9999999999998" y="607.9424999999999" as="sourcePoint"/>
                        <mxPoint x="-452" y="607.4999999999998" as="targetPoint"/>
                    </mxGeometry>
                </mxCell>
                <mxCell id="192" value="member_left_channel" style="edgeLabel;html=1;align=center;verticalAlign=middle;resizable=0;points=[];fontColor=default;" parent="188" vertex="1" connectable="0">
                    <mxGeometry x="-0.2182" y="1" relative="1" as="geometry">
                        <mxPoint x="6" as="offset"/>
                    </mxGeometry>
                </mxCell>
                <mxCell id="189" style="edgeStyle=none;html=1;exitX=1;exitY=0.25;exitDx=0;exitDy=0;entryX=0;entryY=0.25;entryDx=0;entryDy=0;entryPerimeter=0;" parent="1" source="187" target="133" edge="1">
                    <mxGeometry relative="1" as="geometry"/>
                </mxCell>
                <mxCell id="190" value="member_joined_channel" style="edgeLabel;html=1;align=center;verticalAlign=middle;resizable=0;points=[];" parent="189" vertex="1" connectable="0">
                    <mxGeometry x="-0.3475" y="1" relative="1" as="geometry">
                        <mxPoint x="20" as="offset"/>
                    </mxGeometry>
                </mxCell>
                <mxCell id="187" value="" style="shape=image;verticalLabelPosition=bottom;labelBackgroundColor=default;verticalAlign=top;aspect=fixed;imageAspect=0;image=data:image/png,iVBORw0KGgoAAAANSUhEUgAAA6AAAAOnCAYAAAA+wCsJAAD5NUlEQVR4AezXhQ2AAADAMBz+vxiiuDu0yY5YcAIAAAAAAAAAAAAAAAAAAACA8FsBfA0AgIGMTs3Ang8AAOCcWdTfZhUAAOBJQxl/tCcNKwAAwGMn8+qZTKrSRtlI+caKTvnGspHSRskN02pOHwsAAExmyd5ZALeRpFG4ICBtwBTzMTMzMzMzMzMzMzOTXVlmcJ3pfEsB51zlVHBBMshRtEbpLEceKddvr6dqai4qR3WtHSn+vqq3bEv/TPeredt/91QxVIZCZPkwGDc6y2ir0XajBqNGoyajZqsWox1GrVZtRu1WHUadAXWF1H2a6gqpM6COwOe1Bb7HDvvdmq2a7HdvsLVstbXFy4XecHitclglnAJEDwAAAAAh00Go9MNkMEj6IVJBrS0UGG/X2dl5x49+9KMP/f3vf/+Myy677FUjIyPv3rt376cPHDjw7aNHj/48kUj8fnJysieVSl2QTqevyGQyA3Nzc9csLCyMZrPZ8VwudySfzyeNjhUKhbTRLUZzq6urC0ZLnuflisXistGKUaFUKnknT54sSQZP/8z+u2X9t/oZ/ax+h/1daf1ufYY+S5+pz9Z30HfRd9J303fUd9V31ndXDapFNak21ahaVXMo0Lbp2vjhNRhc/dDqIKwSTssDAAAAAAARhsxguCwXLBtDoVJhqisej99eQevss89+/vDw8NvHxsY+f+TIkZ+YcNZ7/Pjxvvn5+T0mwB00YW7CBLtZz/PyJ/+bBG+V0J/LoX/n8r8P//vycvfzqlm16xroWuia6NroGula6Zrp2uka6lrqmtrV2I5QWG0sH1SDITWycAoAAAAAAOskaK65xzIUMmO2TXRbYNUyGC5v9+pXv/q+vb29z7/22mvfqxW+ZDL5t0wm029WA8eWl5cTZtVw3q4uOghwTgOjmwAbQT1C11TXVtdY11rXXNde90D3QvdE90b3KBhSA6up2+y9jQXD6WnuUSWYAgAAAAAQNtcOmmuETH8Fs9UPmFpt6+vre+34+PiX1Eqq1lK1mqr11PO8fzsIbG4DXAT/fS3Xr3uke6V7pnune6h7qXuqexsIqK3+Cuoa4bT82CKUAgAAAADUd9h0GDT9VtmGcMj8xje+8djBwcG3mGDyDbV8zs3N/dOsrN3ked5y5QHKfcAqr6gDbf3Xr3use617rnuvMaCxoDFxinDa4Lf2OgimrkMpAAAAAABUP2za1tk1guY973nPO/f09Dxn3759n0wmk3+cnZ1VyEzqoJ3KAlD0LbG3zfelfo0NjRGNFY0ZjR2NIY2lNYOpbeWteiitGgAAAAAAhM2NobBpW2ft3kwbNLX/b3R09DMmNPzZrmZOmkCx6iogWaIOTM7+PfVX/PmrGlMaWxpjGmsac4Fgavea2lbeQCiVai+UAgAAAAAQODdKgX2aW+zppk125anrla985f0GBgbeZE5J/XEmk/m7CQU3Kxw4CBh1FZiiPcWW+gNa1RjUWNSY1NjUGNVYtWO2yY7hLf7+0jKhlEAKAAAAAFDFsLkhvLIZCpvdn/3sZx+h000TicRvtPKUz+dnlBHcB6D638NJ/bVTv6Gksaoxq7GrMayxrDEdCqXhldINbkIpgRQAAAAACJzBsBmz++cabeti5/Of//x7DQ0NvfXmm2/+9dzc3HWFQmHOQcBxFDCi//n6r5/6NaY1tjXGNdY15jX27RxotHMiFgylBFIAAAAAOONwHjjLr242G7XF4/Hb/e1vf3ve+Pj41/WaDL3XsVQqFWvgNSSRfZ5Yd/VTf1FjX3NAc0FzQnNDc0RzpfwqqfNACgAANQ0AAKucawVOf+9mi7+6OTIy8u5kMvnXxcXFf+k9jVEFnlpdQaN+6pc0NzRHNFc0ZwKrpC3+XtI1Aymro+sAAAAAAAJngx843/CGNzzA7Hv74NTU1NnZbPZIqVTyoggYDk55jTqwUD/1e5pDmkuaU5pbgUDaQCAFAAAAgFrBZeCUNpRb4fzQhz70kL17935senr6Qr3gX62F1V+Bqq9TXqmf+h2pqDmmuaY5p7lXfoXUhlG3gdQCAAAAAFCdVc7N9mX72+y+tA61BV5zzTXvT6VSF+Tz+aSesyN+oI9+xY36qT+C+g0lzUHNRc1J27LbYefqNjt3N1dpdRQAAAAAykPorKCtNnhKbasORrnkkktecdNNN/0um82Ol0qlQo28BiOygFGD9VM/9UsFzVHNVc1Ze6hRa/CU3crbdQmjAAAAAAROt6EzeFJti1HXT37ykyfu37//23qXoed5S3q4rS8hhDR3NYc1lzWnNbc1x4Mn7DoPoxIAAAAABKC1Nnx4UFtnZ+cdBwcH35JKpc7N5/PTrlsa67/Fs/7rp37q19zWHO/v73+r5rzmfvgwI1p1XQEAAABAa23ctuE1GXW8//3vf/Do6OiXZmdn/+F5Xi6CQ2RqP7CcofVTP/VrzmvuywPkBXbvaFNg7yitugAAAAAVQ+gMttZ29/b2Pt/sD/t1Nps9oBM1I3iNRe0FAOqnfuovyhPkDfIIeUWwVZcwujYAAAAAhE57gNBVV131+qmpqfNWVlbStb6CE/3nUT/1U7+8Qp4h7/APMiKM1jEAAAAAVTxEqLW5ufn2AwMDb5+ZmbmkUCjM1d0KU/Sv4bCifuqnfnmIvESeIm+Rx1TtECOnAAAAAID7lU57iNA973nPO4+MjLw/nU5ftbq6usgKFvW7lKB+6pe3yGPkNfKcwCFG7ldGASAyAACAFtsNUri99v73v/9ddu3a9eFMJjOgA0Wi3HPm8tTR2j+FlPqpn/rlOfIeeZC8KNymG/AtWnQBAAAAqo/T0Bm3J1PuiMfj3X19fW89duzY5Z7nZaNuFUQIIXmRPEneJI+SV/mn6ToOowAAUAUAgNC5MfDKlBajrrPPPvulU1NT5xQKhVtq9SEUIYTkUfIqeZa8y3rYVutpGwmjAAAAAFVusa1gX2fMvhC+yajzF7/4xdMSicTv8/n8ZLR7yqJ/D2P91U/91E/98i55mLxMniZvsx4Xq2C/KC26AAAAAFXa19n2hje84QEHDx78Xi6XOxz9akZtPEDXf/3UT/3UL0+Tt8nj5HVV2i8KAAAAwGpnmRbbmN9iq/fsDQ0NvSuTyQyXSqUTPOCewfVTP/VT/wl5nTxP3ue36AZXRSVWRSsBAAAAWO0s/77OLUaNRh0/+9nPnppMJv+ysrKS4YGV+qmf+tdb/fI+eaC80LboNsoj/feLrqtVUQAAAACHq53+Kbatz3rWs+45Njb2laWlpXE9D0b7gBj9njTqp37qp35DSZ4ob5RHyivlmad/cBFBFAAAANjbuTl4oNDOnTtfMjMzo1enLJ/6oQwhhJA8Ul7Z09PzktDBRZvZKwoAAAD/C6udMf+dnY9+9KPvpv+jn81mD1X2EIYQQkjeKQ+VlwbeLRpb76uiAAAAQPDcbHSWv7fzV7/61bNSqdS5nuct8RCJEEL/n+Sl8lR5qzxWXms9dzNBFAAAAOoEB4cKBU6y7erqusOuXbs+afYxjWk/Ew+NCCHkVoaSPFZeK88Nn6DroD3XLQAAAACO22xbP/CBDzw0kUj8oVAozPGAiBBCt43kufJeebC82HF7LgAARA4Abbab7ImMDUbtagWbmZm5tFgsnuBhECGEopE8WF4sT5Y3W4+Oy7NpzwUAAID63d9pT7O94oor3jA3N3etaQUr8vCHEEK1IUNR3iyP9k/PZZ8oAAAA1Fvw3GLU3NTUdOv+zlwud6hYLJ6U9MBj/7wu5Nda6/VTP/VTP/XLq+XZ8m55uLycIAoAAAC1dLDQhlMcLLTjGc94xr0OHjz4g5WVlWMRPMA5+33uf77266d+6qd+6pd3y8Pl5fL08IFFEgcWVQwAAAA42t8ZM9pu1PbZz372UZOTk3/zPC9b3ysXCCGE5OXydHm7PN56fczJPtEKAQAAAIJn3H9/51/+8pfnp9PpvmKxWOChDSGEzizJ2+Xx8vrA+0TjBFEAAABYC5cHC3X19/e/Y+E/7N0FcBxnmofxI8saM2wiK7hoWGZmZihKLR0zLcMxLbt8OYZlRl+YmWOHQQ5nTEpKSixbVgSeGY99/da1qnzaOOPdVo8+jX5P1buoqPUU9Pt/u/v7vuHhG+KMuen6hKzcn0//kz3+/PnzT9U/48CePXtuiHt/9IBp3rAIAAB0CtO5sdCaNWuecPPNN//N+Pj4/TYpmZv+/Pnz5x89IHpB9IRp3bAoAAAABs/nPve5T77nnntOrtfrDwt4/Pnz588/KnpC9IboEQZRAACK4VPb/I1nX1/fFw83eAps/Pnz588/ekT0ikPeiPo0FwCAI8fg2dvbe+Ktt976mWw7/sHyA0zh359AgOTPnz9//tEzondEDzGIHh4AAOxqm28uVKlUjrvpppv+OgsRDxQPWOkFqvI3/eDPnz9//tFDopdET5ncrMiuuQAATOI4lQgHx95www2fmpiY2DEdwUYppZSKnhK9JXpM9BrHtwAA4BzPYzdv3vyR0dHRrflT7ahynsgn8M+3+H38+fPnz78E/7Gxsa3Ra6LnzM1zRAEAMHgec/nll/9RNnje04GbdiT4CRt//vz584+eE70nepBBFACAzhg+Ww6ecYj4yMjInSls0pFXqge98+fPnz//EvyjB0UvOvJB1BAKAEDKbz2nDp5Lo8mfe+65v5Y1/dvSDzSl/37+/Pnz55+Af/Sk6E35ILr08IOot6EAAKQ8eM7Lqjtv5r1nnHHGe4eHh29KKAClsmskf/78+fNPwD96VPSq6Fl57+qOXmYQBQAg/cFzflaLszr6v/7rv968e/fuTTO5rX9eyQSmdP358+fPn//Q0NCm6F3Rw/JeNt8gCgBAeRTdYGhhVivf+973PrO/v//HWTNvJLALY1KBiT9//vz5J+/fiB4WvSx6WvS24hsVAcB0AthgaEFWy1asWHF8X1/fFxqNxt6Ca3jSDCwlXI8/f/78+afpH70selr0tnyjogU2KgIAYObXeS7Jqvf888//rTjLc6Z3dXR913d913d915/OijNEo8fl60OXWB8KAMDMrPNclNXR//zP//y6bJ3nlQWfeCfwyVayP8+fP3/+/BPwj1538sknvzZfH7rI+lAAAMpd5znv0HWe73rXu566Y8eO72VNueZcPP78+fPnP0f8a9H7ogdOWR86z/pQAABKWOdZqVSOveWWW/6hVqvtLhQwigeWFpXGuXj8+fPnz7/z/KMHRi+Mnmh9KAAA5azzXHXmmWf+6ujo6D1FAkmn7PLInz9//vz5R0+M3hg90vpQAACmaZ3n5z73uVc8/PDDlx48ePBAgYae2Jqh4oGGP3/+/Pnzj94YPTJ65bStD51jAAB8brswqxWve93rVm/duvWbWYPd17qhlxlYiq9RKvOgdv78+fPnzz96ZfTM6J3RQ1ufH+ptKADAW89KVkuzOuaGG274y3q9/nCBAJFEtTNA8efPnz9//tE7o4dGL817asXbUACAt57/f/Dsmvzc9stf/vJbRkZG+hLYVGJG1ywV8efPnz9//vyjl0ZPPeSz3K7Wg6i3oQCAzt5kqCt/MrtszZo1T6hWq1+OLeYTWJNT/ida5fvw58+fP3/+teit0WOj1+Y9t2uublIEALDJ0OKsejZu3PjesbGxbZ1/0Hn7z73jz58/f/78x8fHt0WvjZ4bvXeubFIEALDJ0LxDzvRc8cY3vnHtgw8++JOsOTaLN+iUd0lsXSX78+fPnz9//s3oudF7owcfcnbovJQ3KQIAoOiZnouzWnXZZZf94cTExEOJbkqR4O8r7s+fP3/+/Pnv27fvoejB+dmhi4ufHQoAQJqbDC3MauUf/MEfPG9wcPCi4g01jSfgxTe14M+fP3/+/Nvvn50delH05OjN0aM7aZMiAICjVZblR6v8VaPR2HuYhtiiUgooBQMGf/78+fPnn4B/vV7fG705P7JlWScc2QIA8NbzqPXr1796z54915f/CVP7A0mhv5c/f/78+fNPwD96dPTq6Nnehs5aAMBbz0qlcvxdd911cqPRmEh104i8yv/kij9//vz580/Yf//+/RPRs6N3exs6WwAAbz3n54ddH/2tb33rXY888sjd5X+yVLzhtzMg8OfPnz9//in7R++OHh69PO/p870NTRUA8NZz+dOf/vQnbdu27dtZE2u0aIAtqgMODp+d/vz58+fPn38jenn09Ojt3oamCAB469lz1lln/drY2Fh/8U0TUvjEqUCA4M+fP3/+/DvAf3x8vD96e/R4b0OTAQCs9Vy9evUTq9Xqd5sZrRpcSf9/MoGEP3/+/Pnz7zD/ZvY29LvR660NBQAUotBbz3yH23/913990+jo6D2p7CrY7jU7k8WfP3/+/Pl3sn/0+uj5kzvlFnwbCgA4Yrz17M5qaVbH3nrrrZ+NXfOms8EVWhOTwKYP/Pnz58+ff6f6x6720fsjA+RZoNvb0LIAAG89oxZktfJ3f/d3n7t79+6rCjXADthUYi768+fPnz9//pEBIgtEJsizwTxvQ6cbALDR0OKsVl1wwQW/V6/Xh0p5QpvAE+viP8+fP3/+/Pl3vn+tVhuKTBDZIDKCDYp+TgDAW8+ofPCccrzK9u3bf3Tw4MFmAueyzfCug/z58+fPnz//jGZkg6nHteSVD6HehgLAXKPo8SpHffWrX33b6OhotUBDTXKNTvHr8+fPnz9//vzHxsaqkRUiMxQ+rgUAMKc2Gpo3daOhLVu2fCnbaGhfKg0yr0R2QeTPnz9//vz557UvMsPUDYqibFB0eADAW898o6EPfehDL8g2GdjUpoZddJOHBJ5o8+fPnz9//vyHhoY2RYaY3KDI29DDAQCGz+58E4HeSy+99I9rtdqeTniC3N4nzPz58+fPnz//yBCRJSJT5Nmi2xAKAD65/amNhp773Oc+eefOnadkmwocaN2c0muICZzTxp8/f/78+fOPynjggQdOiWzxUxsU+SQXAGw09J3vfOfdY2Nj21P6ZCiBT6L48+fPnz9//gX8I1tExrBBUQAAPrldkm80tD5rFLUCT0QTOBetzJ/nz58/f/78+Rfwr0XWyDcoWuKT3LkJAJ/cLnvhC1+4enBw8MKUGnTCB43z58+fP3/+/Av4DwwMXBjZIzKIT3LnBgC89ezKamFWj9uwYcPr4mzP1LZ5L/AEuVCV78+fP3/+/Pnzj+wRGSSySJ5JurwN7VwAWO+5OKtVsTNdo9F4JKFNGZJYM1O+P3/+/Pnz58+/Xq8/ku+SuyqyiXWhAJAoBT657c4PhT6uWq1+pRm0/5ywIlVmg2y/P3/+/Pnz58+/GZkkskmeUboLfJILAEjok9sFWa046aSTnhWHQxdoWOls0lCggabjz58/f/78+fOPbBIZJbJKZBaf5M5uAPjkdmFWR3/rW9961/j4+INlNJBWlVIDTM+fP3/+/Pnz5x8ZJbJKZJbILj7JnT0AMHzOm7Les3fz5s1/sX///okWDaCEc87SemKbrD9//vz58+fPP2oiMktklynrQqMMoYkCwHrPrnwNxbLe3t4Tt2/fvrGEp5op7NpXoGGn6s+fP3/+/Pnzj+wSGSayTJ5puqwLTRsA1nuu/PjHP/6SkZGRvqKbChRoeEmuiUnfnz9//vz58+cfGSayTGQa60LTBYD1nouy6jn99NM/UKvVhkp4otoRa2rS9+fPnz9//vz5R5aJTBPZJjKOdaHpAMB6z+6slmR17JYtW9Y3m816O7eFT7Ehd4Q/f/78+fPnz78e2SYyTp51uq0LTQAA1ns+//nPXzMwMHBhCQ2jvJ9PoIGm78+fP3/+/PnzHxwcvDCyjnWhADANFFzv+bj169e/dnR0tFpCA2t/gyzQQDvXnz9//vz58+cfWScyT2SfgutCAeBnxmZD+fmeGzdufG+9Xt+T3/BTrlIbYuf78+fPnz9//vwj80T2mTwv1OZEANqD8z0XZbXqmmuu+Xh2vue+1M4Nc33Xd33Xd33Xd33XL+v6kX0iA0UWikzkvNByAWD4XJzVsXfeeee/NIPEn5i6vuu7vuu7vuu7vuuXcP1mZKF8c6LFhlAAmN7hsyurSlbLMk7cuXPnqQluKtDWBsWfP3/+/Pnz5x+ZKLJRZKQ8K3UZQgEUx2ZDlayWv/71r183NDS0qaM2OShwff78+fPnz58//127dm2KjBRZKauKzYkAFMdOtys/9alPvXRkZOS+pBpWAg2WP3/+/Pnz588/MlJkpchMdsgFgGI73R719a9//V0TExMPaYD8+fPnz58/f/6PXpGVIjNFdiq4Qy6AuYudbs8777zfbzQaoyk1sBQ/OeLPnz9//vz584/MFNnJDrlHDgCbDc3PaklWx9x8882faTabjWTOEUv/CSt//vz58+fPn38jMlRkqTxTzbc50aMDwPDZndXSrI6rVqvfTvMJZ/rFnz9//vz58+cfWSoyVZ6tug2hAObu8Hn4nW6XPe1pT3vy4ODgxRpaseLPnz9//vz5849MFdnqMMe0RBlC5yyAnW5X/Oqv/upzhoeHb0//E5tyiz9//vz58+fPf7r8I1tFxoqsZYdcAP+H4fNxGzZseN3Y2Fi/J5zTW/z58+fPnz9//pGxImtF5jKEznkAx6yccsop76/X68Pl3HSVUkoppVRkrchcjmkBMJeGz3lThs+e2Cp8//79E7Z958+fP3/+/PnzL/fvi8yVH9PSM2UIjTKEAui44bMravKMzyuuuOLDzWaz1rabuVJKKaWUqkUGO+Ss0K4oQyiApClwxufirHo3bdr0Z9lTvIY1I/z58+fPnz9//m2vRmSxyGR5NptvCAXQacNn9+TwedNNN/1DM9DQZsqfP3/+/Pnz58+/GZnskCG02xAKoNOGz2P6+vo2ZDfH5szetJVSSimlVGSyyGaR0QyhAFLjFwsMn0uyOvaee+75z7RuvEoppZRSKjJaZLXIbAWG0CgAaOvw+SuHGT6Pq1ar307zpquUUkoppSKrRWY7zBAaNTuGUACGz+3bt29ssSX45L9HHfq/dUyl7s+fP3/+/Pnz5x+ZbbYOoQAMn0srlcoJ/f39Z8+ORqCUUkoppSK7RYaLLGcIBZDS8PnLjzV89vT0PGFgYOASTyz58+fPnz9//vxnV0WGiyzXYgiNmvEhFIDhc9m6deuesmvXrms0kNnpz58/f/78+fPnH1kuMl1kO0MogBSHz0pWy175yleu2717942z+yatlFJKKaUi00W2y4fQiiEUQErD54q3vvWtz9i7d29fuU8c03+i2Sn+/Pnz58+fP3/+w8PDt0fGi6xnCAWQzPD5q7/6q88ZGRm5J4EbagINqXP8+fPnz58/f/78I+NF1jOEAkhi+PzQhz70orGxsa1p3vDLbwDpNzz+/Pnz58+fP/9i/pH1IvPN+BAKwJvPuCF19hoIpZRSSikVmc+bUACFKDB8Lo/1APFJRqKflCTw+zvLnz9//vz58+fPP7JfviZ0eYEhFMBcpMBRK8tjR7TYcMgmAPz58+fPnz9//nPLPzJgZMF8CO02hLYGQMFzPmNbbpsM8OfPnz9//vz5z03/yIKFzwltBQDDZ09PzxPiYOICN8RUNgFwfdd3fdd3fdd3fdd3/QLXj0wY2bCMIRSA4XNppVI5YWBg4JIO2tWtQPHnz58/f/78+fOPbBgZMbKiIRTAtA2fWR3f399/znTf0BL4fQV+nj9//vz58+fPn39kxMiKhlAArYfPvFoNn9u2bfufqTecDlrkX+D6/Pnz58+fP3/+/CMrHsEQ+kuGUOCxMHwuyeq4arX67bixJHADT3SRP3/+/Pnz58+fP//IjJEdI0MaQn8WAMPn/PzGcexdd931X+3/RGU2Ngj+/Pnz58+fP3/+d955539Fhsyz5HxDKHCkGD6Pue222/4xpRts+r+PP3/+/Pnz58+ff2TIyJKGUOBIMHwuyuqYG2+88TMHDhxodtINtfwGwp8/f/78+fPnzz8y5PXXX/+ZfAhdZAgFHgvDZ++11177582MuClNrU5YE5FXy+vz58+fP3/+/H9uf/78m5EpI1saQgHDZ9SjDZ+rLrvsso80m81GVmXf8JLeha6wP3/+/Pnz58+fP/9GZMvImIcZQn/ZEArMzeFzYVY955xzzh9kN4pa+8/NKn4DL3LDzmv6ffjz58+fP3/+/PnXImNG1ozMaQgNAMPn0aeccsr7sxvERLk32PRrev358+fPnz9//vz5R8aMrBmZ0xAKzO3hc0FWKzds2PC6er0+XPyGU+oNrPjf0+L/58+fP3/+/PmX48+ff2TNyJyRPSODduAQChhAWwyflayWf+ADH3ju6Ohof4EbUOmfhORV/AY6Y5/U8OfPnz9//vz584/MGdkzMmhWlRZDaIcNoIDhc9natWtXDw8P357+Ivjy/77yfz9//vz58+fPnz//yJ6RQSOLdvYQChg+oyaHz6VZnTAwMHBJ+Z9opP3Err3+/Pnz58+fP3/+/LMMenFk0cikhwyh8zprCAUMn11ZdWe1JKtjq9XqtwvccNq67XheSTQI/vyL+/Pnz58/f/78I4tGJs2zaXdkVUPo7AY2HfqVqCnD5+Ksem+88cbPxA0hyXOxErgef/78y/fnz58/f/78r7/++s9ENo2MOmUI/ZUomxIBs3f4nJ/VosmzPpvNZqOdT9zySmpXuRn358+fP3/+/Pnz59845IzQyKrzDaFTwCzGWZ9HffnLX35PrVYbm6Y1B2164tb+g5P58+fPnz9//vz5t8e/Xq+PRUaNrJrYGaEAipz1+YlPfOJlExMTD7V9V7c2XG+6nuC1358/f/78+fPnz5//+Pj4Q5FVC54Riv9l7yyA47iyNVwQcpiZmWmZwc/LzMzMzORaDDMzGR4YA4agQea1IzBbaHsSyRANSD3do72vf5dcpZ2KA72j6T5X36n6Q4olfX1un/qPdO69REaC61YOHj169Nm9vb3r6/UTrp3/nNWPww8//PDDDz/88MOfLX55VXlWeVeuZ7EbBM3nAXGc1NPTs7DmP9Gq/6lvdf4Jo31++OHviwbc6kLkZveU3W0dfe73a0ru+y1F99XGgvvMioL70LK8G7M4796woHeH9M/6b/rY15qK+n93/JnbO/v1OXZ8rlL471+P/MNfCgO3+rnNbsamRnfzuifcr1f8j/vW4nvcFxbc5j4693r37ievdG9+9O/uFTPG7pD+Wf9NH/t8w636f3f8mZvWPq7Poc+lz0n+RyA//PDLs8q7ysPShBKEreZz53Urx3V1dU2u/6b3bP1EbiTwww9/FGtVPnL3bwzcj1cW3QeW5t1rGnrdq+c/V1Ppc+pz62voa+lrVsj/iOJXg3hf63z3/aX3u3c9cYW74JE/uPMf/n1Npc+pz62vce+Gefqa5H+E8MMPv7yrPOzO61loQgkimyfe7j6oPYdct3JMS0vLdbUYoXhxWfyJnX1++OHv6qu4iZsD94tVRf32Ug1iKtLX1vcwYVO/vify7xn/puI2N6F9ofvpPye4tzz6DzWIqUhfW9/DxI5FbnNpO/n3mB9++Jubm6+Tlx1yPcueO/0uJ+NmLwju+tw31pFz5sz5xYCifvdCGdgzYZ8ffvjz4YCbnAvcN5uKtf8NZ41+Q6rvTd9jb5n8W+Uvhv1uatc/3dcW3ln733DW6Dek+t6mdC7T90r+/eOHH/4BeVl5Wnlb7gjNbhCceKsX9PAJEyZ8Nn6Bg6QFKXnBSFKQ0h8xscAPP/xzt5bdr1eX3JsWDDadBqTvVd/zvG0h+TfC39C9Tvsx3Wtm/lmNngm9dtaf9T27BT3ryb9H/PDDH0VRIE8rbyuPO5wn4xIEkfyuz0MuueSS0UEQPJd4hCN5gTHzE0X44bfCH8V66NnAfWp5QQ2daYnh4e6ymMh/xvgrAxU3a3Oz+8S8G9XQmdbH594gFhdVIvLvAT/88JfL5efkbeVx5XWz1YQSBCfeHvSKV7zizHw+3+rbsd3JCyb88NvkD6KKm/xM2X14WV7Nm1cS06Rc4MoV8p82fxQ3ntO6lrsPzblWzZtXEtP0jStcWInIP/zwG+cvFout8rjyupyMSxDZOfH2gFjH53K5R4d5U3kKm9oTFDDD/PDDPzUXuPcvHWw8/ZUYxUr+U+J/ZFOje+9TV6lZ81pinLG5ifwb54cffnlceV15Xk7GJYj0T7zdN9bRjY2NV6Yzs2/g4mMD/PDDv6YQua83FdWcjSSJWeys/zrxtxV63DcW3a3mbERJzK35buqfYX744ZfXleeV9+VkXIKoTSQ58Vaz8EdMmjTpi/GLGSYoEAbuhUpQIA3xww9/IRpwV7X2udcnPtHWvsSuZ1CIWP/Dxd8XBu6GtY+5V84cq4ZsJErsegZ6FtQ/m/zwwx/K88r7ygMnOhn3PwqC4NChvWMd8qMf/egN/f39WxMUiOEe6UhhJMQWP/zw62Tb9y4ZHLdFehZ6Jqz/GvMv2dI6ZNwW6VnomVD/7PHDD788r7yvPLC8MIcSEUT99n3qhTvwiCOOOHn79u3NdSoQCQpcCnsODPDDD3851rVtfc9zjyfSM9GzCVn/NeG/dd0T7qJH/ljVhCE9Ez0b6p89fvjhl/eVB5YXlidmPyhB1OfQof1jHdvZ2fl/CQpA6qe21XxkwxA//PDn+ivuq40vstcT6RnpWbH+E/Jv6c+7by++50UaMaRntDUoUP+M8cMPvzywvLA88fAcSkQQHDq0R9WhQ0c1NDT8oQYjFwkKRO2VtKBa44cf/jlbym7M4pc4cov0rPTMWP8vk3/pljY35vHLXloThvSs9Myof8b44YdfXlieuOpQoj04lIggan/o0GG33XbbR8IwDNI6FjthAUtxZCR9fvjhH7exP9nILSO5enYvMZ+sf93refGMP728JgzpmenZUf8M8cMPv7ywPLG88fAdSkQQHDp08Ec/+tGLSqVSzo97n5JvgrfEDz/8N7T3/2eNGNIzfJH8s/7vbZ3vLnjkD8maMKRnp2dI/TPEDz/88sTyxvLIHEpEELXd9zlqcKP1iT09PYuGs2ClX1BeXFb44Yc/ivXndaUaNWFIzzJ63vyw/q9ePas2jRjSs6T+GeKHH355Y3nkQa88iv2gBFG7Q4eOWbt27V2Z2mSewrHiVvjhh78vqrifrqz1YUNIz7S/wvrX36WwErk/Nk6mcayt9Ez1bKl/Rvjhh3/NmjV3yStzKBFBVEfyQ4eOePTRR38woKhvAUqgtO+hSp8ffvjDCs3ncDehIevfSX9onETDODzSs6X+2eGHH/4BeWV55uSHEikUBMGhQ4decsklY8IwLNT4hTVwrHfVx23www9/ncZuGccd6ev/mtWzaRSHV3rG1D8j/PDDL68szyzvzKFEBJFs9HbvWAddfPHFZ+Xz+dY0Z+4HlepFyFb44Yf/+rodOIT0rEfq+r+/tYEGsT7Ss6b+GeGHH/5isdgq7ywPLS/NKC7x8oJ9nwfEOiGXyz1qrIDVviAa4Ycf/nEbaT7rrfGbghG3/h/Z1OgufOSPNId1kp71jM1N1D8j/PDDL+8sDy0vzX5QYkRGwuZzv1hHrVix4sraj0Qk33SeRoGywg8//HO2htzzmYL0zOdsKY+Y9b98a7t7xYyxNIb1lZ65nj31zwg//PDLQ8tLy1MnbEIJYkTs+9xzyL7Pw+64446Pxi9ROckL7JMs8MMP/+a+yI1ZnKchTEd69sqB92t/e1B073ziChrCdKRnrxxQ/2zwww9/WV5annrIftA92Q9K7CLY93n++eefUSqVOlI/1rpKBr4fc/z2+eEvx/rK0wUawZSlHJQ9X/8/WPoAjWC6Ug6ofzb44Ydf+0E75KnZD0rsOmg+Rw3eXXRcZ2fnlOQvpP2Zf33MCj/88F/b1kcDmA0pF96u//ta59MAZkPKBfXPCD/88MtTy1sPeuxRNKHEroP7Pv+llyaFGfrMnHJmgR9++OduLbPvM0NSLuZtC71b/03bu9j3mR0pF8oJ9d8AP/zw/ysO7gclnj/Y97l3rEO+/e1vvzYIgu3sKYAf/uzz58OKe+8S9n1mTcpJPvRn/QdR6D4051oav2xJOVFuqP/ww29A8tby2PLa8tzsByVG+ujtXoPjAAfGOqGnp2dR7X/CZWtkwwo//PBf1ZrR0Vuk3Hiz/u9Y/xQNXzal3FD/jfDDD788trz2oOceJQ/uxSguQSTc97lfrKOXL19+Ze1HHlIsYAlkhR9++NcUIvf6rI7eIuVGOTK//jeXtrvXzvozzV5GpdxsKm6j/hvhhx/+watZjpb3TrQf1HIQ7PusvnLlxhtv/EAURYEvIxu+j3TAD//XGjN+6i1Sjsyv/58sG0+jl20pR9R/I/zwwy+vLc9dfTUL+0EJL0dvd7Hvc1Ssg86Io1gstqa/yTvdgmaFH374p+YCGjwbUq7Mrv95z66lwbMh5Yr6b4Qffvjz+XyrvLc8uLz4rveD+jmKS3DlygGxjm1vb/+fTM3sp1BwrPDDD38QVdz7l1o5eAgpV0Fkc/1/ZM51NhowpFxR/w3xww+/vLc8uLw4V7MQvu/7rL5y5cjp06d/dyCOrL/gw71nwAo//PBPfqZsrAlDk3KBufX/WK7FVhOGlDPqvxF++OGX95YHlxevvpqF/aCEz/s+D/nCF77w6v7+/q2MWNjghx/+MNaHl1n77SdSzkJj6/8z82+21YAh5Yz6b4gffvjlweXF5clHzH5QgitXuru7G9J94dMvEJb44Yf/oWet7v1ED3eXzaz/hu51RpswtKBnPfXfED/88MuLj5irWQiuXFmyZMklXIRsix9++D+13OjJt0i5M7P+v7LwDpsNGFLuqP/G+OGHX56cq1kI769cueyyy94bhmG/zwXCt4IKP/xztxrf+4mUw8yv/8ZtnbabMKQcUv8N8cMPvzy5vDlXsxDeXrly8sknn97b27su3Zn59AuENX744f/16pLtBgwph5lf/39pnma7AUPKIfXfGD/88Muby6NzNYtvwejt/rGO3bBhwzgtdjtCCPWWK+5NC3ptN2BIOVQuM7vOgqjs3vTo3403YEg5VC5t1TmEkDy6vLo8O6O4PgSjt/vGOnzSpElfiRf4AHsAbPHDD//knCeHDyHlMrPr/7FnVnrShKFHcy3Uf3v88MM/IK8uzy7vziiu5WD0du9YB5133nlnFovFjRQQe4If/m80enL4EFIuM7v+f7xsnB8NGFIuqf/wGxT88ury7IOjuHszimstGL3da+jo7bp16x6owwtvoCDY4ocf/s5S5F7T4Mn4LVIuldPMrentQdG9YsZYPxowpFwqp9R/g/zwwy/PXjWKuxejuFaC0dtRO0+9vfXWWz8aL+jI3ouOEJqwqd+vJgwpp5lbZ9O6lnvWhCHl1GTdQwhF8u5DTsUdxShuloPR2z2qRm8P3GuvvU6KT9ZawwiGTcEP/y9WFf1qwJBymrn1//unJ/nVgCHllPpvVPDDL+8uDy8vXzWKuwejuFkPRm+PaWxsvN7my4cQimKNWZz3rAFDymmUsbX27iev9KwBQ8qp3fqHEJKHl5dnFJewcuXKPrEO/fOf//xfutzW5ouHEFqVj/xswpBym5l11lnY4mkThpRbm/UPISQPLy9fPYpLE5rZYPQ21gk9PT3L7L54CKH7ujzd/4mU28yss//rWOppA4aUW7s1ECEkLy9Pzyhu1oPR2/1iHbVw4cKxtl86hNCPV3q6/xMpt5lZZ79e8T+eNmBIubVdBxFC8vTy9vL4jOJmNTj19tCvfOUrrwuCIO/VXrgo2vl3aeh/81bww/+BpZ7u/0TKbWbW/wfnXOtnA4aUW+q/ccEPvzy9vL08PqfiEsMdL2X0dveq0dsDYp2Qy+WeoADY5ocf/lJY8fj+T6TclsL013Y5Ct0rZvzJ0wYMKbdhJaL+G+eHH355+8FR3AOqRnF3f4mjuMSwBaO3R86YMeNH9l94hNDqgu8HECHlOO111prv9rwJQ8qx/ZqIEJLHl9dnFDdLwejtIaNHjz6/r6+v2/5LhhCa2R143oChWd1B6uvsyWdWed6AIeXYfk1ECMnjy+vL8zOKm4Vg9Hb/WMe1tbVN9m1kIhmPfX744b+1o8/zBgwpx2mv/7s3zPW7AUPKMfXfE3744ZfXl+eX92cUN81g9HbfWEeMGzfui/ECHUjhhU/w51MoEMb44Yf/92tKnjdgSDlOe/2PbZridwOGlGPqvz/88MM/IM8v768egFHcegWjt9V3fh580kknnVEoFDr8GTNACH2/2fcrWJBynPY6+86Sez1vwJBy7E9tRAjJ88v7qweovhuUUdzhCn77WT16e+zq1avv5JQzv/jhh/8rTxc8b8CQcpz22v/igtv9bsCQckz994wffvjl/dUDVI/i8lvQ4QpGb/ccMnp7+NVXX/2BKIrCXbxAKczQp1MQfOOHH/5PL/f9DlCkHKe9/j8x7wa/GzCkHFP/PeOHH355f/UA6gWGjOLuyShu8qABfWmjtwfFOnHbtm0tdXkpkr/wVUrhhTbIDz/8H1rmewOKlOO01/L7nrra7wYMKcfUfw/54YdfPYB6AfUEux7FpQGtbXDn51ENDQ1jOeXMT3744R+z2PcGFCnHaa//tz12id8NGFKOqf//z95ZwMZuBGG43FCZmZmZBWUGUZmZmZmZK6q4zO1jZmZmZk7iS3zB69UjOVJkXetLL+t53v0s/WV4nzI70u9/PWMpP/zwixcQT8BuUB6zOz/DwUNnnnnm0dlsdr3hA5yCBmAnP/zwnzXKs9yAIfkZa9f/aX3etNuAIfkZ0/8t5Ycfft/314snaDeQiN2gPEZ2fm4XaJ85c+Z8q3agHbiiAT/82vwYUCekXv8YNDdE/4cffnv5xROEu0G3M7UblIedn7u88sorFzQ3NzfGF7j+HiaVBgE//BbwO3EFF6nXvxMGDNH/LeaHH37xBC+88MJ54hHYDcpjYvDQ9oH2W7Vq1ZDiD6SdB9oGfvjhZwgRSqD+SUAR/d9yfvjhX7ly5RDxCOIVGEjU2Q/p526//PLLnblc7m/dA6v/Bgt++G3nv2Eye0AdkHr9Y87cEP0ffvjt5hdvIB5BvEIkBWU3aPjwdHzwUGWgHcrKyg6sqamZr3BgFA64ZsPQ54cf/rum1WPQHFAC9UQCiuj/DvDDD39tbe188QrhWpbKDg8kijw8DB7aNtCeo0ePfvf/Fmwo01cMjP/zrvDDD//DMxwwoEiz/t0xoIj+7wg//PCLVxDPIN6BgUQ8pVy9rQy00/nnn39CNputKfGAaN+JN/D/s5MffvhfnuM7YMBQAvVGAoro/47www+/eAXxDOIdAlUykIino4OHytuvXZk/f/5PKf2I24Ds54cf/q+XZDFoXMHtDGFAEf3fIX744RfPEFnLUs5AomIf0s+KtrUrb7/99iVBMTcVUeAKe5YUPsp2gB9++PuubXTAgKEE6p8ruIj+7xY//PA3iXdot5alghS02If0szIcpbz/mjVrRqXkyoPxhuIKP/zwz65rccCAoSTqlSm4iP4PP/xu8Yt3EA8hXiJuIBEGlPSz/eChbQLt3qVLl/v0p3DpXzmAH37X+P3m1vxpIz1Mmt1Sr3/MmRui/8MPv3v84iHES4SeooK1LKxdCfWfg4d23HbbbQ/2PG+x+QOg/wYp/ooE/PC7x3/l+AwmzW4lUv98A4ro//DD7x6/eAjxEuIpCg4kYi0LV28LrF3Za/z48R9trFcU1D/qhh9+B/gfn2n5KhakXv+YMzdE/4cffjf5xUuIp4isZeEqbsGHtSs7X3nllSc3NTV5ht+YmCl4Ax+Bww+/i/zfLbd8EBFKpP4xoIj+Dz/8bvI3NjZ64inEW7CWJe5h7cq+ixYt+kMKyoE77gYagB388MM/K8MgIqbgcgUXlS76P/zwu8svnkK8BWtZ/u1h8FBVoF0//PDDq4KCaSn9jUu8zN9hL/1Aww+/s/y5XP6CsRZ/B4rU6x9z5obo//DD7zR/i3gL8RjiNRhIFH1Yu7JDoP3Xrl07Vntvkem9S/EHBn744Zd/5plZFn8HihKpfxJQRP+HH363+cVbhGtZdmAtS/Rh7cpuP/zww62dXuAG/n4ygh9++H9eafF3oEi9/jFnboj+Dz/88IvHEK/BWhbSz7JI+nnAunXrJivcid9IF+/CDz/8S/2WkvaBIqbgkoAi+j/88MMvHkO8RiQFLXMjBcV8irYqkH7u/ttvv91degRvJuI3fce+sOCHH3755+6dxjVcW5VE/fMNKKL/ww8//CLxGuI5CqSgW4lHscOEYkA360j6WV1dPd34gdJf7NtBwQ8//H+u4hqurUqi/klAEf0ffvjhF4nX6GAKKsKAWrd2JUw/u3Tp8pDCHiK1/17xPPDDD3+mOZc/ZxTXcG1UkvXPHlASUPo//PDDL56jLQW1dy0L6efmRaSfB1ZXV882ODY6Rvp34iOCH374I7zPz/YtNGAoifonAUX0f/jhh79NtbW1s8V7xKegIlJQW9PPPfv27ftETAGpjo3WP7Dwww//8OpmCw0YSrr+mYKLAaX/ww8//L169XpcPIhbKSjpZ0X4xmGnQAd5njff0BWAVCzijf/78MMPfy6Xy183qc4yA4YSqDeGECH6f3vBDz/8koLOFw8SepFK8SakoPann5WBtg2054ABA54zWHAGCl7jwMEPP/zy5z3WWDaMCKnUPwkoe0Dp//DDD794EPEioSepJAW1MP2MrF2pCrTT1ltvfbDneYtNXBEwtEhX6SNr+OGHX/68OdA1EzL2GDCkXv+YMzdE/4cffvijEg8iXiRMQasia1lIQW1NP4cOHfqKkTcc+nuMDLyxgR9++EV/2LSSBanXP+bMCdH/4Ycf/oIaPHjwK46loKSfdXV1y1UiegMHyvxH2fDDD798B9rUmstfMZ4U1BKp1z/mzAnR/+GHH/7Ca94ymeVupKCkn9sF2mvUqFFvdsIbDIW9RZoHGn744ZffdyEFtUWq9Y8BZQ8o/R9++OEXTyLeRDwKKajF6efOO+98mO/7q1K46FZ5cTD88MMvKaj8/u5p9RYYMKRZ/xhQElD6P/zwwy+eRLwJKajl6eeYMWPeNx3pa8vcHXb44YdfTOicupb8mSM9TFy6pV7/mDPWsND/4YcffvEmpKD2pp8777fffkf4vr+2yIJRWJSrfkUAfvjhj1FbCvrpwiwmLt1Sr3/MGQko/R9++OGvr69fKx5FvAopqIXp57hx4z41UeC27SmCH37449eyZJpb85eNS/FAIqRe/5gzEXtA6f/www+/eBRSUAvTzyOOOOJo3/c3GChohQOpfaDhhx9+0bANTfnTuIqbVqnXP+ZMxBAi+j/88MMvHkW8CiloutPPsmj6OXny5K9MTckKZc2dePjhhz+eX67iir5YxFXctCqB+ucbUET/L0rwww+/eJUCKWgZKWhKJ9+G336u19xTZOCOvPKeJvjhh1/+elOgO6bUYejSJ/X6x5y5Ifo//PDDXwx/NptdL54l/RNx+fZz20B7Dh8+/G0DBasS0ev/8/DDD390NcvKbEv+grEZTB1rWEhAUVT0/6IFP/zwi2cR7yIeJr3fgpJ+7hjoIM/zFpdQIOoHyOTfhx9++EvnFQ1dz/egaZN2/WPO3BD9v1h++OGHXzyLeBfxMOlNQUk/9+jSpctDRhfLpmBsNPzww2+Wv+3v/bC8AWOXImnXP+bMDXWkfuj/8MMPf7du3R4SD5POFJT0c4dAB6xbt25SfAGbPwD6b5Tgh982/n/Yew8oOao7b/v4W0tkCSEBIufgBJicvQG8TmvCJtZg0nqBtQHneAwmvLuYJTiAk0wWWQaBCZJASCQFNCOhOJKQkGY0SSMmd/d094zw/ep3TmvfOv32qGaq+/atqn50znPEgWG6n/rfuv3/dVXdGx1//wfMbxoJoTGhKuOfW3CB+R9//PEfDcouyjDKMlwFjd/Vz73vvffef/EGzl8ies+5gxPGlg/++OPv59Z1GQJe9HE+/glnxbAPKPM//vjjr+yiDONlmcnxuwrK1c+DmpubX3OwLHPgAHO/Chj++ONvw18LEunvIe/v7zakox3AwPn4r40ABsz/+OOP/2h/vqWl5TVlGUdXQfkT4urnbh57XXvttX89ODg4FGLAuSLutxTgjz/+vtcZGNoa8RAKVRi/3IILzP+jBn/88VeGUZZRplG2CXEVlD9Vvvq5u8eB69ate8rBKlqRGvAO/PHHH3/f1dAhj+jejgtVGP+sggvM//jjj38olGWUaZRton8VlKufe5555pkn5HK5dHBxk/1QNf744+/Wcxv3RnFhInA9/mskgAHzP/744x/GJ5/Pp5VplG24Cup68aHgq5/7L168+DcqnMt7zHl9Xp/X5/V1FbTwt7ZoidY+oeBg/NVgAAXm39Cvz+vz+ry+Mo2yTcBVUMeLEXH1c9Juu+12VDqd7nBwz3mkcO+PP/74Fy848GZn3py7qJ/wFwjbsADPgDL/448//so0yjbKONG5CsrWK/6rn+M99pszZ86NrgeU+2Wn8ccf/yj5b7sSKtqzW82Vy1IEQPdUo/5cAQXm/7L88ccff2UbZRxlHf9VULdbsnD1U0XYzWOix2Hd3d3r+AYIf/zxd+cffDU07/HrjQPckssVUEg+zH9lgT/++CvbKOMUss5uyj5cBXV/9XOXwjcC+zz99NNXub0H3P03RNH1xx9//IufC327e9B8sY5bch1RlfqzCBEw/+GPP/7lvj9lHGWdQubZhaug1d96pfjq564ee3gcsnnz5nf4xgR//PGP+qp+fvoHt5pfbBgwp3M1tNpUo/5cAQXmv7LBH3/8lXGUdQqZZ9fiq6DV2ZKF22939C0+NM5j8h133HHeh94f+99Q2Cfq39Dgjz/+5TsWszY1ZL62nGdDuQUXEgbzX7mvjz/++OvvD5V1lHmUfXyLEe3IbbiWwmfA1isTPA5ubGycUX6Bk/8NEP744+/SPziIPt+eM/9Qz225VaAa9SeAAvNfRcAff/yVdZR5lH0CtmSxHEK5+rmbx16XXnrpmYODg3ku4ccN/PHH3/dMqCgsUvShedYLohcsthhEoRr1JYAC819F/PHHH39lHWUeZR9lIK6C2lp8KPjq5+4eB65Zs2YqJwT++OPvwN/qbbmDHi915MxF73JrLrfggntYBdct+OOPvzKPso8yUNBVUBYjqvDWK76rn5MmTpz4sUwm08MJFHd//PHHX+9zON7qypsfr8mYsxbU4mJFXAEFAijzP/7446/Mo+yjDOS/CsqWLPa2Xim++jneY19tzmp/wEZ7I9wE+eOPP/4BQbQvv9VMb8+Zq5anytxHFFzXn3BWGzD/4Y8//pX097LPDV4G2k9ZqPgqqP0tWbj6uYfHoZ2dnSv4xieB/vjjj788tsumzJB5qi1nfrA6bc5dxPOiXAGNIMD8V1Hwxx9/ZR9lIGUhu1dBufo5tsTVz8m33377+d5A+0tAoQAAEh1ExZDH6v4hM7U5a77dkDZfru/nCikBNGEQQAEAlH2UgZSFSlwFHctV0MpsveK/+unfeuWg9evXP8c3LDXijz/++Ot1R0VmcKtZkxoys7bkzJSmAXPD2oy5bmXaXLksZf7t3X5z/uJ+oyunZ9Tmc6XVqD8BFJj/Kg7++OOvDKQs5N+SxX8VlC1ZLG298slPfvKYXC6X4psQAOCqKIQglldAgQAKAKAMpCxUvS1Z2HplvMf+8+bN+zkDEACAMEoABQIoANQaykLKRMpGbMlif/GhiR6H9/T0vMfgAwAgkBJAgQAKALWGspAykbIRixGN4k/IrVcm/+EPf/gKAw8AgGBKAAUCKADUKspEwyxGtEOlAihXPwuLDzU1Nc10U2gAAAACqHsIoAAAykReNjpYGYmroCP4E2LrlXEee51yyikn5PP5ge0VY3BwcNvfwv/vooeF948//vjjj380/AmgwPi35Y8//vgrEykbKSMpK4XYkoXFhwK2Xtnd0eJDCRjw+OOPP/74O/AngALjH3/88a/WYkS7B2zJEmIxIrZemehxWFdXVwMnFP74448//jHwJ4AC498q+OOPv7KRMpKyEluyVHbxoXEek2+99dYveQtH/IUBiz/++OOPP1dAYwAw/q2CP/74KxspIykrKTOxGFGFFx9au3btEwzguIA//vjjjz8BFBj/+OOPv21/ZSRlJRYjquziQ3uOHTv26HQ63ckJgT/++OOPP7fgxgRg/FsHf/zxV0ZSVlJmYjGiyi0+tO/zzz//zeIBkcQBFOiDP/74448/q+DGBmD8448//tXwV1ZSZmIxosotPnRIa2vrW+4LnMgTAn/88ccffwf+hLPagPGPP/74V8NfWUmZicWIKrP40N5f+tKXTvMKlncwIJwMYNs++OOPP/74u/cnnNUGjH/88ce/Sv55ZSZlp/IXI2LxoQPr6up+HVgQ9/eAO3k/+OOPP/748wwocAsu5z/++ONfX1//a2Wn8hYjYvGhSR5HdHd3rw9foOQNSPzxxx9//OPhTwAFxj/++ONfLX9lJmWnQoZiMaIRLj7kD6DjC3t/fpmHqvHHH3/88Y+jP7fgAuMff/zxr6a/spMylLKUP4CObDEibr/dw+OghoaGqW7vsXb/88nzxx9//PHHn3BWEzD+q/p+8ccf/1WrVk1VhlKWSt5tuPYXH9rT48j+/v5W9gHCH3/88ceffUDjCDD+8ccf/2qi7KQMpSwV/cWInN9+67v6Wdj787777vtqjFa9svaNBv74448//snzJ5zVBox//PHHv9r+U6ZMudi3J6j/Kqij23Cjv/fnuMIl44PXr18/nYeM8ccff/zxT6I/4cwGrILL+Y8//vgrQylLFTLVOAt7giby9tu9xo4d+7F0Ot0VfMAd3wMe4v34CX5/+OOPP/74J9GfcFYbMP7xxx//avsrQylLKVMl4zZc+4sP7e6x35/+9KdrI/4NRJLuGccff/zxx9+CP1dAgfGPP/74u0BZSplK2cr9YkTR3/tzD49DGhsbXw3+xiAe33iEfb/x9scff/zxx59nQIHxjz/++LvwV5ZSplK2iv6eoG5vvx3vsdchhxxybC6XSyfloWQbRN8ff/zxxx9/roAC4x9//PF34a8spUylbKWMFf3bcN3dfjvBY/+ZM2f+xOWqWbH6hgN//PHHH39WwY0swPjHH3/8XfkrUylbKWNF/zZcd7ffTvQ4tLm5+Q0LA8raACn3oeNg8Mcff/zxT5o/4aw2YPzjjz/+rvyVqZStlLEc3IYb6b0/d1YiL7r9NuP+GwW3DznH3x9//PHHH39uwQXGP/744+/KP5vNZvbff/9jfLfh7qbs5X5PULdXP4tvv93vhRde+L79S+xW7iG3NsDwxx9//PFPnj/hrDZg/OOPP/4u/ZWtlLGKb8ON7FVQB7ffHtLU1DS73AIXsLEqVjD2ByT++OOPP/4J8Cec1QaMf/zxx9+lv7KVMlZkb8N1cPvtLr7bb/feddddP57NZvtdrzLl+hsZ/PHHH3/8k+9POKsNGP/444+/S39lK2UsZS3fbbi7RPM2XAe333obpl5vY5+f8N9guPmGBX/88ccf/2T4E0CB8Y8//vi79lfGcnAbboT3/vTdfrthw4YZ9leRiv43LPgn3z/v/b0xlTevb8maR1uy5r/Wpc23G9LmqhUpc8nSfnPh4n7z+bp+c/bCPnPyvF4A62isacxp7GkMaixqTGpsaoy+8UHONKY1djn/RwG34ALjv0L+/bmMaehpNS+3LDO/e2+O+dHSaeaaRQ+br86fYi588x7zubl3mbNn32ZOmHmz0D/r3+m/6Wf0s/p/9P/qd+h36XfS/9SEP/7KWP7bcKO5J6iD22/Hjh37sXQ63RO9VbDsv74f/JPpvyk9aJ5rz5kb12bMPy/pN6cviGWwBNDY1RjWWNaY1tjm/B/+9dkHFBj/IX5+cGjQrOxuMQ+sf9N8o26q+eycO82xM26seG30O/W7r/Ve48H339Jr6rXpf/BPnH8mk+lR1krsbbghb7/d//HHH786TKJ3UdACtlbNwj8B/t25QfPi5qy55b20Oa+esJloQGNcY11jXmOf+Y9VcMEH439k/k2pTvPYxvnm24sfN2fNvs1ZvfTa36p/zDy6YZ5p7P+A/gf/xPhPnTr1amWuQvYaN5rbcJN6++3B77///p8dLIMcqX174u2Pf3ZwyMz5IGe+35AyZ3KFE2oUjf0frE4bnQsDeeY/roAC43/4/949kDLTGheZyxbcF3yF0wF6T3pvf2qqMz3ZNP1PrP3xX7du3fPKXJG8DdfB7bd7eRydTqe3lJ/wyx8wLpdVjqc//st7cubn6zPm3EX9BBAAHzondG6s6M0z/3EF9H/hCijj//X21eZ7S540J826JS511HvVe9Z7p/+JpT/+ylrKXMpe7m/DdXf7rZL37h773XPPPf868oI5WzXL6gCKnz/+C7py5poVKYLGCADQuTK/M8v856OWQhgBlM//3GDePL9piTn/zV/HvqZykEt+aJD+L1b++CtzKXspg7m/Ddft7bcHrVy58kG3q0i5f734+OOvWwsvX0bwDAOAzh2dQ8x/XAGtEWr+838gnzXTmhaZz8+9O2m1lZPc5Ej/Fwt//JcvX/6gspf723Dd3n67p8cRnZ2da0scKAffGFh4PQvg78Z/XlfOXPRuJW6zBQCdS293Zmt6/iOc1QQ1/fn/TFOdOWfOHYmv8blz7zTPbqqn/4u8P/7KXMpeymDub8N1s/rt7h6TL7roorO8A/JhFR4ydrFRbAii5o9/a2bQ/GhNmtAAYAGdWzrHanH+I5zVBDX5+b+6p9VcOv+PNVdrOTd0t9D/Rdkf/w+VvZTBCllstzjfhvuRoABa4vbbPTwOfOONN24Lv2+O+32E7L8e/q78s/lB8+CmAfOZhaxoC2ATnWM617L5xM1/rIILNfX535tNm9tXvWSOn3lTrdZb7joGOhb0f5H0x1/ZSxlMWazoNtzAACqiH0CDb789rLW1db7NbxyCC+h+gETPH/+VfXnzL0u43RagmuicW9Gbq5n5j3BWE9TM5//ctgbzd6/9T8EbdCx0TOj/ouaPf0tLyzxlsIDbcGMZQIuvfu5Q4vbbvSdMmPDJbDabidQ3GA4u6UfLH//HmgfMGezjCeACnXs6B2ti/qNJrw2S/vmv1W3vbJhRYh9P0DHRsdExov+Lij/+yl7KYMpiJW7D3aH4KqjTAGrh9tv9p0+ffm3AAXa5z47LAY+/A/+ubN58dxWr20YBgO81pE13bjD28x/7gEKSP/9bUl3mkvlTqHMAOkY6VvR/UfHHXxlMWczBbbhOtl/ZdvvtRI9D1q1b97zFVaQiew92Mfi793+3J2f+oS5KVz0BQOekzs04z3/sAwpJ/fx/rW2VOWv2bXIMBnSsdMzo//CPhL8ymLKYMpnvNlzL27G4v/12L4+j+/v7213c8+3H/Tcq+Lv2n9WRje4ttwDckqtzNLbzH8+AQhI//6dumMcttyFvyX3k/bfp//B37t/X19euLKZMFsvbcEPcfivJfX/6059+yf2qU/a/kYj2qlv4P9EyYE6dH+HwCQA6R3WuxnL+YxVcSNrn/y9Xz6KuZaJjSP+Hv2t/ZTFlMmWzELfhxub2W0mNL9xrfNDChQt/aavgVledsjAA8Hfj/5uNAzT3APFB52zs5j9uwYWkfP5rIZ0blj1DTSuEjmV+aJD+D39n/spiymSFbDZeWc3+bbiWbr8d4fYrh7e1tS10vwoWr1+Lr5/z/vmW99I09AAxROduLkbzD1dAIQmfv+ncgLm2bir1rCw6pjq2LupP/8nrazuWhcpkI9mORUQ7gBbfflsIoL7bb/ceO3bsJ7LZbCoSyxpbINrLOuN/K+ETIM7oHI7N/McquBD3z39d+SR82uO6+kd1JZT+r+r++CuLKZP5tmMZ5wugO0b2OdBR3n4rqQke+99///3/7n6VK+cPOePvwP8ebrsFSAI6l2Mx/3EFFOL++c9tt/bRMab/w9+F/0MPPfTvymaFjDZulLfhRuT5z+Dbbyd5HLRq1apHonyJ28VDyfb98Z/aTPgESBI6p6M+/7EKLsT58/8XLDhULXSs6f+q7oO/MpmymTJa8G249p8DtbX9yp4eR3Z2djbYTPhWB5CFZZnt++P/4uasOYXVbgEShc5pndtRnv9YhAji+vmv7UKoX1XRMaf/q6o//spkymbKaO63Y7Gz/coEj8mnnXbayfl83vMfiuyyy9UYQNXzx7++O2dOJ3wCJBKd2zrHozr/cQsuxPHz/7W2Vezz6Wif0DntDfR/VfPHX5lM2UwZTVnN/XYsdrZfOeCFF174kaSTQsAAcAz+HwzkzRfrCJ8ASUbnuM71qM9/XAHlFtw40JLqMmfNvo3aOULHXjWg/8O/WiibKaO5347FzvYrkzwOXb9+/Yu2V3WKyzca9v3xv34VK94C1AI616M4/7EKLsTp8z+bz5lL5k+hbm5RDVQL+r+q+OOvbKaMpqzmfDsWC9uv7OVxdG9vb0tEv7FI2Dcc+N/XlKExB6ghdM5Hbf7jCijE6fP/zoYZ1CwaqBb0f1Xxx9/LZs3KaMpqzrdjsbD9yr4XXXTRX3uif3E7ANwPMPv++Nd15cxpNfXcJwDonNe5H6X5j1VwIS6f/6+3r47Oc5+gWqgm9H/W/fHfunXrX5TRlNXsbsdi//nP4ttvJ3oc+Oqrr/6sjAPuuoAWXt+GP/7p/KC5oL6fhhygBtG5n85HZ/5jESKIw+d/bzZt/u61/6FeEUM16ctlrNef/hd/ZTRlNWW24ttwnT8HGvD857Dbr/if/0z+Q7+uv7HB//eN7PcJUMtoDojK/Mc2LBCHz//bV71ErSKKamO7/vS/+PufAw3YjsXCc6AWtl/xP//Z09PTyD3f+NtkQypvzlzArbcAtYzmAM0FEZj/eAYUIv/539DdYo6feRO1iiaqjWpE/2fVH39lNP9zoJHbjmXU268Unv/83Oc+d6Yn+KH7S+xuv4Gw64//tSvTNOAAoLkgCvMfz4BC5D//L53/R+oUbVQj+j/b/vh/qKy27TnQENuxOHv+c+z2nv/09pj5Mfvy4G+TWR1ZGm8A2IbmBNfzH1dAIdKf/8801VGjeKBa0f9Z9cdfWS3gOdCxbp4DDd5+pdTzn3t6HLpmzZrn+AbDlj/+OY/ihYcAgAWJcm7nP54Bhch+/mcHc+acOXdQo5igWg3ks/R/1vzxV1ZTZlN2C3gONHg7FsfPf07Y9vxnV1fX+zzka+v94f/i5iwNdzEAoLnB5fzHFVCI7Of/043vUJ+YMa1pEf2ftfeHv7Ka7znQCXafA7X//Oc+p5566ime2NYIfmORgEvq+Oc9/mUJVz8B4P9Fc0Pe3fxHAIVIfv7nBvPm83Pvpj4xQzXLD1kbP/S/+G9VZlN2s/AcaPWf/5w+ffp3uSfblj/+r3Tkhm0+AQA0R0Rs/iOAsg+oU57ftITaxBTVjv4Pf1sos9l7DtT+85/jfM9/HrJ69eqnbRWMS+z4X/zusFc/AQA0R7ia/7gCCpH8/D//zV9Tm5ii2tH/4W9tW6aGhqeU3XzPgY6z8xyo/ec/j+zo6Fhpo1AA8zuDn/0EANBcwSq47iGAumduWwN1iTmqoY2xAaDMpuxm9zlQ+89/Th47duwnstnsAPeI42+DG9YE7vsJAKC5wsX8RwCFyH3+f3fxE9Ql3qiG9L9W/PHP5XIDym7KcJF4DjTE8597eOx/9913X8Q93vjboC83aM5e2BfYeAIAfGZhn+YMh/MfAZQA6p7ugZQ5adYt1CXmqIaqJf0v/jZQdlOGU5YL8Ryo8/0/J3kcPH/+/LttHByAP7eP/PZbAADNGdyCW8sQQKc1LqImCUG1tDFGAJTdlOGU5RzsBxocQAOe/9zT4/DGxsbZFBNs8J8rUiNuPAEAvr4yRQCtaQigly24j5okBNXSxhgBUHZThlOWC3gONDiAOnj+c2+Pj/X09Gzikn2l/fFvzQyaU+aP/PZbAADNGa2Z6Mx/NNE1QWQ+/xv7PzDHzriRmiQE1VI1pf/Fv9IouynDKctZeA7U+vOf+55xxhmneiIfVvrAAExrHRh18wkAoLmDK6BQi1dAH90wj3okDNXUwlgB+FAZTlnO6XOgIZ7/1Js98Omnn/4mRQQb/HD16G+/BQDQ3EEArUUIoN+qf4x6JAzV1MZYAVCGU5ZTpgvxHKiT5z+3LUB0yNKlSx+J40HP5/Pb/hb+fxcR8P/sov5RN54AAJo7qjj/EUAhGp/rg3lz1uzbqEeyUE1VW/rfivvjrwynLOdbiCjsc6D2n//0LUC0l8eRbW1t9QyASvvj39CXp5EGgNBoDuEKKFSJSHz+r+hqphYJRbWl/8W/0ijDKcsp0/kWIrL3HGiIALqT3kzR85+TPT6RTqd7Kn1AAKY2h3/+EwBAcwgBFGrpCugD69+kFslEta34eAFQhlOWU6Yreg50Z2U/ZwE04PnP/b72ta+d6zzB2/+GwcHvx//bq8I//wkAoDnE/fxHAK0RIvH5/426qdQimai29L9W3h/+ynLKdAHPgQYEUEvPf/oCqP/5z4Oee+65HzGA8LfBl+vZfgUAwqM5hGdAoUpE4vP/s3PupBbJRLWl/7Xy+/FXllOm8z8H6gug9p4DDbEA0YTCpqWHLF++fCr3hFfaH//+bJ79PwHKhv1AUzluwYXq4Przvz+XYf/PBKPaqsb0v/hXGmU5ZbpCtptgfyGicAsQjfcvQNTS0vIOA6jS/vivZgEiACgfzSWO5z8CaK3g+vN/VXcLdUg4qjH9L/6VRlmuaCGi8SEWIrL7/GfxAkT9/f0dVgrm4OejM2Dxn9WRpXkGgLKZuXmgKvMfV0DB9ef/Sy1LqUPCeal5Kf0v/hX/eWW50gsR2X8OtPj2WzEmaAGic84558yhoaG/uCmw+wFib4DjP6UxQ/MMAOWiucTx/EcAZRGi6vCbNbOpQ8JRjel/8a80ynLKdCNYiGiMLycWBVD7z3/qTU30OPDJJ5+81mbid///u/rGA/+frknTPANA2dywJl2V+Y8roOD68/uH7z5NHRKOamxj/ND/4q9Mp2xXyHi7238ONPwCRIfW19dPkUDECpaA94P/dasIoABQPppLqjH/EUDB9eft1Yseog4JRzWm/8XfBsp0ynb2FyIqfwGiI5qamt5wn/jtFczdNxb4//ty9gAFgLLRXOJ8/qNxrg1cf/5fMn8KdUg2qjH9rxV//JXplO3sL0RU/gJEH+/p6dnENxb423i9f3u3n+YZAMpFc4nz+Y/GmVVwq8GFb95DHZKNakz/a+X94K9Mp2xnfyGi8AsQTfTY98ADDzzBe8NbHST4SP28HX/8z6tnD1AAKB/NJdWY/7gCCq4/nz839y7qkGxUY/pfWz+P/1ZlO2U8ZT37CxGFW4DogF/84hcX2z4gtgsS3QGE/7mLuAIKAOWjuaQa8x9XQMH15//Zs2+jDslGNab/teaPv7KdMl7IhYiqsgDRIa+++ur/4ZI7/rZe74wFXAEFgPLRXFKN+Y9tWMD15/8JM2+mDslGNab/tfZ+8Fe2U8azvxBR+AWIDluxYsVT7gsW/hsFP+4HLP4EUACwFECdz3+nzLqV5jnhqMauP/+pAwGU/hf/cvyV7ZTx7C9EFG4Bor09jmppaXnH/SVmmwUMxoI//g5uwQUAbsG1Of/9zWu30zwnHNXY9ec/daiJW3Dpf635469sp4ynrGd7IaKiABq8AJFvBdxWt8sQu78Ebs0f/0otQgQALELkfP774uu/oHlOOF9645fOP/+pA4sQ0f/iXw7Kdr6VcIMXIgofQAOf/9ypxAJE++27777He290KN6rSpX/3y344882LABgYRsWl/Pfv7z9G5rnZKMaV+PznyugbMNC/2vTH/8hZTxlvRILEe0U/ByovQWIJnkceMcdd3wlyatQub/HG39tHk/zDABlornE+fx3+YL7aJ4Tjmrs+vOfOiSfr86fQv9r9efxV8ZT1lPms7QQUYgFiAor4L7yyiu3VFDY9SXrCP4+/K9blaZ5BoBy0VzifP77et0jNM8J5xt1U62PJxYhgmsWPUz/a/X346+M518JN/xCRCECaMACRId7qyQ96fYAul9Fyq4//jeuzdA8A0C5aC5xPv/dtHw6zXOyUY2tf/5zCy78aOk0+l+r/vgr4ynrBSxEZCWAll6AyLcCbnNz88JyBctdVcqHk3u07frj/8emAZpnACibKY0Z5/PfQ++/RfOccFRj15//1CH5/Hbta/S/Vv3xV8bzr4Q7/EJElQmgf7WdFXD9CxDt4/GJnp6eFoerUCXgknkQ+M/qyNI8A0C5aC5xPv/NbW+geU42qrH1z39uwYWXW5bR/1p9v/gr4ynrKfP5FyIafiVcESqABi9A5Aug+3p8KpfL5cs/AMFEedUqu/74r+7L0zwDQNms6Xc//23s30LznHA29HU4//ynDslnVXcL/a9Vf/yV8ZT1lPlKrIS7c/kr4YZbAfeAb3zjG1+w8I2Ay2WLI3iPNv7p/JA5ZT57gQJAeDSHpHKDzue//NCgOWHmTTTQCUW1zQ26//ynFsnm2Bk3mlR+gP7X+v+Pv7KeMl+olXAtrICrN3HQE088cb37xG//nuqg32ffH//zFrMXKACER3NIFOY//f3lN35FE51MVNtIfP5Ti2Tz93Pvov+tij/+ynrKfMp+5a+EW/4KuHt5HDpv3rxfln0AErAvkH1//L/TwFYsABCe7zakIzP//XjpNJroZKLaWv/8ZxVcuLZuKv1vVXzwV9ZT5lP2C7USroUVcA9vaGh4JuBAOUjwDn6/dX/8H21hISIACM9jLdnIzH/PNNXTRCcU1db95zMBNOk8+P5b9L9V+f34K+sp89lYCTfMCriTPY72lud9x8kqUw4K4nTZZ/y1eEjZDSgAsABRFOa/TanOhDbGoNpG4fOfWiSbld0t9L/4V8VfWU+ZT9mv3JVwy18Bt7AFS3d3d5P7e5TdL4uMv33/oaEh89lFo38OFABAc4fmkKjMf3ovn5t7V7KaYlBNVVunn//JD6Bw1uzbzODQIP0v/lXxV9bzbcVS5kq45a+Au5/HMdlsdqACBygA15e87f++YPDXh/qP1oz+OVAAAM0dmm+iMv+JG5c/m7DGGG5Y9oxqa/Xzn31A4duLH1dPRP+Lf1X8lfWU+ZT9Kr0SbpgVcA+49NJLzwmd4B0U2P6qVfjb9Bd/ahv9c6AAAJo7NIdEaf57ftOShDXG8Ofmd61//nMFFB7bOF91pv/Fv2r+ynzKfiFWwg0dQHfSLy9aAXdPj4MfeOCB/6zOvjgOChQC/O37tw2wHygAjH7/T80dUZv/urMpc+Ksm5PRFINqqZpa//xnGxb2/2xKddL/4l9Vf2U+ZT9lwKKVcHcOvRJu4Aq4pbdgOWTu3Ll3+AQjvu+O/d+Hv31/3XLy9ZWpETeeAACaMzR3RGz+03vSrXQJa5C5LTIqn//UJJlctuA+jTP6X/yr6v/GG2/coewXsBXLWCsB1LcA0d4eRyxfvvwx+w/Nhk/sjlehwt+CvybdP7eP/DZcAADNGZo7ojb/idntqxLSGMNr7as0zqx+/rMKLvypqU7jjP4X/6r6K/Mp+xUy4MSKbMUSsADRcFuwHLVhw4bZ7pcddr+sPv7V9U8NbjWfWRh8Gy4AgOaK/vxQZOe/7GDOnD37tpg3xaAa5obykfr8py7J46RZt5jeXIb+F/+q+yvzKfsNvxVLqIWIRr4Crm8Llo+1t7cvq94qTsG43ucH/+r465u/G9dmAhtPAADNFZozojr/6b39n5UvxLwxhltX/Fm1jNTnP3VJHt9b8qST+Yz+F39lPmU/31Ys5a+EG2ILln09PtHT09Ma9gAG4/4St+0BhH/4hm1hdz6w8QQA0FyhOSOq859+ZllXU8wbY1jevUnjLFKf/9QlebyxeY3GGf0v/lX3V+ZT9itkwEk2AmjwFiyFPUAHvD/2HpoNJgoPHePvxl8T8MXv9g/bdAIAaI7QXBH1+W/r1q3myoX3x7QpBtXO9SJXyb8FF85/89caZ/S/+DvxV+Yr3gs0eCuWgAAaYguWAz7zmc+c5f6Au91XB393/pqEX+nIDdt4AgC8uqVw9TPi85/e47yO9+LZGINqpxpa/fxjFVzQvsEaZ/S/+LvyV/ZTBgy5FUtAAA3egkUvetCdd955cVkHIASuC1YM/q78C7/Dm4j/Zcn/exUUAOBf301pjlDDFvn5T+9RV0G/Mu/3MWuKQTVT/UTUPv+pT3L4/Ny7zeDWwlxG/4u/I39lP2VAZcGKbMUy0i1Y/HuATp8+/cfDy7tP/O7B37a/GrYXN2eLG08AAM0NCgWxmf/0Xme3rYxZYwyqmWoXxc9/6pMcpjUtUs9D/4e/U39lP/9eoGVvxeILn2JMiQA6rmgP0MPefvvtewvCMSuIhWXS8XfgX8CbkC+o/79XQQEALlycMnnfVamoz3/+RwsufPOemDTFoFqpZsHjgFtwITznzr1TW/xorNH/4e/UX9lPGbBoL9BxJQLoGF+uDAigwSvg+vcAPWLlypXTorYvj+OC4+/AX98Izur436ugAACaEzQ3xG7+03t+a/PamDTGoFqpZlH9/KdGyeDZTfUaZ/R/+Dv3V/ZTBvTvBVruSrij2YJlH4+jm5qa3qxawaJfQPwd+Pufnbp2ZZrGGwA0F2heELGb/7a97+8seSLiTTGoRoUrUtY+/1gFFy6d/8fIzGf0v/hv3LjxTWVAZUHfSrhWA+j4oj1AP+5tSLrK9j3IUV8WORr++Gti3pgeNGcu6KMBB6hhNAdoLtCcENf5T++9NdVlTn3l1og2xaDatKW7VatIf/5Tq3hz/MybzJreNn3JTv8XCX/8lf2UAYv2Ah1fyQC6Q0AA/UR3d3dLpB7qdVCwaPjjryZA/KGplm/FBYDfNw6oWdN8ENv5T+9d3L/+jYg2xqDa+K5KWYFnQOH2VS9tG2f0f5Hwx9/Lfs3KgAEBdIfQATRgC5b9PI5JpVJ9rh/qdV2g6Pjjrwl6YIgFiQBqeeGhzOCQAmjs5z/NZ9nBvDnvjV9FrCkG1US1UY2i/vlPveLLOXPuMH25jMYZ/V9k/PFX9lMGVBYsuRVLiL1AR7MH6P5jxow5znvjW13vU+N6WeSI+OPvuxJa3503p82vpVtxAUDnvM79wpWC2M9/+ltBenn3JnPCzJsj0hSDarGip3nbVXYr9ecWXDh2xo3mjc1rNMYE/V+U/PHfqgyoLBhiL9BQAXR3XwA94OKLL/6sfeHo3zONvyv/gFvXNg3QlAPUEDrnC6EgMfOfXMTUDfMi0hiDalGoi7X6cwUU7myYETzO6P/wd+SvDKgsqExY9l6gvgA6ZjsBdGJh49GD77rrrktCCFs94Lw+ry+2NaHXr2JVXIBaQOd64bwXiZn//M+3X1//mOOmGFQD3xWpWHz+Urf4ccn8KSY36Lubg/4vYq/P6ysDKgsWMuHE7QTQMYEBtNQKuL4A6t8DdG+PQ5966qnvWjhAsfr5aPrjr0lbdGYHzZd4HhQg0egc78oNbQugiZv/5CS6synz93PvctQUg469alAYZ04+/5IfQOGs2beZ1nR3wHxG/+f25/FXBlQWVCb07wXqC6CjWgk3eA9QXwCdPXv27S4e2nVdcD/R9cd/296gi3vy5nSeBwVIJDq3dY4XQlpi579tfks6Nzp6HpTnPnXsC3WI1ec/9YvXc59zN69W7yLo/yLrj78yoD+AFu8FaiOATvKY7HHEO++8c1+5B8z9JWr3AwZ/e97bQuiLm7PmlESFUADQOa1z2x8+kzr/+UPoyy3LzHEzflalphh0rHXMC58nqkWsPv+pYSyfL1bt6P8i64+/MqCyYCETTrIZQP17gO7jceSqVaumJ+Ee6oQ8NIx/QNP2aAv7gwIkCZ3T/mYt2fNf0Xy2YX6VmmLQsQ4/ztyPN2oYD3615hX/lxz0f5H2x18ZUFlQmbB4L9ByA+gOAQH06I0bN74eXsDJRqwWiLo//tsmdP19z0ZWxgVIAvc2Zv2LDtXM/FfwlbvXsL5quSmGX65WKBjaRiw//6lj9Llh2TP+cUb/F3l//JUBlQUDAugO5QbQ4j1A9/P4RFtb27sOljlO+iV9/C34+yf2W99jZVyAOKNz2H9O19r853dX40oDX5VQYKX+XAGF6+ofNYNb/Yuo0f9F3x9/ZUBlQWXC4r1AAwKoCAyghRVwSwfQLVu2rLMqC2AhhOY9bollCAUAnbt5XyhgPhs0Ny57trJNMeiY6tg6H2fJD6CEz0w+/KMEAK5QBiwVQP1bsYQJoMPtAeoPoJ/s6elp5aHiuPjj739+SvwmVrfjAoDO2cJVAv1d8/Of/1j8YvWsCjXF8Ms1r+iYbju+sf/8o6bRvcLu+5JDdaT/i40//sqAyoL+ADr8XqCVDaDHpFKpniKBmiiYn3j54+9/fkp/P9maNadGenVcANA5qnNV56y/Wav1+a/4S7WH339b2ziEb4rZAkPHMHiclVd/VsEFfWFUPM7o/2Llj78yoLJgJQPomO0E0Ikee3ns73FcNpvN2T+AAHabtlkdWXPGgiiGUADQuTmrY6Thk/ns+U1LzPEzbxplQww6Zjp2lscZt+DyJYe2Won9OANQBlQWVCYsZMOJ2wmgY4oDqBgugO7oC6DjigLoAZMnTz4pYt8wOHu96PvjH9S0Le3Nmy/X90eo8QYAnZPL+v53JWv/HozMf9uZz+o+2GDOnXPHCJti0LHSMfPdHSOiXP8YBlA4a/ZtZk57Q3H4pP+LrT/+yoLKhEUBdJwvgO7oD6BiuAD60RIBdNcSAfTAf/7nfz43SUkeuHLQnRs032uIwOJEAKBzUedkyCsFzGcfDPSZaxY9HNAUw38ueljHyuo44wooXDJ/imlJdSVqnAEoCyoTlgigu5YIoB8dTQDd2RdAJ/gC6ME33XTTvyR/mWQn4O9gY3c/j7e4vCUXgFtudQ7qXLT/zGeyKF6YSExZN9d8esbPCAFF6Jjo2ASPs3jBPqDRu+X2zoYZJjeYT8Qzn37of/FXFlQm9AXQCb4AunMlA+gkj709DvnDH/5wdVIKBlDchKzsy5t/WVLFW3IBQOeczr3i85E5qsz5bNEH75svvH43gaCAjoWOic1xxhVQOMe7tfv19tWJ+pLDD8Dvfve7q5UJC9lwku0AOtnj0GnTpv2Qgw9Jbtpyg0Pmoeas+cxCm1dDAUDnmM41nXN2QgHzmfYavHftbHPirJtrNhDIXcdAx8LmOCOAsqDV7ateMn25TKLHGYCyoDKhsmGlAugORQF0fFEAPWzWrFn/zcGHpD9HJVozg+aHq208GwoAOrd0jlXnKgHz2Yb+Leaqdx6quVAgZ7nbHGcEULh0/h/N6p7WmhhnAMqCyoRFAXR8UQDdodwAuocvgB7x1ltv3WtLKJfLbftb+P9dUgn2x99p0ybmdeXMRe9W4rZcANC5pHOqRKMmmP8C/Mudz15uWVYLt+XKUa5ydhAKHNTfSQCFc+feaZ7dVB8wzuj/kuWPv7KgMqEvgO5RyQC6my+A7umxj8eRdXV1D5D+oVZuYfMz54OcuXxZihABEAKdOzqHCueTw1vUmM/yQ4NGe1+e98avEhcI5CQ3OdoaZ1wBhc/PvdtMa1pksoO5mhtnAMqCyoSFbLinL4DuFhBARekA6tsDtDiA7utx1LJlyx7nGwr8Hfk7vRq67d/N78yaa1aMJIgCgM6VBUVXPIvOK+Y/R3d3DHohbWbLcvPPb/0m7oFADnKRU8A4c1D/xARQOP/NX2/7gmO4PoH+L/H++CsLKhMqGxYHUN9eoCMOoGNHEkBXrVr1LAXF362/+8ZNrOjNm9vWZcy5i/y35wKAzgmdGzpHgq54Mv8V+7uZz+Z1vGd+vHSaOWXWrXEJA3qves967w6+4HBQfycBFE6adYv53pIntbJtwDij/6sNf/yVBUcYQMeGDaC7FwXQo1evXj2DgtaWP/7DN9EiOzhkXtuSMz9YnWYf0ZqGfTx1Duhc0DmxvXOG+c+hf8B81p/LmOlN9ebfFz6gvQwjub+i3pveo96rPwBs+7vwzzVff8JjeePssgX3mT811ZmebNrCfMb8F19//NesWfOyMmFRAN3dZgD9+Pr1618LFnR/wFwUOPn++Kux2Ya/6dlGd27QvLg5a25+L23Oq092GAXQGNdY15jX2Nc5EHyFgPnPvX9wEBUtqS7zZONC813v6s9nZv/cWRjQa+s96L3oPQW8b+of6goonDX7NvPtxY+bxzbON02pTo2l7X3BoWNM/1eT/vgrCyoT2g6gEz328tjP4xONjY1v1/o3EvjjX/gACmy4mzNDZnpb1tywJm3+eUm/OT2mV0gBNHY1hm9cmzHPtec0tgPHf+Fv5j/r/vbnM9HQ02oefv9tc139o+Zzc++ycoVUv1O/W6+h19JrjuC9yYH6E0BHNc7+3htn36ibah58/y2zsrtl2/PDgdR6/4M//sqCyoTKhoWMODFsAB1TIoCOKxVAm5ub66JY0ID/bmGA4I9/ceMWTM5jY3rQvPFBzjzakjX/tS5tvrUqba5anjKXLO03Fy7uN5+v6zdnL6xOUAXQWNOY09jTGNRY1JjU2NQY1VjVmM35xrGLQMD8Z99fjKbG6XzWaO9DbXfyu/fmGD2Pec2ih81X508xF755j1GQPNu7qnTCzJuF/ln/Tv9NP6Of1f+j/1e/Q79LvzPwC43if6b+3IK7jeJxdok3zq5e9JD5kTfOfrv2NfNSy1J9qaHbt0uOp+D5jP4Hf/yVBYcJoONKBNAxCqAibADd3+OTbW1ty8MLWBoA7n8//vj7P8iCGL6hCv7/E/D7k+qPf3LmJ+Y/1dT9+A8fBnLUn/kv4PeHG2f0P/jjryyoTKhsGCaAiuIAuuMIAuja5F9yDv+NAv74F/B/4DnC/gd4wM8n3x9//TvO/wT7F7A8/i1cUaf+zH8hvQXnP/74D+/T3t6+dgQBdEdfAP3oSALozh67DhNAj+ns7NzoOMHH7hI2/vjrA812AxDy9zloOGLsj7/+Hed/DfsXxof18V94rfD+1J/5L/j3hQic9D/4479ly5aNyoTDBNBdlSXLDaATigNoT09PCw/14o9/ZRb+KMb+B3L0wd+df4kxyfmPf/nzWfA4o/4W/Gtg/nMwn3H+44+/smCJADqh0gF0ksfeHgd4HNvb27vFQeKO1OvVmj/++OOPP/74448//vjjj7+yoDKhsmEhI06yHkD7+vo6WUWqpvzxxx9//PHHH3/88ccff/wVQDtdBNDuMoUT8I1Cbfnjjz/++OOPP/74448//vj39/d3VzuAHue9aC/3VNeWP/74448//vjjjz/++OOPv7KgMqGtADq+VABNpVL9YRO5H/9/s/D7rBao1vzxxx9//PHHH3/88ccff/yVBYcJoOPDBNAdRhBAP53JZNK2BMMfUJcFTL4//vjjjz/++OOPP/7444+/sqAy4QgC6A4VC6ADAwMZx6tMOb8Hu9b88ccff/zxxx9//PHHH3/8lQWrGUAP9Dg+6/2x/5ButB86rjF//PHHH3/88ccff/zxxx9/BdCsMqGyoa0AukeJAJoPK2C/YC4Kmnx//PHHH3/88ccff/zxxx9/ZcESAXSPSgTQ3XwBdE+Pyb4AOmQhcTv4fRbumU6mP/74448//vjjjz/++OOPvxgqBNCDChlxT18A3S0ggIpRBdCD9GLeG9rq+KFa55fQa9Aff/zxxx9//PHHH3/88cd/a6UD6E5BAXRwcPAvFoRt/ncLA6am/PHHH3/88ccff/zxxx9//MVfRhBAdxptAN0lIIB+aP+e5mivSlVj/vjjjz/++OOPP/74448//uLDgAC6S8UDqCew1f0BcVvAGvTHH3/88ccff/zxxx9//PHfaiWABixCNOjwoVdh+xJ24OvVmj/++OOPP/74448//vjjj7+yoG8V3OoE0IGBgbz9h3rj9A1D8v3xxx9//PHHH3/88ccff/z927BU8wpo1sElaQcJP+D1a8gff/zxxx9//PHHH3/88cdfWbDaAfTT3hXQjJ1LwsFEZZWpWvPHH3/88ccff/zxxx9//PHPeH+UCasaQFPeH7ffALgfIDXmjz/++OOPP/74448//vjjrwCaqnYAPd7Ln/3Bgu7vubb5erXmjz/++OOPP/74448//vjj3+/9qdQtuGNHGkD7+vp6w15Ctp3I3XyDkXx//PHHH3/88ccff/zxxx9/ZcFRBNCxlQign/ZCb3e4hG3/ABWwfs91rfnjjz/++OOPP/74448//vgrCyoTVjWA9vb2dtpP+NFeNarW/PHHH3/88ccff/zxxx9//JUFXQTQLRYEI18wP7Xmjz/++OOPP/74448//vjjrywYPoCGW4TouK6urtYAATvLCofA1jcateaPP/74448//vjjjz/++OPf3d3dqkxYzVVwj9myZcsGB/csu/j9wQWrEX/88ccff/zxxx9//PHHH39lQWXCqgbQ9vb2tU73oQnGwSX3ZPvjjz/++OOPP/74448//vh3dHSsqXYA/VRbW9tyC8JO/ntYas0ff/zxxx9//PHHH3/88cdfWVCZsFoB9AC9WFNTU73zfWnsrzoVDP74h3g/ub6USS9dZ3qnv2U675pmtlx3j2m/+L9N2/k3mtZzf2iaT7/eNB97tWk6/FLTeOBXag7Gf2X8c/1pk1623vQ997bROOsoMc42HXOV0TgT+mf9O/239gt+ZvSzW66/13Td/Sej35FZ/r5+J+d/0fvBP2uyPetNpuU1k1r7gOlb8jPTu+Drpuety0zP6/9iumd/0XTN/GvT9fIppvPPx1gHQGNNY05jT2NQY1Fjsv/dm4zG6EDrHJPr9eaz3ADnf0h//PFXFiwE0AOqFkDff//9ty0nbAuXuB28Hv74Z7MmveQ90/3b583my243zadeZ5oOunj4AAYh68H4V9jsmfKi2Xz5/5jm0663Ms70O/W79Rrdf3hBoZTzv8b8s70bTXrDNNNb90PTPefLpuvFE2IZUgA0djWGNZY1pnN9jZz/I/z/8cd/w4YNb1c7gH5y7dq1c+wncpf77IT3wR//zPoW033fy2bzf9xtmo+5ilA5Ohj/I/QfaGw3PQ/NNB1X/8I0H3e1q3rptfUe9F70npj/EuafTX1gMo3Pmb7FPzXdr34u0YEEQGNcY11jXmOf/qf06+GPv7KgMmE1A+gnVq9ePcP2Q7oOfn/o/x9//HOdvaZn6qum7cKbuMJp7RZcxn+2u8/0PjnHtP/rrVEcZ3pPem96j3qvzH9x9c+mTab5FdP3zrdM10snEkygFtHY1zmgc0HnBP2P72fwx19ZUJmw0gF05+0E0I+vWLHi2RAHwAF23x/++KdeqTcd1/zSNB15OeGxMjD+S9A/Z4nRM5ybjroiNnXcdPSVes9678x/MfEf6Fhi+pbeYrpmnEUA8QHgnRM6N3SO0P/gj7+HsqAy4XYC6M6jDaA7BgXQpUuXPuF4mWHnl6hr2B//bM70Pv26af277xMYKw/j3/f8cK+3+E/r534c+5rKQS55eTH/Rc5/oP1t0/P2FQSNEQCgcyXT9hb9X037479kyZInRhBAdyw3gE4q/PL9PT62YMGCh6pVoALWC2rBJ2n++KcypueRV0zLGd8kKNqD8T+QNfqCo+Vvv5e42spJbvoSh/nPvb9uLex98yuECoAQ6NzROUT/V4v++L/zzjsPKRMqG1Y6gO5aFED3LrzI0a+//vpvI1tgBwVJvj/+vY+/ZppPvpaAaJ+aHv/amqflzG8lvsZy1NYuzH9u/DOtb5ieuRcSIsoHQOeSzin6v5ryx19ZUJlQ2bCQESf5AuiuAQH0IyMJoBOKAuhRL7zwwm0Bgg5w8NBv4v3x19YW7RfeRDCsHjU5/jNrN5n2f/uvmqu1nOXO/Fcd/2xfs+lb9G1CgwUAdG7pHKP/qwV//JUFlQmLAugEWwF0P48jn3zyyR+FOABR25jVAknxxz/b1Ws++NnDpunQrxIKq0ttjf++lOm64ynTdMRlNVtvuesY6Fgw/1nyz2VMeu19puvlUwkK9gDQOaZzTecc/V+i/fFXFlQmVDasRgDd1+OIe+655+sWEnkCVo1Kgj/+/bPqTPOJXycMuqFmxn/q7eW+221Bx0LHhPmvsgxsedf0zDmPcFBFAHTOZT9YSv+XWH/8lQWVCZUNKxFAx44ggB72k5/85CsRW5XJwQBKnD/+mQHTeetU9vF0S02M/+5fPWuaDrmkyB10TLp++UyF6s/8l3rvYdP14gkEAgAH6NzTOUj/l0R//JUFlQlHEEDHhgmg40oE0EMvuOCCz7EPTpL88R9obDet591ACLAK+4BmN3eZ9ktuo84B6BjpWDH/hSOb+sD0LryOEADgHp2LOifp/xLlj7+yoDJhiQA6zlYAPWTcuHEnJ2cAuP99+Lv175vxjmk+5qpoNN+Q2PGfmr/SNJ/0DTkGAzpWOmajrBfz30BHvel+9bPRacABQOekzk36v8T4468sqExYzQB6sMeJmUwml/iCBfx8/P3x757yYrRuuYUkjn/tfcmCViHQMdOxyzH/jYh004vccgsQ3VtydY7S/8XeH39lQGVBZcJqB9Dj+/r6eniIN87++Hf+9+PRa7ohceO/5w8v8CVHeHTsdAwD6s/8l1r3iOl64bjoNuAAoHNU5yr9X6z98VcGVBasRgCd6LGXxz6FF/t0d3d3q/sD6LagMfXHfyBrtnz399FsuCFR47/zvx6jphVCx5L5rzSplb+ITxMOADpn6f9i64+/MqCyYCET7lPIiBMrHUB3LxFAj+vo6FinNwEQK/pSZvMVd9DQsw2LTfiSwxI6pjq2244zDJi+xT+NYQMOADp3dQ4zj0HcUAZUFiwRQHcvN4Du5LHLMAH0II9jW1palrq9xOz+nuiY+eM/kI1++IREjP+O7/yOWtpBx5b5r0Df4hvi24ADgM5h+r/Y+eOvDKgsqEw4TADdRVlytAF0h4AAeqDHp9atW/dG9AeEe/B35h/PUACxH/+dt9l+thh0jGt9/utfeXcCGnAA0LlM/xcnf/yVAZUFlQkDAugOvgD6V5UIoJ9Yvnz58zakAHgWjwAaV7r/+BI1rBI61rU6n6XWPpigBhwAdE7HZf4B8DLgc8qCZQVQ35+Plgigu5UIoAd4fHzevHkP8NBxDPzx11Yr8WmsIbbjsXf6W6bp4EuoYZXQsdYxr7X5L9P4nOl64dgENd8AoHNa5zb9H/5xeD/KgMqCyoQlAuhuxQHUf/vtaAPoHh57ekwuvNjRM2bMuCOJAyhZyzrj3zfjHetbYADbsKQXNpimwy+lflVGx1zHvlbmv4HN75iuF49PXgMOADq3dY7T/0XeH39lQGXBQiacXMiIe9gOoPt5HPXII4/8IMqFAxhobDfNx1wVr6Ya4jfOOrpM86nXUTtH6NirBomf01IdpvuVcxLcgAOAznGd61GeiwCUAZUFlQkrFUDHlAig40sE0CNuvfXWKyhCZIHMgGk97wbrzS8QQDdfeSd1c4xqkPQ5rXf+NclvwAFA53qk5yIAZUBlwRIBdHyJADqmkgH0sPPPP//zFCGqQOetU603vUAAjc7zxaBaJHU+61/9expzgBpC53xU5yMAZUBlQRsBdEePnbcTQA8dM2bMSd6b2Eohogb0z6qz/twnEEBT9Wsi9NwnqBaqSeIeJdi80HS98GmacoAaQue8zv0IzkkAW5UBlQW3E0B3VpYsJ4Du6gugkzz2LrzYIR4n9vf391GIKAHZrl7TfOLX7Ta7QABNZ0zL336PekUM1US1ScycNtBvumd/oQYbcADQua85IEpzEoCynzJgIQvuV8iGk3wBdNeAAPqR0QTQCb4Aum/hRY/v7OxsoRhRAj742cPWm1wggHbdM51aRRPVJjn7fTbcU8MNOABoDojSnASg7KcMWMiC+/oC6IRyA+jYogA6rkQAPdjjuNbW1lXOr3hls9v+9v+zg9/n2h//1NJ1punQr9KEx5vIj3+trrzp6CupVURRbVSjuM9/2e51puulE2u4+QYAzQGaC+j/8I+Kv7KfMqCyYIkAOq4ogI6tdAA9yONT69evf5uC4R8V/7YLfkYDngCiPv47rrqbOkUc1Sju81/vvP+gAQcAzQX0f/hHxl/ZTxlQWbBaAXSix16+APrJpUuXPuv+gLjHvT/+vY+/RuOdDCI9/vtfW0yNYoJqFdf5L9304rbmEwBAcwL9XyTAX9lPGdAXQJUNJ1YygO7kC6C7+wLoPh4HeHx87ty5v+MbAuf++Kcypvnka2m6k0Gkx3/rOT+gRjFBtYrn/DfAwkMAULwgkeYG+j/n/vgr+ykDFrLgPr4AursvgO40mgD6VyUC6C7bCaBHPfXUUze4PyBuC+7eH/+eR16h4U4OkR3/fS8toD4xQzWL2/yXaXyOhhsAitHcQP/n3B9/L/v9VBlwOwF0lxIB9K9GGkB38AXQ3UoE0P09jrz55puvcH9A3BbYsT/+A1nTcsY3abaTQ2THf9s//JT6xAzVLF7zX9b0zDmPZhsAitHcoDmC/s+pP/7KfsqAyoIlAuhuvgC6Q1EA/f+2F0A/up0Aukdho9HJhRc9/LTTTvu7AIHEDwj83f6+nqfm0mgni0iO//45S6hNTFHt4jL/pZteHq75BADQHEH/59Qff2U/ZcBCFpxcyIZ7bCeAfrREANWfUAF0P4/DPE7KZDIDrtI7QOvffZ8mmyug1mn751uoTUxR7eIyn/W8/s/DNp4AAJojXM1PAMp8yn6FDLhfpQPomBIBdHyJAHqIxwldXV1tFhK2g0vMcbvkjn//rDoa7OQRufGfqltNXWKOahj1+S/T9lZQ8wkAoLmC/teJP/6dnZ2tyn7KgCUC6PgSAXTM6ANoYSuWgAB6XEtLywoeKnbhj3/HNb+kuWYRIuts+dEfqUvMUQ2jPv/11v0wsPEEANBcQf+LvwuU+ZT9AgJoYQuW8gPoroVfOqGw0ejehX1fDvY4Zs2aNXNHfsDsFKD2Xp/Xz37QY5qOvJzmOnlEa/z1p03zMVdRl5ijGmq7psjOf5ke0/XyKYGNJwBA18unas6g/6z66/P6ynzKfoUMuG8hE04qZMTxyowBAfQjQQF07AgC6EEen1q8ePGTbAyLf7Xpmfqq9aYV2Ae078WkbL0CqmVU57/0xmdH2nwCAGjOoP+tuj/+ynzKfsqAIwigYysRQMeVCKAHenxs1qxZv9AbtJXA47DqVfX98W+78Caa6mQSqfG/+T/upiYJof1rd0V2/ut5+8oRN54AAD1v/zv9b9X98VfmU/ZTBiwRQMfZDKD+vUAP8Djqd7/73fXOHgK2kPgLhH49+/74p9c1m6aDLqapTiaRGf8DHV2m6fBLqUlCUC1V06jNf9m+TabrhWNH2ngCAGjO0NxB/1tVf/yV+ZT9lAH9e4DaCKDbVsLVL929KIDu73HkP/3TP30ppKCFbxDc34Nt3x//7vtepqFOLpEZ/71Pv049Eob2DY7a/Jda99iom08AgPT6x+l/q+qP/3nnnfcFZT9lwKIAqow4zrcC7qgCqP6DfmDMcHuBFgdQ316g2STeM22hoMHgz22RBNBI0PHt31KPhKGaRm3+61v0ndE2ngAAmjvof6vmj7+ynm8P0OIAOtweoGN84TMwgH50OwHUvxWLXvxQjxO8fWE2uU/obr/xqJI//tksq5Imm8iM/+bTr6ceCUM1jdr81zXz7FE3ngAAmjvof/Gv1u9T1lPmK2S//f1bsGwngH60/ABaei/Qgz2Oa2xsrHN1z3SUljW2749/esl7NNLJJhLjf+D9VmqRUFTbqMx/Ax+sCN18AgBoDqH/xb8aP6+sp8yn7LedPUCDA6j+bCeAjhlFAP3Uu++++3zECuxkgNj3x7/7t8/TRCebSIz/3sdmU4uE0vPoq5GZ/1JrHwzbeAIAaA6h/62KP/7Kesp8owigY0IH0BHuBfqJ2bNn35uAVaXKfv/2/fHffNntNNHJJhLjv+O6e6hFQlFtozL/9S68NmzjCQCgOYT+tyr++CvrKfONcA/QUgH0IyMNoGNHEEAP8Dj6/vvv/35U9tUp4OShYfv++Defeh1NdLKJxPhv+ZvvUouEotpGZf7rfvXvwzaeAACaQ+h/q+KPv7KeMp+y3wgC6NhKBtBxwwTQI6+88soLIn6JOQH3kOOf7e1P/v6f4H78pzOm6bCk7v8Jqm1uIOt+/hvoK3//TwBgP9BML/2v9f8ff2U9Zb5hAug4uwG09FYsh3ucnMlk8i4Suuvf78euP/7ppetooJOP8/GfWbuJOiSc9Jom5/NfhgWIAKB8NJfQ/+Jv9fcr4ynrKfMNvwdo+QG09F6gwwfQQz1O9JbnbQ0hGJmEH/2HnvHvffZNmufk43z8981cRB0Sjmrsev5LN71I8wwA5aK5hP7Xqj/+ynjKesp8wwfQYfcADQ6gIfcCPcTjuI0bNy6qtLCN/27zGwy7/vh33vk0zXPycT7+u3/3Z+qQcFRj1/Nff8NvaJ4BoFw0l9D/WvXHf8OGDYuU9ZT5wu8BGhxAw+wFekx9ff20YgEXq1C5/IbBrj/+Hdf+muY5+Tgf/1u+/wfqkHBUY9fzX2/dD2ieAaBseut+SP9r1R9/ZTxlvVB7gIYIoP69QHfeTgA9yOPjzz333M8dfKMQqW8o7Prj3/6V/7bemAKr4LZf+nPqkHBUY9fzX+/8q2meAaBcNJfQ/1r1x18ZT1lPmW87AXTnMHuA6s9HQu4FeqDHUTfeeOMVFu+JtvMQbngCfGz449963g00z8nH+fhvu/Am6pBwVGPX81/Pm5fQPANAuWguof+16o//DTfccLmynjJf+D1AgwNomK1Yjthzzz3P9MSGLCV25wPA/b49+Lee+0Oa5+TjfPy3fv7H1CHhqMau57+euRfSPANAuWguof+16Y//kDKest7It2CxF0D9K+HqzRxWWAm3LXxBHBTAwu+3549/8+nX0zwnH+fjv+Wsb1OHhKMau57/ul/9HM0zAJSL5hL6X2v++Hd1dbUp4xWy3gH+FXDtB9DgrVgO8fh0Y2NjXdABCH+JOx4Ft+ePf/OxV9M8Jx/n47/5hP+kDgln0/HXOJ//umeeTfMMAOWiuYT+15Y//loBt04ZT1kveAuWsAF05FuxTCyxFcsxixcvfsbtqk3RH0Dhwb/p8EtpnpOP8/G/6agrqEPCUY1dz39dL55A8wwA5aK5hP7Xmj/+ynbKeCW2YJkYbguWEAE0YCXcTzz//PP/E75g9r8RiPLrBYM/ATTxqMauxyN1qBEcz3+VCqAAQACl/7Xmj7+ynTJewAq45QfQUFuxFFbCvemmm660veyx858P8LPnjz+34CYe1dj1+KcONYLj+Y9bcGuN/5+994CSozrT/v//7xNYBGOQjEQ0IJQjKBHliHHY5HzOmmT7W4OTnIi7H2bJ4AzrSLDJGZYgBELIBIEREhIGBRaU0GikGaXunu6e6ZmRDfXVw6nh3O2dqZlRTfW9dftX5zwHDhJT/at76859+n3v+yKUYgou+1/40/r78nZGBdwkLVjiDegutmI5NNTogw466MTwA/+1JlWg4pX051vIMYefIkRIY2x5/jMOdSLb6x9FiBBCA1WEiP0v/Cnxd1XAHS2v198WLPE9QA0DmqgVS1QJd/v27Y0OTIAUBsT2/eD3vw0L0hjbnv+MQ13I9vpHG5aBEkK0YWH/m8rngV+ezqyAm7wFSwIDGlMJd0Soo9auXftcTEi3Bg/c/s9Lhx/+5s/+Oxtnv6UxrsV8xYAi6+tfy3OnJd14IoSQ1hL2v6n8PPjl6eTt5PFiKuAOuAGVdqsuRBRjQA8PNen555+/KQFwzXOssxOyh7/5lCvZOHuuLadeVZP5TxEiZHv9Ky76BptnhFBitbxwFvvfVPjhX7hw4U3ydvJ4fWjB8h7DgP7vfhrQvrdi6aES7rjrr7/+HB9zvu3fD/5ts3/FxtlzaYxtz3/GoT5ke/0rLr2AzTNCKKm0lrD/TeXzwC9PJ2/XQwXc5C1YejGgu1Ub0JhKuKNnzpz5ifCDvx0LaN/h27of/An4cz+/j42z58r94v6azEdScJHt9a/8X79l84wQSiqtJex/B/zzwN/Z2fm2PJ28nTxeH1uw7JbcgPa/Eq4+3MhQM/P5/DYHv4GwoIHkh7/40PNsnD1X6eE/12T+k4KLbK9/bRsfY/OMEEoqrSXsfwecH355OXm6yNt9IFEFXElXipVwR4Q6ev369S9ZDkG7+g0G/An4215d6/mmGGmMazH/acOCrK9/uVVsnhFCSaW1hP3vgPPDLy8nTydvl2YF3IGqhHtEqMlLliy5y37VKu7v2/07iuWg4bBTPN0QI42txrgW848zoMj2+tfZXgpyc6bs6qYTIYS0hmgtYf854Pfn/vJy8nTydilUwE2lEu7422+//aIEjj7DIXnjfgPND7/y0YPGY2d7uiFGGluNcy3mPym4yPb6p/+ef/ITu7rxRAghrSFaS9j/Dvj/D7+8nDxdChVwU6uEO/ZLX/rSZ+xXeXI/ZA9//z/b1q/8xNMNMdr61Z9qjGsy/4mAItvrn/7Z8uJ3dnnjiRBCWkPY/8KfBv8XvvCFf5KnS6ECbmqVcEeFmtkSXlkMcddggOFPwF/43SOeboiRxrZW85kzoMiF9a919c27vPFECKHWNbew/x3wvw+/PFxUgGhUChVwU6mEe2ioI0NN3bBhw18EYUG2JlANBH/lFV8LESGNba3mPym4yIn1NP/aLm88EUJIawj7X/gH+vO++eabf5GXizzdoelWwDUNaP8r4Q5714BGhYgWL158Z3LHn+DP7U+oFPjg7wzVOPlMzzbDSGO6s7OzZvOfPqDIhfVv586dQf6JD/V304kQQlo7VBuD/e+A88MvD2cUIOoyoMN2sQKupCtxJdw9eqmEe1ioCX/84x/PE4THsvCNCPxabLd8/RdsoD2TxlRjW6N5SwQUObH+ac4Xl/yQzTRCqN/S2pHG7032v/DLw8nLydP1UgF3j+QVcOPTcHfrSyEiw4COmTx58sdCiLfsN2r1KaQPvxbbwh8eZwPtmTSmGlsH5n/NmBEpuJrzbevuYjONEOqvtHakYUDZ/8L/ljycvJxhQPtSgGi3+PTbJJVw+16IaGSomdu3b9/ENxYDLvjXN9EP1LP+nxpTR+Y/Y0IRopqqs7yJfqAIof73/yxvYv874Pzwy7tFBYhGxhQgSlABN71CRB+IDq0e/frrrz9tfwL41icIfn3j1/z5S9hE+yGNZa3TiDgDipxZ/3QOtOXP/8KmGiHUV2nN0O9N9r8D/nngl3eTh4u83AdqUYAoaSGi4VWFiCbNnz//11krU+z+oWX4tei23L6ATbQn0lhqTB2Z/zXiRqTgGmm4Gx5kU40Q6qu0ZmjtYP874Pzwy7vJw1UVIBqeagEi4+rdgMYXIjo81LgLL7zw/wysY0coMqG5YtAw+itspDMujaHGssbfAmJAkVPr2c72YpB77Fg21gihXqW1QmtGGr83EZJ3k4eTl4spQNRXA6orgQHtvRCRPtT+VZVwR++2227Htra2VtzPec5ajjj8Slvb+o1r2EhnXBpDjaVD859xqQ85tf7pHSguvYDNNUKoN2mt0JrB/nfA+eGXZ5N3k4erqoArjze09wJE8Qa0loWIpm/atOm1NEPMmVJyfviNtLXy/KVspDMujaF+kdZ4/hMBRU6tf1rPKs3Ps7lGCPUmrRWp1E1g/wu/PJu8W+oFiGpQiOiopUuXPpjGQ0Kk4cq4bP7YuWymMyqNncbQwi8YDChycj0rPPNFNtgIoR6lNSKt35sIybPJu6VegKgGhYgm3HTTTT9iUFFqaWv3PctmOqPS2EXRz1oLA4qcXM8qjfPYZCOEepTWiLR+byIkzybvZqsAUWRAExciOizU2EmTJp0UQv2tViFsz/sEwV+VtrazozPYdML32FBnTBozjZ3G0ML85Awocm79e2c929kZFJ76JzbaCKFqaW3QGqG1gv0v/Gnw/02eTd5NHi5xASJJV+qFiIxzoIYBHRVqZnNz85tpDQgiCtpy25NsqDMmjZnFb3GJgCJn17NKw8NsthFC1dLaQPQTpSZ5NXk2eTfDgBrnPxMUILJQiOjIUEe/8sorjzK4KLWoQVt70DjzO2yqMyKNlcZMY4cBRRjQ6ihoR5Bf8OmuTSdCCGlN0NqQ2u9NhOTV5Nnk3VItQFSDQkSHhhoRauIdd9xxKYOL0izeUbzrKTbV2ZDGynYRBQwocno9qzQ+1rXxRAghrQmp/t5ESF5Nni3ybodaKECUqBCReQ700KiJ6bgTTjjhUyHcWwwwSi9qsDNo/tzFbKwdl8ZIY2X5W1wMKHJ+PSu+cCYbb4SQ1oK0f28i9Ja8mjxb5N0ONc9/JihAlJoBjdJwYwsRjQp1zLZt2xq7g65UKl3/lMz/Fq/k/78Tgj85f1dBorbl64KGEaexuXZUGpvKivXmt7i25j8GFDm7/knvbDZb1gW5udPZgCNUx9IaoLUg+r3J/g/+VPjl0eTV5NliCxBF6bcpGNBE50D37eEc6MhQR69YseKJtAcTEQXdcfGtbK4dlcbGkW9xMaAoE+tZ63/9mk04QnUsrQFEP1HakkeLzn+O7OH8576Jzn+mcA5UH2JPsxCRcQ60y4COCDXpgQceuJJvLOBPzh9/dqqzUAoap3+LDbZj0phobKLy8bbnPwYUObv+mevZzo7Wei5IhBCFhzpaUz/7yf4Xfnk0eTV5ti4Dapz/NAsQ7WkY0N0sGtCqc6BVhYjMc6Cf+tSn/iF8gd7O+gRyVPAbUYPy/KVBw2GnsMl2RBoLjUn0La7z858xqw8Z4+/0eta+dXGQm3M0G3KE6kh65/XuJ/+9yf43nh9+eTN5tKrzn9UFiPZJXoAoxUJEMedAR4c6ZseOHZtjJ4CFCVODz1PD+8GvxVrKXX47m2xHpLGIxiUT858xqw+5v/4ZX6q9fh2bcoTqSHrno/ef/R/8qfJv3759c3T+c3TM+c9aFSAyrngD2vs5UMFE50BXrlw5j28w4E+N30xda+8Imj5zERtty9IYaCyiFCJn5j8puChLbaak4qJvsjFHqA6kdz1677UGsP+DP1V+eTPj/OdhfTn/GWtAjauWhYje120hoqgf6K233nqJzxPWwv3gj4kadGzcGjROPpPNtiXp2WsMNB6SQ/MfA4oysf6Z61ln67YgP/8kjzfeCCG943rXo9Rb9n+pfx745c2M/p/dFSB6X4ICRDU7B/q+uHOgEydO/HgI/1efQ+z2Jyz8Zipuad4SzoNaOvepZx+NQ6bmP+NXF8rU+vfue7R1SZB7dKqHG2+EkN7typbFXe87+7/Ufz788mTyZr2c/3xfgvOfNT0Hul8350AFNTrUzM2bN78R80AylyMe/+e2fh78Zupa4Ya5bLhrLD1zM4XIsflPBBRlav0z17NKw8NBbs4UjzbeCCG9020bHjIjn+z/4E+dv6mp6Q15s8ijHd7N+c/9LJ3/jDegMedAhxppuIcY50CPWrx48T3kgMOfNr+ZuiblrrqLTXeNpGetZx6fQsQZUGRXWazy/W5/0NU3e7T5RgjpnTZ/b7L/g78W/PJk8mbG+c9DjPTbof0//ynpcusc6BGhJvzkJz+Z7eAA1uLPLQh+04RuO/v3bLxTlp5x9AtUyuT8ZxzrQplc/8z1rLzqlx5svBFCepdN88n+D/5a8cuTyZvJo9X0/KeFc6BjBw0adHyxWGx1Nac7+QRy6efBL71riNo7gi1f/Smb75SkZ7uz490NssvznzOgKLPrn/kFT+nli9jAI5Rh6R3WOx2J/R/8NeMplUqt8mTyZlbOf1o4Bzp93bp1S2vwjYL338jEC37z/NS76WvltrRMKOaz3Gae+3R5/pOCi7K6/knGhrUj3MD+iI08QhmU3l29w9H+RL832f/BXzN+eTF5MnfOfyY/B7pPzDnQI0NNmT9//u8TDJpPIXv4LfTTU5SOdNyBTbtVdDlKD8zCLwAMKMr0+meuZ1LrqmvY0COUIemdNd9hvdPs/+CvpeTF5MnkzWLOf+5jpt/aNaDJz4GOP/PMM7/c0wCZ6n+I2ZT7Vbbgry1/FAl9N4VtxxV3sBFPqNyVd1b/Es38/Gdc60KZX/+q17PWtbcFuTlHsblHyGHpHdW7qvfW/NKW/R/8teaXF5MnG8Dzn5Iud8+Bhjo2l8ttyVBVKU++8YA/WvDNFi30Cd3FPp9RqxVzE+zF/Gd860M+rH/VkdBK42NB7tFpbPQRclB6N/WO2o58sv+FXx5MXszB85/xBjThOdBRoaYuX778sXgHn/wbDfcPNcNvg980ofr30rwlQePkM/u4cUV6VnpmpvGUsjT/MaDIj/Wv6oy7TOjWpUH+yZPZ8CPkkPROtm9bpvfUNJ/s/+C3wi8PJi8mT5bw/Ge8AXWsH+iRoSZdf/3159e8qpSFqlQOVdWCPyYdt2Pj1qDpMxfFb1qRnpGelWng9SwzN/6k4CKf1r/qSGhnWy5oeXE2G3+EHJDexY7WHWbGkN5Z9n/wW+P//e9/f768mDyZ1f6fFs6Bjnvve997YqlUqqR7qDf5349X8hcAfmv8xqYtUntHsOOy23pIySXlVs+ms/JuQ3zTfGZu/GnDgnxb/6rXM6l1za0WU3IRIuVW76Dexeozn+z/4LfFXy6XK/Jg8mLWz39aOAc6OtSMtWvXLnEth9viNy7wW+A3I6FdKs9fGjRO/xab9Eh6Fnomek7V3+BmdfyJgCJ/1r/49axjx6tB4al/whAgVEPpnWvf/op5TKXLfLL/g98qv7yXPJi8mLvnP5OfA923m3Ogh4UaGeqohx9++Jr+5kRHf+bthITfBn8U1TPPNBZKwY6Lbw0aRpxWtxt0sesZ6FnouVSf98zy+HMGFPm8/lWvZzs7K0HrGzcGuceOxRwglKL0juld0zun98/83cn+D34X+OfMmXONPFjkxQ7r5vznvg6d/4w5ByrFnAPtIQ13RKjxJ5988t+HD+OtJAPk2qHh5J8Xflv81Zs2qbJifdD8uYvrbnMu5rbl6/Qsqosm+DD+pOAiH9e/+PVMKm8Kikt+gFFAKAXp3eooNeqdq84WYv/nCj/8b8l7Re1XRvSQfht3/vN/x5//tHMOdLeYc6BmGm7XOdAxoY5pampaq4div++P/ZQA+/zwm+eoTBXveiponPkd3zflYhSryW6az7qY/5izulA9rH+SYUCNdklNC4PC05/DNCQXQnqX9E7p3YpJuWX/Z58ffnkueS95sK7zn2b6bcz5z90Snf+0cA50n5hzoKNCHf3nP//5rgFw/J58o2GfH/4eUthkwtrag8Kt84NNJ3zPu824mMTW2VoRbzV/XY0/5qwuVA/rX+x6JlU2PRm0LPwyJgKh/kvvjt4hvUvV0nvG/s85fvjlueS95MFizn/uk+T8p812LIONKGjcOdARoSZeeOGFX3d4gGMmaAo52vb54Y9p1fKu2juClnufCTZ/7NzMb8LFULzvWTGJLSbl1qvx5wwoqrv1z4yGVqcIVpqfDwrPfxVT0bsQ0ruid0bvjymzNRn7Pyf54ZfnkveSB4s7/2lEPwfHtF+xb0ATtGMZG+r4fD6/w/1vNGLl8Tc68FdXlayumLv1G9cEDaO/kpmNtz6rPnN1Zduqf/d5/DGgqG7XP/OYQfU73xFW7Sy9clmQnzcLo4GQIb0Tejc6osq2McdU2P85yQ9/oVDYIc8l75Wg/YpTBjRpO5Zpr7zyyryqB5XCBHL7GxG3+eHXL5Zqk2aqY0dLULjtyaD585c42UdUn0mfTZ+xM1esZjE3pGKt6/HHnNWF6n39q3r/qwxpR1tQaZwfFBd/nz6idS36eOodaFeabed/f2eqxP7PeX745bXkuRK3X4kxoC62Y9kvph3L5GuvvfacjFTBilHyQ8Pu88NvpuX2pPb1TUHhD48HW77+i6Bx8pnWNti6tz6DPktl3eZuN5zVxpPxx4DWiVj/ulnPusuI6GjdEVQaHg5KL18Y5J/8JMYEeS3Ncc31tg0PBZ1tubjf90a6Lfs/9/nhl9eS54ppv7Kf1fYryc+B9r8dy6BBg04IQ8MtyR94kgG3P0Gyww+/kZobv4EL1faXNUHhd48EW7/yk6Dx2NmpREj1M/Wzt5zxY91L9ww6jahtXyOejH99GlBScJn/HX1cLzpLDUHr+vuC4tILgvxT/0iENNMiwqk5rLmsOd1R3BA3/822Kuz/MsUPvzyWvJbRfuWwfrZfiT//6Uga7u79bMcyOtT0lStX/snFEH2kmoTks8cPf2REe5cZUSiWg0rYY7P00PNB7uf3Bdtm/yrYcspVQdNnLgo2f/z8oPH47waNU84KGkaeLunf9d/0Z/o7QfOXr9T/o/83KD74XND26lr9zHhDHHPGk/EnAkoElPkfY0TjN+SdYSS1sDaobH4qaF19U1D6y8VBy6JvBi3PnxEUnvlSkF/wd0Fu3oeD3GPH1MRUIKS5ln/iI5p7moOai5qTmpuao5qrQWfLOs1dM6IZl2Ir6d1g/5NJfviXL1/+J3ktea5+tl/ZPUH6rXPtWIaZ50C70nCvu+66f4t5oBZC3BYmUKb54Y82bn3/hRav2JTZPv588+8YppPx5wwoYv7H/3m0pvVrPZJcXf9ivpCL+3l1zg9/lGLL/ifT/PDfcMMN/2ak35rnP4fZbb9ivx3L+D322OPEYrFYThaStj8hk35+D/jhrzKkSX4BJvzz/lflY/wxZ1TBZf2LX89qsH4l+HMLhswjfvjNaCfvvwf88Le0tJTlseS1LLRfcbwdS5SG+9prry3saaBrPGDWJqQH/PAnMKQx6vMv3ERluxl/zBlnQFn/LBjSGLlqWDzgh9/4opb330t++OWtjPRbC+1XXG7HEqXh3nLLLRcnCGlnrRFujHznhz/awPV23qq7dKDqynv952f8ScFFzP+B4I9f0xKm8CZPuYyUzLAk/3kW+OHv4QynYTZ5/+uDH355KyP91k77FfvtWOLTcN///vd/pFQqVRz5RiGJLH/jAT/88McIA4qY/17zww8//PDDL08lb9Vb+q299iv227EoJDw21MzVq1e/YDPEHslaFS27KQbwww8/5qwuxPz3mh9++OGHH/41a9a8IG8lj2Wk39psv2IhDVdw8Wm4o0Idddddd11Rg5xsp8s6ww+/PX74MWd1Iea/1/zwww8//PDfeeedl8tbyWP1kn773rj02+wY0Pg03P16SMM9MtSEAw444CPlcrkt2QSxP+GTTtjU+OGHH36KECHmv7f88MMPP/zwF4vFNnkqeSt5rB7Sb/frd/qtpMujNNwRocaEmrFq1apnLYe4E9zP8b5H8MMPP21YEPPfW3744YcffvhDL/WMPFXkrUZYSL+1GgWNa8dSnYZ7RBQinvLb3/72fAuHkhNMsNoJfvjhT8xPCi5i/nvLDz/88MMPv7yUPFXkrY6oTr+Nb79iP/ppJQ130KBBJxTCy+kJWoMy0Knwww8//KTgIua/l/zwww8//PDLQ8lLeZV+m6AdS3/ScKe//PLLjzn1jYaFHO5U+OGHH34MKGL+e8kPP/zwww+/PJS8VH/Sbx1pv5L8HGjCNNzJl1xyybc9nLD2v+GBH374ScFFzH8v+eGHH3744ZeHkpdKkn6b4Pyno+1Y4tNwD49CxeNDHb99+/Zm2znVvstkhh9++DGgdSLmv3f88MMPP/zwyzvJQ0Ve6kh5q7j0W6vtVyyk4Qp6Xz2EmDTcaS+++OL9jpZVTvDnlnnghx9+UnAR8987fvjhhx9++BctWnS/PFRM+u3QyIPtkyD91ts03JGhJn3rW9863WJfoBrIQl8k+OGHnwgoYv57xw8//PDDD7+8kzyUvJQ36bcW0nCPa25ufjPBAHtRZWtA+eGHH37OgCLmv1f88MMPP/zwyzPJO3mQfluDarjxabhTFyxYcKMrE9b/HHT44Ycfc1YXYv57xQ8//PDDD788k7xTXPptDarfepGGO/G44477+7a2tp0WcrKdnMDwww9/Yn7OgCLmvy/88MMPP/zwSzvlmeSdvEm/tZCGe1gUOh4X6pjVq1cv9qRqlv1vgOCHH35ScBHz3xt++OGHH3745ZXkmSLvJA91mA/pt8kNaHwa7pBu0nDl3EeHOur666+/iDLP8MMPPwYUDZCY/97www8//PDDL68kzxR5pyO6Sb8dsovpt5KuuknDPbwrDXfQoEGz8uFlv+yxfcEPP/yJ+amCi5j/XvDDDz/88MMvjySvZKTfHu5x+m2CKGjf03BHhBobavpLL730YIYmhLvfEMEPP/xEQBHz3wt++OGHH3745ZHklSLPNKLP6bcJop/+p+FGPUHPOuus08OBeTvphEEIIQwoYq4jhBDKuuSN5JHM3p/+p98mT8Pd00jD3a+7NFyjGNGxmzZtWk2Oe0LBDz/8GFDE/M88P/zwww8//KE3ekMeySg+1F367X5G+u2eCdJvvUzD3TcmDXd0qKkPP/zwr5nw8MMPf0J+DChi/meeH3744YcffnmjqPfn6Jj02339Sb9NbkDf08803Iljx449uVwut9P4NsH94IcffvqAIuZ/pvnhhx9++OGXJ5I3kkfqZ/rtexIYUO96gvaWhjs21MyVK1c+Tc43QogUXMQZUIQQQvUqeSJ5I3mk3tNvk/T+JA13ysUXX/wtJh1CCAOKMKAIIYTqVfJE8kak3yZLwzV7gu5vREHNNNwJoY5vbm5ez8RDCGFAEQYUIYRQvSn0QuvkieSNzPRbI/q5f0zvzwQG1M803H260nDNKKiRhjsm1DQduGXyIYQwoAgDihBCqN4UFR+aJm/UlX5rRj+N9Nt9/E+/TdoT1EjD7aEY0ahQkz7wgQ+cVCwWWwdiANva2rr+KZn/Lbnc/zzwww+/eT8MaL2I+Z9Jfvjhhx9++OWB5IWi3p+jeig+ZKTf+t37M2lP0Oo03LhiRDNeeeWVeQkG2vMJDT/88BMBRTGyPv93PDK57pR7dFqQe3xWkH/yk0H+qc8GhYWnBoU/nxm0vHReUFz166C8YU7Qtm15UCnnWf/ghx9++HuQPJC8UGzxofj02wS9P/1Pw40tRjR79uyvheWK387YBEUIYUARKbgxRg3l5kwJTerJQeGFbwWl128MTekr4TNrY31CCNW95H3kgXovPpRG+i09QceHOq6hoeF1vqGBH374k/NjQOtN5vhjQN1X7vETg5YXvxeUV98WtOXXsv7VJT/88MMv7yMPJC9E78+kabj97wk6JtTUe+6556dMWPjhh58IKOqnrM7/5AaUCGnhudOD8tp7gkp5O+tf3fDDDz/88j7yQPJC/en96UH6rZWeoFEUNErDjYoR7b333h/O5/NFDyZw7V4A+OGHHwOKrM9/jOTAKDd3RtCy+IdBa+OfWP+85ocffvjleeR9jOJDUfptFP3sZ+9PDGj/ixGNDDUu1IxFixbdr4HpZcA9eEFi7tcffvjhh58quMj2/Mc8pqD8n/4pKK//z3AMyqx/3vHDDz/88jzyPpEHGhlXfIj02/SKEcn5Tz755JM/Ew5KJyF++OGHnwgooggRyi/4VFBee3dQaSux/nnBDz/88MvryPPI+8gDUXworZ6gfS9GdOyKFSuesj9BMvJCwQ8//BhQZGH+19qAovz8k4LS2ntZ/zLPDz/88MvryPP0v/iQmX6LAY3tCdrPYkRHqRxxODhv2wjRW/p5CX4+/PDDTxVcZHn+19CIocLC04K27StY/7LKDz/88He1Xjmqn8WHYnt/JjOgFCOaEOq4devW/YWQPfzww08EFJGCi6qVe3RqUHz1qqBS3sH6Bz/88GdK8jhR65UJ9osPUYzIjIIefc0115yb4BsGX14o+OGHnwgoog8o6kG5Jz4WlDcuYP3LDD/88MMvjyOvY0Q/HSk+RDGiiaFOaG5uXu9azne2cujhhx9+zFldyOr8t29A6SNaXP6ToNJWZv1zmh9++OGXt5HHkddxr/gQxYjGhpqu5qzmoBmyUGbZ2jc88fzwww8/KbjIwvx3z4ByNvTUoK2wgfXPWX744Ydf3kYeR17HfvEhihEdWJWGOzrU5MGDB384l8vtcL/KlcUcd/jhh58+oMj6/McAuqHc4yeGKbnzWf+c44cffvh3hJe8TdR6ZXRV+u2BFB+qYTGimCjouFDTFyxYcFPMhLD+jUv8z6vBNzzwww8/EVBke/47ZsRIyS29cTPrn1P88MMP//z582+Kop/jYqKf6RcfohhRTEuWKAo6ZsyYT7a0tLT1dYDjlb0cdFP954cffvgxZ3Uh6/Mf4+eeist/zvrvBD/88MNfLBbb5GmM6GdM65W0iw9RjGjfXooRjQ91zJIlS+YknAg2vuGpjeCHH34ioMj6/MfwuanisgvDMWpl/bfKDz/88MvLyNPI2/RSfGhfig/VriXL/t1EQUdG5YmnfPazn/1ia2vrX2uQ422pcW6CP4cffvipgousz3/MnrsqLPp20FYusP7DDz/8VvjlYeRl5GkibzOym+jn/im0XqEYUYKWLBNCHbdq1arnbHxDkzzEb/MbGPjhh78uDBiyPv/dN2KYUEVCWf/hhx/+WvO/9tprz8nLyNMkaL1C8SELLVmOPu+8874RDuLb0QDXLATvdCNe+OGHnxRcJFmf/+6bMNSy9P+y/sMPP/w15W9vb39bHkZepkatVzCgCVqyHFJVjGhiqOPffPPNldGAOjhhLVTZgh9++GnDgiTr8x+Dlw2VVvyC9R9++OGvGf+GDRtWysPIy1QVHzokQeuVagOKAU2pJcvYUNN+85vf/ChRFawUJrz1nHj44YefKrjI+vzH3GVHxddvYv2HH374a8Iv7yIPIy+TUusViSvFliyTQs1qbm5ujJkgjpeNTuGFhR9++EnBRbbnP8YuY31CWxufZP2HH374U+XfsmXLRnkXeZhatF7BgCZvyVIdBR0VNW2d/uCDD/5Hkglaoz5DCSd0P/jghx9+UnCR9fmPscuWco+fGLTm32T9hx9++FPjl2eRd4k8zKjq6GeC1isY0BRassRFQScPHTr0o/nwcizn3M4LDD/88FMFF0nW5z+mLnsqLDw1aGstsf7DDz/8A84vryLPIu8SF/3MRusVWrKMDzVjwYIFN9XqULLTIX/44YefPqBIsj7/MXTZVHH5T1j/4Ycf/gH//+VV5FnkXWi94nZLFjMKun9cFPSggw46qVAo5BPkoKeQ8+3iNzzwww9/XRgwZHv+Y+YyfB60vHEB6z/88MM/YPyKfsqr9BL93N+Iftag9QoGdECioI8//vgNDofoa/OCwA8//KTgIsn6/MfMZVe5Jz4WVMo7WP/hhx/+AeGXR0kh+okBTTkKum+oITEtWcaEmqK86lwutyPphI7kaQ49/PDDXxcGDNmc/x4YUFR89SrW/8T88MMPv7xJdPZzijxLTOuVIfI8dqKfREHNYkRRFNRsyRIfBZ0zZ85vk08waznoNei7BD/88NeFAUM2578HBhTlHp0atG1fwfqfiB9++OGXN+kt+mm2XjGin2bxoeTRTwxov6Og+/Q1Crr33nt/ZPv27VvTDOn3XfZ/Hvzww1+nEVBkff77YMKoinvaLo8/6z/88MMvTyJv0o/o5z59j35iQNNsybKnQtFVUdDhcVHQBx54wOgLGiNLjXLtpgjADz/8dWHAkPX574cJQ6W197L+ww8//LvEL0/SS/RzeFX0U55nT/utV4iCmsWI9g01tLco6KBBgz60devWZh+reCX/+/DDD39dGDBkff77YcBQfv5JQVtrsV/jz/oPP/zwb9u2rVmepA/Rz6HyOGbxIaKfbkRB96qOgsa0ZBkfavrdd9/9s3QmtPtVu+L/HH744a8LA4asz39/TBgqrbmL9R9++OHvF7+8iDyJvElM65Xq6Ode9qOfREHfs6tR0FAfampq2lSLkLsFJXiB4Icf/rowYMj6/PfHgKH8gk+F497ap/Fn/YcffvjlQeRFEkQ/35PR6CdR0Ntuu+1qG2WdIznadwl++OGvCwOGrM9/v0wYKq//T9b/PvHDDz/88iB9jH4OcSX6iQHtexR0WC9R0A+G30BsSD7BrVbxSv734Ycf/kQRUEQbFiKgqPDUZ1j/4Ycf/l455T3kQXqJfg7re/QTA+pSFHRIH6KgM2688cbLbIf87ee8ww8//HVnQJH1+e+fCUOtjX9i/Y+9H/zww3/DDTdcKg9C9LN+o6CTQ83atGnTugQhe+eqaiX7/+GHH/66MGDI+vz3z4ChlsU/ZP2HH374u1UU/Vwn7yEP4n70EwOaahT017/+9UWaFA7KQtUu+OGHH3NGBLQW8s+AodzcGUFbaRvrP/zww9+tfvWrX/17DaKfUhYuoqAbN258I4M59Cn8//DDD399GDCUzvynDygtWe7+H+PP+g8//PDLaxD9/G8XUdCf/exnFySvcpV8AttfEOCHH/66MGDI+vz304ChwnOns/7DDz/8/0PyGkQ//8dFFHTDhg2rXAvh1/7zwA8//PVhwFAa840UXJSbMyVoza1l/X9X8MMPvzwG0c/uLqKg06666qqzLXwjk0QpHLqGH37468OAobTmP1VwUWn1raz/8MMP/7v/vOKKK86W1yD62d1FFPTE9evXv8Khavjh956fIkTI+vz314Chlhe/F7D+ww8//JK8hTwG0c8eL6Kg3/72t/+ltbX1b7YPXad6f+7P/bk/Z0CR9fnnrwFDucdPDMe4rb7XX+7P/bm/9Dd5iwTRz8FEP/2Pgk4KdcKyZcvmxUw4n+T/N27ww88ZUMQZUGRBrVv/wvoPP/x1zr906dJ58hbyGEQ/e7qIgo4NdfT06dP/sVAolNOZwB4cqoYffg/4ScFFac43IqCo9PqNrP/ww1/H/PIS8hTyFvIYnP0kCrp/TBR0Yqhj586de4O/3/IghDCgKM05RAQUFV74Vh2vowgheQl5CnmLmOjn/kQ/6yMKul9MFHRU9A3FlMGDB3+kqalpk/spAPa/gYIffr/4MaCcAU0uDCjKP3ky6z/88NcpvzyEvIQ8ReQtRsVEP/cj+qmLKOiEUDOuueaaC8mZhx9+P/mJgKK05z8GlH6gbaUc6z/88NchvzyEvIQ8BdHP7i6ioAeGOiTUYaFGmFHQULPWrl37cjSh7E9o7s/9uT9FiBBFiFCGChG9WmfrL/fn/tx/zZo1y+QhqqKfIyKvcYi8B9HP7i+ioFFblq997WtfaW1t3VmDiY8QIgKKOAPqkVDpzUfqaO1ECMkzyDsYbVeIfnZ7EQUdFhMFnRzq+MWLF88hhQF++D3ix4AiDCiqgYqrfs36Dz/8dcQvzyDvIA8RE/0cRvSzvqOgQ6qjoFVtWcaFOnrChAn/kM/niywI8Hsi+EnBRaTgohqosORc1n/44a8TfnkFeQZ5B3mIqrYr1dHPIUQ/4y6ioBNDHfPQQw/9jgUBfvg94ScCioiAohqo8Oevs/7DD3+d8MsryDPIOxD9JApqmtCuKOhePURBzbYsZhT0qEGDBn0oLKm8wYlJjhDCgCIMqPNChYWn1MGaiRCSR5BXkGcwo59m25Ueop97GdHP3Yl++hwFjVJxjSjo0B6ioGZblplXX331BZVK5e1uDhx3/VMy/5uTSv554Yffb/76MGAo7fmPAUX5pz7L+g8//H7zS2/LI8grmG1Xeoh+DjWin1HqLdFPb6KgMSZ0cFUqrhkFHR4TBZ0S6sTXX399se0XCCFEBBQRAXVfKP/kJz1fLxFC8gbyCPIKMdHP4Wb0syr1dnCM+ST66WkUdB8zChrTlmVCqGlf/vKXTyuXy50JJytCCAOKMKCeC+Uen+XxWokQkif40pe+dGrUdmVCTNsVM/q5D9FPoqBdBYmGhHp/N1HQ6rYsJ7zwwgsPJpywCCEMKMKAei6Ue3Sax2slQkieQN6gm7Yr1dHP90de431EP+svCirtHtOWZWio/XuMgkZtWY488shP7dixo+B+jn3ynxf/9+GH30/+jWO+6rf5Qhpj6/Nf5gST5r8BZf2HH34/+XO5XEGeoKvtSkz0U95iaEzbFXmTQfUR/SQVd3BMW5bhMW1ZJoU65p577rnWz29zEEIbp37DbwOGNMbW51l+3gcxaaTgIoQyKnkBeQJ5g5i2K8Nj2q4MJvW2HgyoYUJjoqBDzChoT21ZQn2woaFhjfGNiLdVw+I/P/zw+8e/adYP/DZgSGNsff6rQI3/JowiRKz/8MPvH788gLxATNsVM/o5JCb6aZrPejGgFCSKiYIO6y4KahQkmvGd73znzHAS7rT/wtv/+fDD7xP/5k/9q98GDGmMrc//wtOf89yAIY0x6z/88PvFr72/PIC8gFF4qLvo57CY6CeFh3QRBe1nW5aoINFzzz13rzMvePz9avN54IffA/6mz1/itwFDGmPr87Gw8FTPDRjSGLP+ww+/X/za+xuFh/rVdoXoZ18v2rIc2ENBovGhjh46dOhJW7Zs2ex+SoEnCxr88NdAzadf7bkBQ1vO+LH1+d/ywlmeGzCkMWb9hx9+f/i159feXx5AXqCHwkMH0nYl/iIK2r+2LNUFiSaGmnnZZZedHU7KtxK8sLF/HqkWOffJFxT44feAf9u51/ltwJDG2Pr8b3npPM8NGCouPZ/1H374/eF/S3t+7f3lAaoLD/W/7QrRT6Kg/WzLYqTiTgl1wrJly56onrDZzJHn/tyf++d/94jfBgxpjK3Pv9KqX3tuwFDptd94sv5yf+7P/bXXj1Jvp3Sl3iZou0L00/Or2oDuSluWYTFtWcaHmjZ69OhP58IrfvIm/4bH+T5K8MPvAX9x3hK/DRjSGNuf/w2P+m3AkMaY9R9++D3g1x5fe33t+bX3j2m7MmxX2q5ImM8eLtqy9FCQKOoNet11113qQdWyZAsE/PB7wN/6RoPfBgxpjO3P/23L/TZgSGPM+g8//B7wa4/f1fMzpvAQbVe4Erdl2duIgg41o6DdFiSKeoO+9tprixJM8DRz5mv2AmedH37429sqQcORp3tqvpDGttLaZn3+V8r5IDdniqfmC2ls21sLrP8Z54cffu3tjZ6f3RUeMqOfQ43o5960XenPRUGiPftQkOjwbgoSTfvwhz/8hUKhUPa5z1Lyvw8//G7zS5s+cranBgxpbCuVivX5397eHuSfPNlPA4Y0tppnrP8Z5ocffu3ptbfXHr+bwkOH96Hw0J4UHurzRRR0FwsSTQ517D333PMfSV9IC98o1awMN/zwu86vTeO27/7aTwOGNLYaZ+vzX/9sWfQtTw0Yaln0ba0lrP8Z5ocffu3ptbcPNXlXCg8R/eSKMaD9Kkg0vLuCRGZv0FAfevPNN1faKiMdyYND5vb44Ye/5Y4FnhowpLF1Zf63rv6jpwYMld/4A+t/hvnhh197ee3pzZ6fPRQeGt7PwkMYUPMiCjogBYkmhppx6qmnnl4qlTqSv2A2v4FKvqBklR9++CvrNntqwJDG1pX5X9n+qqcGDLXvWM76n1F++OHXHl57ee3po7198sJDRD/Ni7YsCQoSHdxtQaKoN+i8efNudSiH3srPzyo//PB3dHQEjcd/1zPzhTSmGls35r/mWXuQnzfLL/OFNKYaW9b/jPLDD7/28EbPz+4KDx3cl8JDiduucJGKG1OQqLo36IRQRw8aNOgjmzZtejPtHHvXzgBUK4v88MOvAjHbzv69ZwYMbf3h7zS2zsx/fZbi4u/7ZcCQxlRjy/qfQX744d+8efOb2sNHqbcTqnt+9qHw0B5J265wUZBocF8KEvXQG3Tmueee++1yufy32qVI2F9Q7PMk54cffqnl3mc8M2BIY6rCMK7M/3c+y9rb/TJgSGOqsWX9zxY//PBLf9PeXXv4Hnp+9qXw0GAKD6V5UZBomFmQqIdU3BMXLVr0cAovuDc5+/DD7yp/+7Z80DDqDE/MF9JYakxdm//tLevpB+pX/0+NKet/Bvnhh197du3de0i9NQsPDaPwEJfNgkTDqwsSVaXiTh02bNjJW7du3WLhhUqyYFhb4OCH3xV+nRXc8vVfeGLAkMZSY+ra/Ndnann+DE8MGCo8d7rGlPU/Y/zww6+9uvbs2rtXpd5WFx4aTuEhroE1oH3vDWoWJOqtN+gxV1999QXh5H4rVBCrGqQ82EzByBI//PArha746CJPDBgqPfaixtS5+f/OmdR19/phwJDGUmPK+p8tfvjhf0t7de3Ze+35aRQe6mvPTwwol43eoEdFqbiP1KKKWHqNfpMvWFnihx9+mZWOclvQOOUsDFzGpTHsbK1oTB2b/9E8a8sFubkzMHAZl8awvXWHxpX1P0P88MOvPXqUentUBnp+clGQKL43qJGKO23IkCEfb2pq2jDQ3wjZryKW/H7ww+8qv1Lptv3rjZi4jEtjqLF0df7rsxWXnI2Jy7g0hp2dnaz/2eGHH35Vvd2gPbr26kbqbXzPTwoPcdUwCvqeHqKgcam4Y8yquF8PLzW3rWVKRfzPs38oHX74XeZ/Jz1y6euYuIxLY6ixdHX+y4BWNj+Nicu2NIaaZ6z/GeGHH/5isdihvXlV1dsxcam3PUQ/30P0M5ULE2pGQWN6g/aWinvCgw8+eF2Sb5zs//3kC0pW+OGHX+mRMgdNX7wUI5dRaeyi6Kez87/LhBae+gxGLpvS2Cn6qTWD9T8j/PDD//DDD1+nvXlvqbcxPT/3HLCen1wY0ES9QeNTcaeG+vDq1atfttD3yMoLH///ww+/+/wyBqWnXsbMZVTlp/+iMXR+/r9jkjc8hJnLpjR2GkPW/4zwww//mjVrXtaePNTUuNTbBD0/a2JAuShINNToDRqXijtj1qxZX8jlci1p5Li79sLH3x9++N3nV0rdO1HQf7gQQ5cxacw0dhpD1+e/Imedne1BfsGnMHQZk8ZMY6cxZP2HH373+bUH115ce/K41Fuj5+dQCg9xOdMb1DCh+1al4h7UTSru2Ci8PyXUcddee+3F4YvwdvwL5P43VskXEPjhd55fqXVq44Gpy2DrFRlQ5+e/kYbbuu4eTF3GpDHT2MmAsv7DD7/z/G9rD669eKgp0d58bDeptwdVpd7ua5hPiz0/uegNGp+Ke3AvqbizlixZ8rjdFzZ5CkPyxsDww+8+f1cUdPNJ52HssiGNlb440NhlZv7rs3Z2tAX5+Sdh7DIijVVHe6vGjvU/A/zww6+9t/bgvaTeHlydekvPTx8uUnEnhpo2bNiwT4StWRprWeUs+ndnD5nDD7+L/IpsyMyUM3MWFJX+tExjpjHMxvw3il61rr8fc5cRaayi4kOs//DD7zh/c3Nzo/beUcuViaTe1s1FKq5RFXdyqGNmz579zXK53FmrPki2Ff/54IffTX7zLOjWs37puPlCGqMo+pmp+W/Os8LC0xw3X0hjFJ0xZv2HH37H+UulUqf23Np7h5psVr0l9dbHi1TcuKq4R4U6cc6cOX90P0ffdtlt+OG3f0ZPpqbS0BxsHPs1R80X0thojKKzn5ma/2YUtLJjZZB7dKqj5gtpbNpzq7qin6z/8MPvOP/cuXP/qD239t7xVW9JvfX3IhV3tJGKOzXUR9auXftq8gXC/qH15PeHH343+c3oVO5XDzpqwJDGJopKZXb+6/PL2JSWX+2oAUMam2iesf7DD7/j/OvWrXtVe+1QU43U29Hupt5yYUDjU3F372Mq7oG9pOLOPOmkk75UKBSKtg+h219w4IffUX6jUmlHa1uw6aPnOGa+kMZEYxNFPzM7/yUxdFYKQe6JjzlmvpDGpKMt3zXPWP/hh99hfu2ttcfWXruX1NsD+5h6u3tM6q3zBpSLVNxRRirulFDHX3fddZerNYvNBST5ApH888EPv6v8ZhS0vPT1oGHk6Y6YL6Sx0JhEKZGZn/+aZ2Jp2/RUkJszxRHzhTQWGhOtARLrP/zwu8uvPbX21tpjh5pipN6OSpB6m6noJxepuAf0IRX3g8uWLVuQJIe+po2BU1jgJPjhd52/a/OZv/5RRwwYKtwwV4ZN4+LN/H83FXfFTx0xYEhjYZpP1n/44XeXX3tq7a1Jva23i1Tc9/WSijvSSMWdFGr6gQce+MktW7Y0uVqVzH4VNvv88MOvCFuX2dnytZ9hAC1LYxCZAo2NN/NfLO9wtbcFhYWnYAAtq+W5UzUWXRWWWf/hh99hfu2ltafW3lp7bCP1dmQvqbfvI/XWl4tU3CFRWH94VSruCCMVd3yUHnDMueeeOzt8eXZmqIqahUbIdvnhh7/L8LRvyweNx87GCFqSnr3GIDIF3s3/d+dZcWOQnzcLI2hJevYdpcau8WD9hx9+h/nL5fJO7aW1p4721uON1NsRVam3w6M9+hCq3tbLRSqu2ZplXJSbfnRXaxaLC461n2cKfvhd5383Fe/F1yydB+Xcp559NA5ezn/zy47K5j9ZOw/Kuc8Fpvlk/YMffof5tYeOWq4cHe2tx5ktV4zU2wNIvfXhIhV3t5hUXE3s9xutWQ6pOg86pro1y6pVq15w6xsr+wsg/PC7xC91peK2PPhc0HD4qTUyX0jPWs/cPPfp5fw3UnHFWl59S40NGNIzj56/xoL1D374HebX3rmblitjzHOfRurtsD6k3u5G6m2WLlJxB/eaihvfmmXGIYcc8ummpqZG+9+guX8/+OG38nmMqrhS/oa5NTJgSM86eu4aA+/nvznPyit/WSPzhfSszXnG+gc//O7ya8+svbP20LEtV3pPvR1M6m0WL1JxzfOgexkmdL+q1iwHV7VmGV3VmuXYM84446v5fL6tBt94eXDmwM7fhx9+0xzsuOrOlM0X0jM2TUG9zH/xdkV8i8suTNl8IT3jaJ5JrH/ww+8uv/p9tmnPrL1zVcuV0VUtVw6uarmyn2E+96Llii8Xqbh7xKfiVrdmqToPGvUHDV+ut/hGDX743eXXBrXLIGz94e9SMl9Iz1bPODJidTX/jVTcUO1By4vfScl8IT3bjo6KaT5Z/+CH313+t4x+n8a5z9iWK++POfdJ6q2HF6m4fW/NMjHUtFAffPbZZ+9ngXT388APv3ketLO9I9h+znUDbL7QtrN/H3RU2k1T4Pn8jylKJFVKaZlQzGelZM4z1j/44XeYX3tk7ZWjPfPEvrdcIfXW94tU3GoTaqTixrZmifqDhvrI6tWrX3V3weD+3J/7m+ZA2nHFHQNkvpCeZXU6ZL3OvygSGqkygOm4qPTyj8zIp561w+sP9+f+3F97Y+2RjX6fcS1XzNTbavPpfuotFwa0Bq1ZzPOgk0MdM3Xq1M9u3bp1Wy0XENcbD8MPv2v85nlQKf/7R4KGw07ZReOF9Oz0DPUsTVNQ7/Nfz6Ar4q5/llb+IqH5QnqG5jzTu8z6Bz/87vJrT6y9cdTvc7Jx7rMGLVckhy8uUnETtGYZbbRmOSrUseecc853isVip/0UD/9TSuCHP+lZvS613PtM0DDitP6ZL6RnpmenZ9hNGwzmvwxSZEIltQuhT+gu9vnUs6s2n6x/8MPvLr/2wtoTa28c7ZEn9nDu85D4c5+k3vp+kYrb+3nQg3o5Dzo11Il33HHHtSxw8MPvNn+1CS2/sDJonPHtPpovpGelZ1YV+WT+x7Rnkdo2LQjy82b10XwhPSs9M7PCsJ4p6x/88LvNr72w9sShpvZy7vOg3s99knrr8UUqrtmaJcF50GmhPvTSSy/Nd3hB4f7cn/sb5kAbW6l9Sy5oPuXKXswXaj71Kj2rOPPJ/Iv5sqO9uDEoLDwl3nwhPSM9q+p55vj4c3/uz/21B9ZeONS0/p77TNxyRcryxUVrlgTnQWfstddeH29oaFjDN25uC374qwsTSblrHggajji1ynghPZP8tf+pZ5Sk4BARd6m9LSit+GkPKbmk3OrZ6BlVm0/WP/jhd5tfe1/tgbUXTn7uk5YrXJwHHdKP86BTQh376U9/+p9zuVyLXkiEULZMaPn55cGmE7+P8YykZ6FnMrDmk3nWtumpIPfExzCekfQs9EyyN88QQtrzau8bnfuc0o9zn0M498nV80VrFr0g+/fxPOhRoY6//PLLLyiXy391fuFACHNgnNeLVCwHuZ/eEzSMOqNujafY9Qz0LKqLwGAKkprQSG35oLT86iD36NS6NZ5i1zPQs8B8IpQ9aa+rPa/2vtoD9/Hc5/7V5z5pucJFa5bk50Gnhpo1d+7cP5ICkg1++OGvNqFS2xsbg+Z/vqLezKeYxa5nUG0+mf8pzLPKjpVBYeFp9WY+xSx2PYNqsf5lhB9++LXX1Z431NTk5z5pucLlfxQ0tfOgRlGij65YsWJRNhY9hJB5Xs9Uy4PP1UVarhjFGnHX+Bwe86x1/f1Bfv5JvhtPMYo14/MMIaQ9rva6RtGhNM99SphPLs6DGia0+jzohCgHfubBBx/8d01NTY11kILx7j8l879J8MOf6ZRcqdIeqPflpo+e45vxFJPYxCjWuJRb5n9y/vh51h7++bp7gvyCT/lmPMUkNjHGzjP3xfyHH37tbbXH1V432vNO6OHc58Gc++Tq70Vrlvj+oAca50GPMM6DjjPOgx576qmnfjWfz5dY4OCH33n++CiV1B4a0YeeDzZ/8l8zbzzFIBYxxUejmP+1nWdSJWjb8FBQeOozWTeeYhCLmGLmGetfVvjhh197Wu1ttcc1zn2OM859HmGc+zwwvt8nLVe4+nvRH3S4cR70MOM8qFmUaGqoEy666KJzS6VSJwtatvjhh9+MUlWr9NTLwdbZvwo2jvlqZkynPqs+sz672CI+k1P/zvg7cDbUrJhbXHJ2kJs7IzOmU59Vn7m6sq0hMTP+GeOHH37tZbWn1d421FSz6JBx7vMw49zncPp9cnGldB7UKEp0ZE9FiW6++eafhi/5W+YL7/2C5cGCDz/8kUHo2bDli0HL3U8FTV+6LGg47BTnTKc+kz6bPqM+a4whUBok42+BPzYtN1J7644whfXeoPDc6U72EdVn0mfTZ9RnNedV1z8jZXPDzvyHH/63tJeNKTp0ZFfRIc59cnElaM0Scx50P/M8aB+KEk0P9aF58+bdwTd8WeSHH/7eDYJU2dAcFG6eF2w965fBxilnWjOduveWM38R5G96XJ/J/NzWz98x/5PPs/aW9UF5zW1BcfH3g/y8WbZMp+6tz6DPos+kz5ZwnjH+8MPvKr/2sNrLhpreh6JD5rnP/Xo/90nLFS5SceNMaOx50JiiRJOjF/Yjy5YtW8ACCT/8HhsEQ62vrAnyv38k2PKVnwSNx303lQipfqZ+tu6he+me0f0tGQLmfw0ioobag8r2V4PyG38IWhZ9K8g/eXIaEVL9TP1s3UP30j11777OM8Y/w/zww6+9q/aw0V52ckzRob6c+xxM6i1X8ouiROZ50EOM86DVRYmmhJoxePDgk1avXv2qvQUq5ucn//MEyhY//PAbRWT6bEjbi+H/++raQO1Odvz8vkDnMZtPuTJo+sxFweaPnx80Hv/dYOPkM4OGkadL+nf9N/2Z/o7+rv4f/b/6GfpZ+pnV94mVPrMMAeOfDX6NVTTP+q62ltAgrghaN8wJSqt+HRSXnh+0vHBmUFh4SlB4+nOhkfxkkHt8VpB7dFog6d/13/Rn+jv6uy0vnRfo/9XPaNu2XD+zOqXW/Pce5xnjDz/82eZ/4403XtXeVXvYUFOqiw4Z5z4PMc99UnQo+cXFedDduzkPuo9xHlQv2gFxRYnMyrgjR478x82bNzdkbAHzZoGFH35rUdH4DXwCxf/8yAww/hnnj+aZxfmVPKrO+MMPf3b4tVfVnrWq4m1c0SHthfc3zn3u0825z90599nfi4v+oMmLEh0d6ri///u/P2X79u15DtnDD79f/GbEyqYi08n4W+N3JxU8TcMazTPGH374PePXHlV7Ve1ZtXcdwKJD9PvkwoBaKkqkF/n473//+7MLhUIl+QKX7O9zf+7P/dO7f2RItalPzSBEf6Z78fzr8P6mIY2fL8nnXzTPPH7+3J/7c3/tTbVH1V5Ve1YrRYekuIuLi/Og8UWJDBM6zjCh00LN+uUvf3lpuDj8LVSdHILn/tyf+2sDbxrT6J9SdwbAlP5un6KbPH/uH80xyZw/3bYVSj7PfHj+3J/7c///x96ZgMZ1XWEYGhXHlRLcWkoiW3akKFKiNLK2WmMnqeMV0RZKoC1gMAaK2aFmN4tZ1LIGaresSsBAbSjIxiwyZrER0A6b5C0UDcjYBrlyUGsYgWQoqYlM3w9P5vYyc2d0M0933pvvh0OhgMPHcuf/htE56qTqpuqocVftt5YOdbuXDvF3n4T4/xS3tkuJusylRNZm3ANXr179Ivw3XuH/Pfjhhx9++OGHH374w/Grk6qbmhtvraVDXbVcOuT/01tCWErUYi0lMiV0V7nNuIaEHszn81NeD1r4LW3W+P/3wvDDDz/88MMPP/zww68uqk5qyGe5jbe7LPk0lw61sHSIeAUB9V9K5NiM2+nYjDsazZFCoTDj8+CEf8CSeaCT54cffvjhhx9++OGHXx1UXVSd1LHxttPeeFvTpUOaGoQQlhJVtxl3MJpcW1vbzxYWFh5s9IGMJ9Bdq/AfEPDDDz/88MMPP/zw+/Gre6qDqouqk1az8ZalQ4TU71Ki6jfjxjdCc7ncr/4VJct3pcL/e/DDDz/88MMPP/zwq3Oqexq3PqvfeMvSIUICLiXy2IzrOs9y8uTJU8Vi8Vn4LWyJ/+QkwFY4+OGHH3744YcffviXl5efRZ3zt+5zK/4bb1k6REiYpUT2Ztz2Eptxe63NuCPRfDI+Pn5mdXX1G48HruZb1EI/2PDDDz/88MMPP/zw145fHVNdU51T3dPaeNtbYuNtu73xlqVDhARcSqQptZTIsRm3w7UZ17oR+jz81rawDzb88MMPP/zwww8//DXhl3w+t259ujbedjg23pZaOvR9lg4REn4pkWszbqXzLAcmJiY+11HgcHejkv+JSfI/YYEffvjhhx9++OGHX51S3VIds/pzK/bGW5YOEZIyCTU24zrOs5gSeunSpT9FD8da+L8pSP4nIYl8wMAPP/zwww8//PDDv6ZOacun49yKufE2TfJJCEuJPM+z6EEYiGZvNAcvX778RfRwvAi/tjvJn6gk8ODCDz/88MMPP/zww/9CXVKdMu6WA+qanudWWDpESCgJTeI8i30j1JTQa9eu/SXAXSzXJPCAugd++OGHf2P88MMPP/zwq0Oa8um49ek+t4J8EhJCQD0241Y+z7LTcZ7FlNBD09PTkynZ2hb4G0b44Ycffvjhhx9++NUd1SFN+XScW9lZ+dyK98bbAAJKCJtx3edZ3BI6GD8ch/P5/FT1D1jwBzHAT1Tghx9++OGHH3744VdnVHeMO+SgWz7d51bYeJu+EJYS2edZttnnWRw3Qk0JHY3myOzs7I0A39il4A4X/PDDDz/88MMPP/zqiuqM6o6mfNq3Ph3nVrbZ51ZYOkRImiU0XkrkIaFD0eT0oNy9e/fvyf+NgfcDH+BvHOCHH3744Ycffvjhv3fv3t9i+cypO1Yrn/a5FeSTEG6E6uHYsy6hTU1NRwuFwoznT0iCfSOXzAMPP/zwww8//PDDD7+6oTqiIZ971CGzf+uTEDbj+t8IdUvoh4aE7mtubh6bn5//Sg9ObSb8YWb/pQDwww8//PDDDz/8jcuvTqhuqI5oyOeHbvn0v/UZYOMtIQhojW+Ebi9zI1QPRU85CW1ra/v5o0ePCuHvVIX5iYo98MMPP/zwww8//I3Gry6oTuiQzx51yjK3PrfX9tanJnwI4TxL5RuhP4ymtQoJ/cCS0P1dXV2/fPz48YMkHri0Pdjwww8//PDDDz/8jcSvDqguqE5oyecHVchnqzqo+9Yn51YaIYQboXoQ2quU0GE9OH19fZ8tLi4u+H9jmMBPTAI82PDDDz/88MMPP/yNwq/upw4Yy+dwlfLZrq7JrU9CGmcpkY+E7o4fjm6HhH6Uy+V+/XUUxwPq9Q1g0H/P4wMg6/zwww8//PDDDz/8S0tLX6v7qQM65LM77pC7feQzQ0uHCEFC7fMsHhL6fikJPXbs2HFJqMeDnYGf0FiTQX744Ycffvjhhx9+dT11vjLy+b6HfFrnVpDPbIdwnsUtoW9uVEL1bdiTJ08WaviAB3iwE1gqkHJ++OGHH3744YcffnU8dT0P+XyzlHxy65MQJPQ1S0LbDAntqEJCR/Qg6e8B7MVE7gn/R/xJrFHPCj/88MMPP/zwww+/up06XiyfI1XIZ4chn22WfL6GfGY4BAFNQEK7ykjogB6k9e24Wstd/U9Qgk2AbxTTww8//PDDDz/88MP/8OHDgrqdIZ8DZeSzKwH5REAzHIKE/kAPgn0jtIKE9toSuv5zXN2Eun///le1evBD39ny/e+llR9++OGHH3744YdfXU6dzvjZrS2fvRXk07712azOiXwSUqsgof2GhO5vbm4eKxQKM2F/8hL+G8W08cMPP/zwww8//PDPzc3NqMup0xny2Y98bnYIQUJ3bERCm5qajt65cydf6wc16TtdYbbmheeHH3744YcffvjhV3dTh9ugfO5APgmpFCS0aRMkdF80R27dunUjsQc2gUniJzX1zg8//PDDDz/88MM/Ozt7Q91NHS5p+dQgn0mEECQ0p4csn89PhVpTHk8KPtDC8MMPP/zwww8//PCrq8XymUM+NzuEIKFbk5DQmzdvToZ4sOvpJzD1xg8//PDDDz/88MM/PT09mZB8bkU+CdlokNAWTwm1t+OORnN4amrqYvTQvQh5N6suPsDC88MPP/zwww8//PC/UDdTR1NXs7fdespnSz3IJyEECR2KH7ZDV65c+TJ68Nbq7BvGAB9wwfjhhx9++OGHH37419TJ1M3ijjaEfGYphCChe6IZXJfQixcv/jl6+L6trzXq2f+Agx9++OGHH3744V9dXf1WXcyQz0F1NeRzM0MIEvrKJkvowYmJic+jB/A531huDj/88MMPP/zwww+/upc6mLrY5sqnBvlMPoQgoT0OCf30/Pnzv19ZWfmGQ9Lwww8//PDDDz/8yY46l7qXOphDPnsyLZ+EECR0fHz8TLFYfJb9D7gwH6Dwww8//PDDDz/86lrqXI0un4QQJHRvNAdOnDhxamlp6d98YNV24Icffvjhhx9++NWx1LXUudS9siifhBAktN2Q0E5DQt8rI6GfjI6O/mZhYeFBgA+E+j80DT/88HsM/PDDDz/86lbqWOpaZeTzPUM+Ow35bM+yfBJCkNCfRPNRa2vrL+bm5mb4BvO78cMPP/zwww8//PCrU6lbqWOpa9WlfBJCEFAPCW32lNA+S0KHo9kfzdF8Pj/l9yAzDMMwDMMw6lLqVHG3Grbks89TPps95DOIgBJCkNCdhoS+Y0noj6Ppj2YgfiD3RXNkcnLyS92p4htb+OGHH3744Ycf/upvfKpDqUvFnWo47lj96lyWfL5jyOfORpZPQggSmovm0Llz5/6wvLz8H/djyzAMwzAMw6gzqTupQ6lLNaJ8EkKQ0B9F02pJ6C5DQt8tI6FD8cP56enTp3/39OnT5dKPLcMwDMMwDKOupM6k7hR3qKEy8vmuIZ+7LPlsVXdLi3wSQpDQV0tI6DZDQt9wSGhvGQndG81Px8bGTi4uLv7z/x9bhmEYhmEYRh1JXUmdSd2pjHz2OuTzDUM+t5WQz1fTIp+EECT09QoS+rYpoS9vhcYSamzI/bi7u/uz+fn5f3j8LcT6/2rM/y/VAz/88MMPP/zww69upI6krmRsuo3l8+WNT1M+364gn69nUT4JIUjoW5aEdpWQUPtMy8dbtmwZu3379nSmPtA8/n344Ycffvjhhx9+dSJ1o1g+7TMrtnx2WfL5VqrkkxCChGpqIKE7LAntdkjoSLzN7ej169f/Gj28a3zjCj/88MMPP/zwNyD/mrqQOlHcjUYc8tltyeeOGsjn9+pVPgkhSOjW+CFrqSChHZaE9jgkNBfN4QsXLvxxZWXlv44H3+sDIm0foPDDDz/88MMPf+Pwq/uoA6kLqRM55LPHks+OCvLZEne2rVmVT0IIErq9hITutiTUtSH34NmzZ88Ui8XV8B9wYb8hzT4//PDDDz/88MOvzqPuow7k2nRryefuEvK5PSPySQhBQjWVJbTUrVBLQjurkNDRaA4cP3781JMoAT7wUvDvZ4Effvjhhx9++OFX11HnUfdRB6pCPjst+Sx147Ma+Xyl8eST/I+9s4DN60r2uKREL33ug3UXnDKGSmFmhjIzM4NwoRgoMzMzW+XWShU5nEiR012vvVGNQdvrz2W09o50vDq6ytm5Pr1fT+7t7y/Ng20T709w54xn5j8IbTNKoQgtUYrQLofc3RLdCjXmRDvttNMhVVVVS1P4wNth/7M8JlD44Ycffvjhhz8D/PLGkbeOZTaU5Mbnbl1Ot0rxWZJC8ZkJIYQoQv/XWYS6b4X2t4pQ2yF3TBTTysvLn44+1D9gupB1fvjhhx9++OGHX9408rYxZkNjbKdbq/js777x6Sw+/5fiEyFkiyJUuxXqNieaPHfu3D+3trYWlIQQZscjvIkC/PDDDz/88MOfAX55y8ibRt42brMh7cYnxSdCiCJUwi5Ct7eKUOVWqHKmxdoLnTlz5in19fXrAia8HOzUhOCHH3744Ycffvjr6urWyVvG3vdUz6woNz6t4nP7WPH5X3kuPhFCFKF2NzRehKpnWhI65A6PYmxJScns5cuXf4yrHvzwww8//PDDnxV+ebvIG8bsew5P6HSrn1mJFZ921zN3xSdCiCJUOdOiFqEeDrkypjI6iqlPP/30vYVC4bv0R3byMWIEP/zwww8//PCH529vb//u2WefvVfeLuYNM9TD6VYtPpUzKzkuPhFCFKHKrVDHXuguCR1y7b3QSZdccsnlmzZtasnCb2yL+c+3PX744Ycffvjhh1/eKPJWkTeLve+Z0Ol2F8e+ZzdvfFJ8IoQoQnWHXN2caIjZnRg/ePDgo2tqaqriCSRrtvHpJ1D44Ycffvjhhz8Uv7xN5I0ibxXzZhmimw3pTre/uuITIUQRqhSiPVN0yN1TKUL/vRcaxYyFCxe+EX3wf/L9jaqJ9BNUsP8+8MMPP/zwww9/gJ/3U0VFxRvyNrH3PZXic88UnW4l9MJTIidCCFGEJj/T4t4LtYvQxHuh99xzzw1tbW1f5cGWPsSf9+eHH3744YcffvjlDSJvke7te1rFp3vfM/GZFYpPhBBFaOxMS9rmRNZI7sgoJp500knnNDU1NesJJl+mDuF+gw0//PDDDz/88DdHkjeIvEXkTWKN3KZnNqSfWaH4RAhRhHqcaTEjufEiNPFe6LiddtrpkKqqqqXJE1Q+XQCLzw8//PDDDz/88MubQ94e8gZJvu8ZLz7NyG0xz6xIIIQQZ1oSmxPtrhSh9r3QMVFMf+utt56KksP3/iM2Xgks/X8//GFv+GMBP/zwww8//PLGePPNN5+SN4e8Pez7nkrxuXtSs6FAZ1YQQgiHXI+90FFRTLoi0saNGzf8QiM726zLX3r88MMPP/zwww//hkiXXXbZFebEyiiPfc8ATrcIIUQRqpgTeeyFbuVUS1lZ2SGrVq2q+PLLLzsDjBCl8vPCj1DBDz/88MMPP/zyllixYkWFvC0cJ1bUfU8Ps6FUi0+EEMIh19+caK+Ep1pGRzFNnOlaW1s/1xOMHjk73A0//PDDDz/8SsDf0tLyuXG5nRbF6IQnVvbyMBsK5XSLEEKYE3nfC42P5BqX3EmTJp1UW1u7Nu0E6hkZeEDADz/88MMPP/w1NTVV8oawXG5jI7d+9z3Dmg0hhBBFaFH2Qq2R3OHGoW66mAZ0dHR8l1YCLNLOS0AXQfjhhx9++OGHX94KltGQvCGGWyO3xd/3pPhECCG9CC3SXmhpSiO5w4xZwOQLL7zw4uZIKSdAOzL678MPP/zwww8//M2R5K0gbwbzdhiW0shtaZH2PSUQQkgT5kT+e6FWN9QuQvWR3CFmfGb87373u0OWLl36YZRoOov/G9cMmDDADz/88MMPP/yd8jaQN4K8FcybYYg6cmsXn1bXU9n3LLrZEEIIUYTq5kT6Xmg6I7nDzN2uqbfeeuvcyKCokJYtvR7h76T5//vwww8//PDDn09+eQvIm0DeBuaNMCylkVt931M3G6L4DC+EEHuh/iO5MYOiSaNHjz6hurp6TRoJ1I7wOyzpB/zwww8//PDnjV/eAPIWkDdBzGjIf+SWfc8cCSHEXqj/qZb9tjKSO6LLoOjVV199rFAofBvONj78g8AE/PDDDz/88Oeev729/VvJ/ZbR0IitjNzu53tihX3P7AkhRBGq74X6j+QeGBvJHR3F5DPOOOOCxsbGhlCmDp6ugenv0MAPP/zwww9/jvkl10vON0ZDo2Mjtwf6jtwq+54UnxkSQoi9UPlolyinWnxGcuM3Q8eVlpYeXFlZ+U6UqH7yNE0I5vKX/p+HH3744Ycf/lzx/yQ5XnK95Pz4bU+fkVvlxEqJvGHY98yBEELshfqO5CY1KJo/f/5VGzZs2KwnuizZ3Hs8KOCHH3744Yc/B/yS0yW3JzUa8h25Zd/TKYQQYiRXMSgaX1ZWduiiRYvejg5S/xj4N7rFfwAokUV++OGHH3744ZccHnU935acLrldMRpi5BYhhFRRhKYykuswKBoTxZTLIzU0NNQH2IkJugMUjyzxww8//PDDD7/k7ksuueRyyeWS0x1GQ2mP3FJ85kIIIfZC/UdyvQyK4t3Qnj17znrnnXeeF9c8j4ScpX8/0zzwww8//PDDL7lacrbk7njX09toyH/kln1PhBBiJFc3KIp1Q4eb35xOPu64486ura39Wyo7NQEjvElF+gE//PDDDz/8UY7+q+Rq43A7xuTwId00GmLkFiGE/MVIbhKDIvVci9UNjWLGc88990Bra+uXngk/wIhT8R8k8MMPP/zwwx+KX3Ky5GbJ0XbXUz+vohsNMXKbfyGEKEKLNZKrGxQl64aOjmLShAkTTvz000+XeyTjfJpOwA8//PDDD38A/rVr1y6XnCy5WXJ0wq6nbjRU/JFbEwghlDsxkuthUKR1Q0eY37BOv/vuu2/cvHnzP8Mn9Ny4FqoBP/zwww8//JJ7JQdLLjY5eYTW9ey20RAjtwghpIgiVGI710iuh0GR1g0dFcXEPn36HLVkyZKKKIH+FOqQt/bPQ991gx9++OGHH/6U+H9atmxZheReycGSi7Wup4fRkGPk1hSeFJ8OIYQQI7klkjic3VBThGrnWhSn3BFRjI1i2lVXXfWn5ubmDekn/LyHzg8//PDDDz/8kmMl10rONbl3hOJwq5xXMcWnu+spb4gSRm7TEEIIYVBkd0N7/8xu6DDzG9gJpaWlB3/88cdvFAqFH8Ik8xyYVsAPP/zwww+/FZJTJbdKjpVca3LusJ/Z9eydsOvJyC1CCOmiCNUMipRzLV7dUOtky5Rzzz334rq6unVZ2cnZFneA4Icffvjhh7++vn6d5FTJrSbHenc9lfMqitEQxSdCCCliJFcxKFLOtSTuhkrSGxgzKRplnWy5f8uWLe3ZepDoUcwdH/jhhx9++OGX3Ck51DqtMipmMjRQcnDSrqd6XkU3GmLkFiGE/IRBkUc3VHPK3T/eDbVPtuyxxx6Hf/LJJ+WFQuE7dxImCIIgCEJypeRMyZ2x0yrxruf+isOtR9cToyGEEEIeRahnN/Q3Ht3Qvko31DYpmnr00UefHd0rWxn9Zrcz/RGo7O4swQ8//PDDD7/kRsmRkislZ1omQ1rXs69H1/M3Hl1Pik+EEKIITcGgSOuG6k65feLdUKdJkbkdOnfu3KsaI+kJmSAIgiDyHw0NDY2SG7tueiomQ3bXs4/ucKt3PVMzGpJACCFkxEiufzdUd8rdJ9YNdZsUGbfcnj17znzppZceaWlp6cj/b9j9fx788MMPP/z55ZccKLlQcqLlbjvcZTIU63ruoznc+nc9PYpPhBBCFKFF6ob23ko3NG5SNEAZy+1yy53cr1+/oysrK9/t6Oj4XpIxQRAEQeQ9JOdJ7pMcKLnQ5MThyrjtgK2YDMW7nr3T73pSfCKEEErRoCitbqhyssU1ljuyaz/0pJNOOr+6unoNDxOCIAgizyG5TnKetec50jVuq5xW8e96cl4FIYRQTrqhcZMidSw3vh960003XdvU1LSeRwpBEASRp5DcJjkuvudpjdvaXc/9FJMhup4IIYRyYFCU/G7oDlY3VDvZkngs1yTjib169ZrzxhtvPNHW1vZFlh8bBEEQBCG5THKa5DbJcSbXJR631U6rWF3PHZLe9cy00RBCCCG6ocrJlmRjufbZFrMfOnDgwOOWLVv2UbQr82MUXXszEl3/96/mAQM//PDDD3+2+CV3SQ6TXGbteZqzKsnHbZXTKnQ9EUII5aAbqhSijm6o+2RL8rHc+H7ouCimnX322RfV1NRUZeGhRBAEQRCSsyR3SQ6TXGbveerutva4rfu0iqPrqRSe2el6IoQQohsqYRehyU2KujWW694Pveqqq/5UW1v79zz8xj3tvx9++OEPzw8//JKjJFfpe56Jx20TmwzFis/t6HoihBDKdzdUNylyjeX2i4/luvZDTTKfsWDBgqs/++yzfzCiBj/88MMP/7bALzlJcpPkKJOrXHue8XHbfu5xW91kiK4nQgih/HdD44Wo6YbqY7m6W65ViB7g2A+VZD7amDjMvOWWW+bV19fXhXjwEARBEITkIMlFkpNMbhotucqx53mAVXjq7rb6uK3pesYLT7qeCCGE8tgN1U2KEo/lWoVov4T7oSPsQvTee++9uTESI2Twww8//L8EP/yScyT3xArPEQn3PPtZhWfycVvdZIiuJ0IIoVx3Q5OP5epuuYn2Q5VCdNYjjzxyh3JD1PvBwoMSfvjhhx9+yTGSayTnKIVn0j1P3d02+bgtXU+EEEI564ZKuLuhEv/tMClSxnKV/VDFqMg63TKpR48es5988sl7NmzYsCn8gygPD0D44Ycffvglp0hukRwjucY6qaIYDCl7nsq4rcNkyBSezq5nD7qeCCGE8twN9R7LtQrRnR1nW5T7ocaoyFGIPv/88w9u3LixRXnQ5KDDoP08+OGHH34ffvglh0gucRaexmBIu+fpOKuys1V4eo/b5qDriRBCiCI0wFiush/azUJ0pHkkTC4pKTnolVdeeSx6RLTpD5LwHYTwHQb44Ycffvg3bdrUJrlDcojkEpNTRnaz8NT3PMON20oghBBCuTQpktg+iVuush+qGBUZx1xHIVpaWnrw66+//tSWLVsKeXgwpf+ghB9++OGHX3KE5ArJGc7C0zjbagZDyp6n4m6LyVCKQgghhEmRsh+q3w/1KUTHymOirKzssHfeeee5zZs3t9sPmHiYf5bXjob1Z+CHH3744ZecILlBcoQpPMf6FZ76PU9lzxOTIYQQQh7CpEgvRJX9UOV+qMsxN1khajqizz333EO6a67+4Mn/CB788MMPfz75JQdILpCc0K3C0+Fsq9zzTL7nqReedD0RQghpwqTIUYj+b/L90HghahsVOQvRQa7RXGMoMeu2226bV1tbW/3FF190ejx4MmTSwc/n5/Pz+fn8fPnWyzdfvv2SA0wucI3aDnIXnrbBULzwTLzn+b+OwhOTIYQQQhShxXDLVfZDtUJ0D6UQ3V8pRO07ojMuuuiiK9esWbO0UCj84P8b+Sz9+zof/PDDD39e+OXbLt94+dbLN9++46kUnvsrheceeuGZ/p6nf9cTIYQQYixX3w/VHXOTFqID/0MhOiGK6ZFOr6ysfK+tre2r8DtV4c8owA8//PBnmV++5fJNl2+7fOPNt95VeA5MXHjqzrb6nifjtgghhFBxxnIllLFcZT9UdcxNsxAdH8XUPn36HFVeXv58dIC8LeRdvOLvROkBP/zww581fjm/Jd9w+ZbLNz2K8WkWnpqzrbLnqY3b9ijuuC1CCCHEWK5+P9Q2KipuITo8ilFRjItiSq9eveY8/vjj99RH0kfUwpt8hDcNgR9++OEPx18fSb7Z8u2Wb7j5lo+KYnjRC0/bYEi557kNjdsihBBC7IcqRkXehajimjvIUYiONSYVM+fPn39NdXV1VfQ46vR4MOVgJ0v/5/DDDz/8Afg75dss32j5Vptv9lhH4TlIcbX1LjwVgyH2PBFCCKGM7ofajrn26Zb0ClHTFbUKUXtPdMZZZ5118erVqxcVCoXvi/9gtCONB1v6I3bwww8//CH45Ru8atWqRfJNlm+zvd9pFZ6m25lm4WmdVLGdbdnzRAghhDKwHxq+EO1vFaL724WoZlg0fvz4kxcuXFje0tLSEeDMQLAdsZAjdvDDDz/8/2LvLGDkSJIoKul4BMvMzGgeMLdhmZmZmZmZmRnMzMxt352Z7TYNk2mZd+tL1VIqNCGlYsY5pdJ/Ui573NGVGaq/PyISORe5FzlYGyykCM/DHeF5cEKFJ/s8CSGEkPBluU0mRHdphBA9wkOIlqDHqKCg4Hj0HOVyuRW4Y87uCAR3TMQKUKJn+PeMn/EzfsaP3Ioci1yLnBv3d5Z4CM8jGiE8d2ms8ExLuS0hhBDCQUVN74ge4AjRQ4QQ1e4SdftEO+TLc7PZ7Lj6+vrvA5TYJeAahS33wsz4GT/jZ/zIpcipTpltB62/U7nDE7n8EEd4HhDA8WSfJyGEEKJCIbpX/BKyryNED8wLUWVyrhxYJMtzu+y6666n9OrV6/1169at3YLXEogVYGhJgBI9xs/4GT/jR+5EDkUuRU6VZbbaYCEx0TYvPA90hOe+cc7fi8JTQAghhHBQURAhunsDQnQ/RYiqA4uUa1w6YSLjrbfeemc0KGNqdCH6j/YXRvu/T84Lqv55GD/jZ/yMf8OGDT8iVyJnxtNsO6nXqCiDhRThuV8DwnP3gMKTA4YIIYSQpIrQEEJUXN+ySwNCdG9XiCqTcw/3EKJtHFe06z777HMG/o/+qlWrcuhnClVyl9RrGBg/42f8jB+5EDkRuRE5ErnScTvbeAjPw5WJtq7w3LsB4bmLe51KAOFJ8alCCCGEUIjuIYWoNrBIlue6QtQdWiRd0QsuuODayZMnD6+urt5ocDiCOizhfx7jZ/yMP+3xI/chByIXSrdTDBVyhKcos9UHC0nhuQeFZ3NDCCGEUIhuI4Tojo4QRUnW7v4Di9Q+Ud0VjSfo/u1vfzvu5ZdffmrBggWzcaed/YUvHS/E6Y2f8TN+xo8ch1yHnIfcJybZKm6n0t/pP1hod+R0R3juKITnNhSeoSGEEEIoRLcVQlRe4aIPLNLLc9VrXJQJupljjjnmnMGDB3++du3adUEdmAAleYafl5L4GT/jZ/zIachtyHHIdcokW/0aFbXMVh8sJK9SEcJzWwpPQgghJClQiG4nhKg2sEgvz5XXuPi7osWxI9D9wgsvvH78+PFDKisra+KXuACOi1gJvYcw+fEzfsbP+CsqKmqQw5DLkNPi3Fbs73bKa1T0MlttsJAQnttReBJCCCFJh0JUTs5V+kSV8lz/oUVSjBbmS3Sj1fPuu+++a+bMmWNramo2BXAwxEpWj1ly42f8jJ/x19bWbspms2ORs5C7nBLbQik6/YcK6WW2en+nnGhL4UkIIYQkCApRRYxuow8s0vtElem5+tAixRV1SnQL43K1LuiZevbZZx+bPXv29OhKl+/tL8ghSwbDO0iMn/Ez/nDxIxfNmTNnOnJT3NfZJc5ZhU6JreJ26kOFlGm2en+nPlhoG0V0Ung2D4QQQgiFqHFgkdonKstzpStqEKOtRb9o1+222+7kd99996X58+f/r76+/ge8ECbc4QlQcsj4GT/jDxA/ROcPyD3IQchFyEmir9O/xFZ3O2WZrdrfaRwsROFJCCGEkOBCFEsKUVufqFKeqwwt8u4VVfpF82K0Y7QyeAF84403notciGwkRr8LO+Qk/L8PXwLJ+Bk/46+rq/suqr7IItfEojMT5yBVdBp6O+VQIb3M1tbfKYXnPyk8CSGEENLcQtTSJyrLc31d0QMNrqgUo+1cZ/Rf//rX8c8///wTs2bNmhL1Y20O4bg0owPluxg/42f8hviRQ5BLkFOQW4TT2U6KToPbeaC/2ynLbE39nRSehBBCCEmaENUHFiliVApROT1Xd0Vlr6ipRFcXo+jHevzxxx+OBhhNiC59X58WAbDlSiIZP+Nn/FVVVeuRMx599NGH455OXXTaSmxlb6fudopptlJ4KqJTHyxE4UkIIYSQcEJULClEPQYWGafn6q6omKCriVEhRL3EqOgZ7RKt42644YZbx40bN2DNmjWroxfS3xP4wh5+qArjZ/yM/3fkBOQG5AjkCuQMvadTF51CeCqiU0yy1dxO+zRbv8FCWLrotAtPQgghhFCIhh9Y5O+Kygm6xhJdDzEaT9ON7xktKio6/4svvnhv4cKFczHEKMBQFJMACL/SHz/jZ/w48zj7yAHIBc49nfH0Wi/RaS2xlZNsvdzOBAwWwiKEEEII0YVoyD7RRrqiuwtXVIhR4YraxWhrR4yWxANEuhUUFJz43HPPPZ7NZsdVVlbWNtG9hCl4YU9P/Iyf8eNs44zjrOPM4+zHOaDEEZ2traJTup1CdEq3c/dGup3h+juxCCGEEEISIERFea7dFVXuFdWn6HqIUY8BRq1jh6NQlOr2PPfcc6/u37//p4sWLZoXOSX6faMJeeEPLxiSHz/jZ/y4n3Px4sXzcJZxpnG2RWltYZwDWnsMEtJFp98UW/3eTul22stsUyQ8CSGEEMKBRYbyXIMYla6oPkXXV4x6TNMVQ4wKo9U+Wp3gkGAIyQMPPHB/1B82KOoTy0Uvtr/6OzLpEBzyv09i/Iyf8eNs4ozirOLM4uzGLmen+EwXiiFCPtNrPUWnPsVWup0G0Wkos03BYCFCCCGEcGCRoTy3ca6oLkb3aTIxKkp1pTsqe0f333//M958880XoimZEysqKqqil98/DD10qS6pZPyMP0T8OHs4gziLOJM4m7KXU3E59Xs67aJzH110Nt7ttJfZplh4EkIIIYTluWZX1C5G9zaIUe1qF90dlb2j8TUv0epRUlJywYcffvgaXoJLS0srohfj38MKhvQvxs/489Nqy8rKKnDWcOZw9nAGnWtSZC+n7nIqV6YYROfeNtFpdztZZksIIYQQCtHGu6KhxajeN+rvjrZzhxnlBekxxxxzDtyYGTNmjF27du266MX5N8NLd3rufbQvxs/4f8MZymazY3GmcLbyglMMD2rn73Lq/ZzBRWfj3U4Kz/RDCCGEUIiaXVF9gq5Wotv0Zbr2Ul3pjuqCVDikKAt85ZVXnpk8efKIXC63IhqM8mMaHSxDCSbjZ/zyapQfV65cuWLSpEkjcGZwdqTDqQtO3eU0lNY2fXmtXmIrJ9na3U4KT0IIIYTQFW3aEl2rGDWU6iruqF+5rhCkxfke0vxQo+uuu+7Wvn37fjR79uwZUUlhpVK2y5LQNMfP+H/H3scZwFnAmcgPDXJ6OIuF4PQoq9VdTkNprVV0NnmJLd1OQgghhBigKyon6PqV6Or9oltMjOruqH7nqL8gLXKm7Gbg8Bx00EFnPv/8809E0zsHLFmyZFFtbe3mNAkWLi7saext7HHsdez52N3MOFNqi/wFp343p+ZybjnRqfd1epbYykm2dDsBIYQQQihEA7iizS5GDb2jXoLU0yXtEjtAx2UymUveeuut53ClxNKlS+dVVVXVf/vtt38ka0pq+CmsyY6f8WMyLfYq7t/E3sUexl7Gno73dhcfd9NXcBp6OZtVdAZyO7EIIYQQQuiKmkt09X7RJivT9XFHlXJdH0F6jI8gdSbtYpUIUdrzyCOPPOeZZ555dMSIEb3mzZv3X5QwiiFHwRYX16ZNm37DHsRexJ7E3sQexV4VYrPE2ddtPQXnMR6CUymr9XI5TeW1XsOEDCW2dDsJIYQQEgC6orJE1y5G7T2j/u6oUq7rL0hFD6m/S6o4pRmUMG633XYn33TTTbd9+umnb0aDjobBeSovL6+BOEjjlNTwn5fxYy9hT2FvYY9hr2HPYe/ly2gVZ9Pf3RQ9nP6CUymr9Xc57T2ddtEpS2zpdhJCCCEkqdAVtYhRbZqujztqKNfVBKnoIfUv2xWiFKutEKXon+vouKU9tt5665Mx2OXjjz9+Y+LEicMWLVo0F5f2b9y48eeGRAYXF/YG9gj2CvYM9g72EPYS9pTjanbEnhNis62zP1sZymmVHk4vwamW1fq4nNr0WqPopNtJCCGEEEIxql/tYnVHDYJU9JDaXFLFKRVuqS5Mo3XcSSeddNmzzz77WL9+/T6eMmXK6EhwzCstLa3IXxGT3sWFZ4xnjWeOZ489gL2APYG9oQhNzdUUzqbd3RQ9nAbBaXY59StTKDrTACGEEEIoRMOLUXm1i2+pruaOWgWp6CHVXVK9l1SKUt0t1YVpkdNf2lmI0+M7dux48SOPPPJQr1693p8wYcLg2bNnT1+xYsXSyBmrxj2NCek9zP/Z/ev0CUZD/HhGeFZ4Znh2eIZ4lnimeLZ4xkJkdnb6NIt0oam7mrrYlL2burspejhNglNzOX1LaxMqOrEIIYSEhxBCV9QuRvV7RtVSXd0dtQtS0UPq75JqTqmXW6oLU6y2mjh1nNOMK1APP/zws6+//vrbMN20f//+n0U9gSMwhGblypUrooE0VXV1dd9EYqiJ7zXlwneK7xbfMb5rfOf47vEM8CzwTPBshMDMOE6mJjLbij3RyuBqas6mv7spejitgtPP5dSHCCnTa+2ik25nuiGEEEIIxajHACOlVNfPHVXKdRVBqkzYlVN2dZfULkp1YWoXp1hxaa/roAqRetzf/va3E+C2YVDNSy+99ORXX331zrBhw3pPnTp1zNy5c2ctX7588ZoIOHW4H3LDhg1qX2paHVfEjNjxHeC7wHeC7wbfEb4rfGf47vAd4rvEdypKZDPCwcyXyhbZRabuaNrFpu5uyim1yqRaVXAqZbWNdDn1QUIUnYQQQgghLNH1FaOGUl29d1QTpLpDqg81UlxSIUp1p9RXmKqOqb84lQK1jSZSGxCqnSCWhFjtnhescO0w6Ka4uPjCyy+//IaHHnro/tdee+0ZTFuFwzdy5Mg+KCVFz2I2m52E0tL58+f/f8mSJQtQaprL5VaVRmCATkR9tDbU1NRsgsCLSlK/jdb30fohEn0/YdBOJB5/haOIOyux8Nf4Z/h3+G/w38a/5lv8DPws/Ez8bPwepRH4PfF74zPgs+Az4bPhM+Kz4jPjsyMGxIKYEBtiRKyI2RGU3YWoxOqkCMuGxGUbRWD6ikzhaPoLTcXZ1MWmcDfl0CCDw6nezam5nH6ltXbRyRJbQgghhBCKUaVU1+6OWgWpGGokXFK7KDUKU901FeJUF6i6SBVCVYpVrCIpWp0SYKxOeZfVWV3zIhZLiFmsnvE6roF1vOc6Ti7n5/YQojG/Mvhs4rN2doQkVokrJoWglKLyL3bu4ISyIoqiaBKKTtscFPOPzNkfreZQ1KfAZm+4QSxOvQdYApcA5kAm1sxzaF5gU+vm56dBF+C8WTn9tDZ0VlVVVX27MHqwjl6DFM9290oKlOonR1cw3Tg1UDdST7EquH7wigNmHxzQiPt3QPIAlQuXBuZC5g008ZMgYpPr5nhOewPO45UzdN5XVVVVFUa//1T3AqT8qdHPVtKBUi+l+PPuAUyBUyynBqqRaqgaqwar4brvn0f39zhC0qA0Kg1L4xLAxJIJZB5AU3+kHcsmsfnzddM/DboA51ef1obOqqqqqjD6dh29AKl/arRXUqF0PN8dMD3AKZZTAdVIHVA1WI3WAdh9A7gDiPsGII1Jg3LAErgkML1kHiBzQHM8owU297qpnwZdgPPlyomrqqqqqlFPdR+AFD81wrNdoHQspWMtFUz9lJc4HUAFUgdUBVaj1Xg1ZJ+e4TgQaUwalIYlcDmAaWTq6ayhuVfNsWwCm3hOi58GPQBnT2sfVVVVVRVG79fRb4L0SygdMD3H6QCqkQqoCqsLrMarEfv+Nh6NyAFKoFKwNC4XMM+RuaD5LWx+F5z3K2fofF9VVVVVGP02SB+g9BKmA6cfoGJBNVINVWPVaDVcjdj3ZzwaksakUWlYGpdaMD/AHMi8guYDbH4fnKHzfVVVVVVh9H4dvQHpXEnPUXoBU+P0EKgTqcAqwAq0Aq+G7PszHI1IYBKgJConLs+AaWTeQfMcm2PdvAEnV86+56yqqqqqQIqV9AKlpzA1Tr2cDqAaqYCqsPoBK+E6ACvQPjiA0YAUJHE/gErB0rjcwMSSaWSeQPMCm1g3A6eqqqqqqp7rXoD0AUrPYTpxOoAKpBqqwqrBargOxOr++vL9wA08ApIApVBpWBqXA5gTmafQfIDNC3D+Ws9qq6qqqiqMTpBerKRA6Xi+ewJTPOUFTrGcCqhG6oCqsWq0Gq+G7Dxjd6BwnOFoRAqTRqVhOXBpYGLJBDLxdPYAmuMZ7cDmXjfvwamrqqqqqgqk9yjdMD3A6QCqkQqoAqsAq9FqvBqzT89oNCKBSYASqDQsjcsBzANkbmheYDNwfr+qqqqqCqSvUbpheo1TAxVIBVSBVYHVaDVefX8+uj9wRKQwKVAClYAlcWlg3iNzQ/M9NgPn96uqqqqqQLpReg/TjVMC9RypG6tG68Kr7vdH95vOiByYHKg8xqWBuZF5C82BzcD5a1RVVVVVofQSpgOnBupAqqFqsBqtA6/G7MszGo3IhUmD0rAcuDQwBzIvoBk2/59VVVVVVSC9QOkFTI3TDdSNVEN1g/W/9usjR5UgAKKg2pvB3P+036xHRSdFIWEipHeAXOb/LkHXF+sSdC50KvSTn8vgYP5ubn8087MZBQAAvNQpzY9pfk6jg1poK7TnhzU6r/mhbd8pLdi3F9rCY5kfzPhk5kfT2QQAAKc0O6blpkLzjZZC60HbQXtlP43bK9sOWg9aCs03mgqNzY+mswkAAI5p0NDgoJaaD1rC1sq2J7VWtoTNybFsfjDzk+loAgCAU9r+nAaNQVPYXNnyIs2VTWFj0NDyZFaWAwAAnNOw4Y7GiqYPbaxouKPeyQQAAF5F90B9ZcMDjR/S8EB9ZV19AAAAz9U1qG/U8KH1jerKOZkAAICTWj6s6hoHAADgrD651z+M9QHAS/oLlNCOHsGklc0AAAAASUVORK5CYII=;" parent="1" vertex="1">
                    <mxGeometry x="-750" y="549" width="78" height="78.59" as="geometry"/>
                </mxCell>
                <mxCell id="195" value="Slack webhook" style="text;html=1;strokeColor=none;fillColor=none;align=center;verticalAlign=middle;whiteSpace=wrap;rounded=0;fontColor=default;" parent="1" vertex="1">
                    <mxGeometry x="-741" y="500" width="101" height="30" as="geometry"/>
                </mxCell>
                <mxCell id="201" value="" style="sketch=0;outlineConnect=0;fontColor=#232F3E;gradientColor=none;fillColor=#B0084D;strokeColor=none;dashed=0;verticalLabelPosition=bottom;verticalAlign=top;align=center;html=1;fontSize=12;fontStyle=0;aspect=fixed;pointerEvents=1;shape=mxgraph.aws4.event_resource;" parent="1" vertex="1">
                    <mxGeometry x="374" y="131" width="50" height="50" as="geometry"/>
                </mxCell>
                <mxCell id="202" value="&lt;meta charset=&quot;utf-8&quot;&gt;&lt;span style=&quot;color: rgb(240, 240, 240); font-family: Helvetica; font-size: 12px; font-style: normal; font-variant-ligatures: normal; font-variant-caps: normal; font-weight: 400; letter-spacing: normal; orphans: 2; text-align: center; text-indent: 0px; text-transform: none; widows: 2; word-spacing: 0px; -webkit-text-stroke-width: 0px; background-color: rgb(42, 37, 47); text-decoration-thickness: initial; text-decoration-style: initial; text-decoration-color: initial; float: none; display: inline !important;&quot;&gt;askBirthday&lt;/span&gt;" style="text;html=1;align=center;verticalAlign=middle;resizable=0;points=[];autosize=1;strokeColor=none;fillColor=none;" parent="1" vertex="1">
                    <mxGeometry x="350" y="180" width="80" height="30" as="geometry"/>
                </mxCell>
                <mxCell id="203" value="" style="sketch=0;outlineConnect=0;fontColor=#232F3E;gradientColor=none;fillColor=#B0084D;strokeColor=none;dashed=0;verticalLabelPosition=bottom;verticalAlign=top;align=center;html=1;fontSize=12;fontStyle=0;aspect=fixed;pointerEvents=1;shape=mxgraph.aws4.event_resource;" parent="1" vertex="1">
                    <mxGeometry x="-251" y="597.5" width="50" height="50" as="geometry"/>
                </mxCell>
                <mxCell id="204" value="memberLeftChannel" style="text;html=1;align=center;verticalAlign=middle;resizable=0;points=[];autosize=1;strokeColor=none;fillColor=none;" parent="1" vertex="1">
                    <mxGeometry x="-300" y="646.5" width="130" height="30" as="geometry"/>
                </mxCell>
                <mxCell id="207" value="" style="sketch=0;outlineConnect=0;fontColor=#232F3E;gradientColor=none;fillColor=#B0084D;strokeColor=none;dashed=0;verticalLabelPosition=bottom;verticalAlign=top;align=center;html=1;fontSize=12;fontStyle=0;aspect=fixed;pointerEvents=1;shape=mxgraph.aws4.event_resource;" parent="1" vertex="1">
                    <mxGeometry x="824" y="222" width="50" height="50" as="geometry"/>
                </mxCell>
                <mxCell id="208" value="&lt;meta charset=&quot;utf-8&quot;&gt;&lt;span style=&quot;color: rgb(240, 240, 240); font-family: Helvetica; font-size: 12px; font-style: normal; font-variant-ligatures: normal; font-variant-caps: normal; font-weight: 400; letter-spacing: normal; orphans: 2; text-align: center; text-indent: 0px; text-transform: none; widows: 2; word-spacing: 0px; -webkit-text-stroke-width: 0px; background-color: rgb(42, 37, 47); text-decoration-thickness: initial; text-decoration-style: initial; text-decoration-color: initial; float: none; display: inline !important;&quot;&gt;askBirthday&lt;/span&gt;" style="text;html=1;align=center;verticalAlign=middle;resizable=0;points=[];autosize=1;strokeColor=none;fillColor=none;" parent="1" vertex="1">
                    <mxGeometry x="800" y="271" width="80" height="30" as="geometry"/>
                </mxCell>
                <mxCell id="217" style="edgeStyle=none;html=1;entryX=0;entryY=0.5;entryDx=0;entryDy=0;entryPerimeter=0;" edge="1" parent="1" source="209" target="32">
                    <mxGeometry relative="1" as="geometry"/>
                </mxCell>
                <mxCell id="209" value="" style="sketch=0;outlineConnect=0;fontColor=#232F3E;gradientColor=none;strokeColor=#ffffff;fillColor=#232F3E;dashed=0;verticalLabelPosition=middle;verticalAlign=bottom;align=center;html=1;whiteSpace=wrap;fontSize=10;fontStyle=1;spacing=3;shape=mxgraph.aws4.productIcon;prIcon=mxgraph.aws4.sqs;aspect=fixed;" vertex="1" parent="1">
                    <mxGeometry x="341" y="550.5" width="61.47" height="73" as="geometry"/>
                </mxCell>
                <mxCell id="223" style="edgeStyle=none;html=1;entryX=0;entryY=0.5;entryDx=0;entryDy=0;entryPerimeter=0;" edge="1" parent="1" target="31">
                    <mxGeometry relative="1" as="geometry">
                        <mxPoint x="400" y="459" as="sourcePoint"/>
                    </mxGeometry>
                </mxCell>
                <mxCell id="211" value="" style="sketch=0;outlineConnect=0;fontColor=#232F3E;gradientColor=none;strokeColor=#ffffff;fillColor=#232F3E;dashed=0;verticalLabelPosition=middle;verticalAlign=bottom;align=center;html=1;whiteSpace=wrap;fontSize=10;fontStyle=1;spacing=3;shape=mxgraph.aws4.productIcon;prIcon=mxgraph.aws4.sqs;aspect=fixed;" vertex="1" parent="1">
                    <mxGeometry x="341" y="433" width="61.47" height="73" as="geometry"/>
                </mxCell>
                <mxCell id="225" style="edgeStyle=none;html=1;entryX=0;entryY=0.5;entryDx=0;entryDy=0;entryPerimeter=0;" edge="1" parent="1" source="212" target="30">
                    <mxGeometry relative="1" as="geometry"/>
                </mxCell>
                <mxCell id="212" value="" style="sketch=0;outlineConnect=0;fontColor=#232F3E;gradientColor=none;strokeColor=#ffffff;fillColor=#232F3E;dashed=0;verticalLabelPosition=middle;verticalAlign=bottom;align=center;html=1;whiteSpace=wrap;fontSize=10;fontStyle=1;spacing=3;shape=mxgraph.aws4.productIcon;prIcon=mxgraph.aws4.sqs;aspect=fixed;" vertex="1" parent="1">
                    <mxGeometry x="341" y="294" width="61.47" height="73" as="geometry"/>
                </mxCell>
                <mxCell id="222" style="edgeStyle=none;html=1;entryX=0;entryY=0.5;entryDx=0;entryDy=0;entryPerimeter=0;" edge="1" parent="1" source="214" target="33">
                    <mxGeometry relative="1" as="geometry"/>
                </mxCell>
                <mxCell id="214" value="" style="sketch=0;outlineConnect=0;fontColor=#232F3E;gradientColor=none;strokeColor=#ffffff;fillColor=#232F3E;dashed=0;verticalLabelPosition=middle;verticalAlign=bottom;align=center;html=1;whiteSpace=wrap;fontSize=10;fontStyle=1;spacing=3;shape=mxgraph.aws4.productIcon;prIcon=mxgraph.aws4.sqs;aspect=fixed;" vertex="1" parent="1">
                    <mxGeometry x="341" y="683" width="61.47" height="73" as="geometry"/>
                </mxCell>
            </root>
        </mxGraphModel>
    </diagram>
</mxfile>